<svg width="508" height="508" viewBox="0 0 508 508" fill="none" xmlns="http://www.w3.org/2000/svg">
<g filter="url(#filter0_d_186_53)">
<ellipse cx="428.342" cy="208.333" rx="41.1184" ry="41.6667" fill="url(#paint0_linear_186_53)"/>
</g>
<g filter="url(#filter1_d_186_53)">
<ellipse cx="489.197" cy="193.334" rx="14.8026" ry="15" fill="url(#paint1_linear_186_53)"/>
</g>
<g filter="url(#filter2_d_186_53)">
<ellipse cx="375.71" cy="141.666" rx="8.22367" ry="8.33333" fill="url(#paint2_linear_186_53)"/>
</g>
<g filter="url(#filter3_d_186_53)">
<ellipse cx="443.965" cy="134.166" rx="20.5592" ry="20.8333" fill="url(#paint3_linear_186_53)"/>
</g>
<g filter="url(#filter4_d_186_53)">
<ellipse cx="479.327" cy="275" rx="24.671" ry="25" fill="url(#paint4_linear_186_53)"/>
</g>
<g filter="url(#filter5_d_186_53)">
<path fill-rule="evenodd" clip-rule="evenodd" d="M429.754 440.359C457.582 417.068 481.533 384.415 497.42 338.235C457.56 322.501 419.406 292.289 393.471 262.946L369.461 289.336C371.318 291.843 372.419 294.958 372.419 298.334C372.419 306.618 365.791 313.334 357.616 313.334C349.441 313.334 342.813 306.618 342.813 298.334C342.813 290.05 349.441 283.334 357.616 283.334C360.837 283.334 363.817 284.376 366.247 286.146L390.883 259.973C377.734 244.639 368.036 229.686 363.303 217.32C343.321 175.479 323.564 107.843 353.368 16.3399C313.63 1.63397 308.662 0 259.817 0C210.91 0 165.297 13.6945 126.527 37.3791V65.3589V93.1367L169.74 133.367C175.699 127.681 183.814 124.182 192.758 124.182C211.047 124.182 225.873 138.813 225.873 156.862C225.873 174.91 211.047 189.542 192.758 189.542C174.469 189.542 159.643 174.91 159.643 156.862C159.643 150.57 161.444 144.694 164.566 139.708L118.248 96.4046V42.6571C57.0655 83.3316 14.5171 149.527 5.69736 225.49H88.8576C90.776 216.168 99.1279 209.151 109.14 209.151C120.571 209.151 129.838 218.296 129.838 229.576C129.838 240.857 120.571 250.001 109.14 250.001C99.1267 250.001 90.774 242.983 88.8569 233.66H4.88261C4.29805 240.667 4 247.752 4 254.902C4 277.112 6.89695 298.448 12.3383 318.628H191.102L229.806 277.251C223.243 270.022 219.251 260.471 219.251 250.001C219.251 227.44 237.784 209.151 260.645 209.151C283.507 209.151 302.04 227.44 302.04 250.001C302.04 272.562 283.507 290.851 260.645 290.851C251.782 290.851 243.569 288.102 236.835 283.421L194.733 328.432H15.2097C47.3712 430.065 145.089 500 260.645 500C308.252 495.106 367.444 485.522 417.046 450.177L312.801 451.797L277.315 414.135C271.069 418.801 263.287 421.569 254.85 421.569C234.274 421.569 217.595 405.109 217.595 384.804C217.595 364.5 234.274 348.04 254.85 348.04C275.425 348.04 292.104 364.5 292.104 384.804C292.104 392.872 289.471 400.332 285.007 406.395L319.424 440.359H429.754Z" fill="url(#paint5_linear_186_53)"/>
</g>
<g filter="url(#filter6_d_186_53)">
<path d="M394 63.4789L399.833 9.99902L405.667 63.4789L440.667 70.1639L405.667 78.1858L399.833 131.666L394 78.1858L359 70.1639L394 63.4789Z" fill="url(#paint6_linear_186_53)"/>
</g>
<defs>
<filter id="filter0_d_186_53" x="383.224" y="166.667" width="90.2363" height="91.3335" filterUnits="userSpaceOnUse" color-interpolation-filters="sRGB">
<feFlood flood-opacity="0" result="BackgroundImageFix"/>
<feColorMatrix in="SourceAlpha" type="matrix" values="0 0 0 0 0 0 0 0 0 0 0 0 0 0 0 0 0 0 127 0" result="hardAlpha"/>
<feOffset dy="4"/>
<feGaussianBlur stdDeviation="2"/>
<feComposite in2="hardAlpha" operator="out"/>
<feColorMatrix type="matrix" values="0 0 0 0 0 0 0 0 0 0 0 0 0 0 0 0 0 0 0.25 0"/>
<feBlend mode="normal" in2="BackgroundImageFix" result="effect1_dropShadow_186_53"/>
<feBlend mode="normal" in="SourceGraphic" in2="effect1_dropShadow_186_53" result="shape"/>
</filter>
<filter id="filter1_d_186_53" x="470.395" y="178.334" width="37.6055" height="38" filterUnits="userSpaceOnUse" color-interpolation-filters="sRGB">
<feFlood flood-opacity="0" result="BackgroundImageFix"/>
<feColorMatrix in="SourceAlpha" type="matrix" values="0 0 0 0 0 0 0 0 0 0 0 0 0 0 0 0 0 0 127 0" result="hardAlpha"/>
<feOffset dy="4"/>
<feGaussianBlur stdDeviation="2"/>
<feComposite in2="hardAlpha" operator="out"/>
<feColorMatrix type="matrix" values="0 0 0 0 0 0 0 0 0 0 0 0 0 0 0 0 0 0 0.25 0"/>
<feBlend mode="normal" in2="BackgroundImageFix" result="effect1_dropShadow_186_53"/>
<feBlend mode="normal" in="SourceGraphic" in2="effect1_dropShadow_186_53" result="shape"/>
</filter>
<filter id="filter2_d_186_53" x="363.486" y="133.333" width="24.4473" height="24.6665" filterUnits="userSpaceOnUse" color-interpolation-filters="sRGB">
<feFlood flood-opacity="0" result="BackgroundImageFix"/>
<feColorMatrix in="SourceAlpha" type="matrix" values="0 0 0 0 0 0 0 0 0 0 0 0 0 0 0 0 0 0 127 0" result="hardAlpha"/>
<feOffset dy="4"/>
<feGaussianBlur stdDeviation="2"/>
<feComposite in2="hardAlpha" operator="out"/>
<feColorMatrix type="matrix" values="0 0 0 0 0 0 0 0 0 0 0 0 0 0 0 0 0 0 0.25 0"/>
<feBlend mode="normal" in2="BackgroundImageFix" result="effect1_dropShadow_186_53"/>
<feBlend mode="normal" in="SourceGraphic" in2="effect1_dropShadow_186_53" result="shape"/>
</filter>
<filter id="filter3_d_186_53" x="419.406" y="113.333" width="49.1182" height="49.6665" filterUnits="userSpaceOnUse" color-interpolation-filters="sRGB">
<feFlood flood-opacity="0" result="BackgroundImageFix"/>
<feColorMatrix in="SourceAlpha" type="matrix" values="0 0 0 0 0 0 0 0 0 0 0 0 0 0 0 0 0 0 127 0" result="hardAlpha"/>
<feOffset dy="4"/>
<feGaussianBlur stdDeviation="2"/>
<feComposite in2="hardAlpha" operator="out"/>
<feColorMatrix type="matrix" values="0 0 0 0 0 0 0 0 0 0 0 0 0 0 0 0 0 0 0.25 0"/>
<feBlend mode="normal" in2="BackgroundImageFix" result="effect1_dropShadow_186_53"/>
<feBlend mode="normal" in="SourceGraphic" in2="effect1_dropShadow_186_53" result="shape"/>
</filter>
<filter id="filter4_d_186_53" x="450.656" y="250" width="57.3418" height="58" filterUnits="userSpaceOnUse" color-interpolation-filters="sRGB">
<feFlood flood-opacity="0" result="BackgroundImageFix"/>
<feColorMatrix in="SourceAlpha" type="matrix" values="0 0 0 0 0 0 0 0 0 0 0 0 0 0 0 0 0 0 127 0" result="hardAlpha"/>
<feOffset dy="4"/>
<feGaussianBlur stdDeviation="2"/>
<feComposite in2="hardAlpha" operator="out"/>
<feColorMatrix type="matrix" values="0 0 0 0 0 0 0 0 0 0 0 0 0 0 0 0 0 0 0.25 0"/>
<feBlend mode="normal" in2="BackgroundImageFix" result="effect1_dropShadow_186_53"/>
<feBlend mode="normal" in="SourceGraphic" in2="effect1_dropShadow_186_53" result="shape"/>
</filter>
<filter id="filter5_d_186_53" x="0" y="0" width="501.42" height="508" filterUnits="userSpaceOnUse" color-interpolation-filters="sRGB">
<feFlood flood-opacity="0" result="BackgroundImageFix"/>
<feColorMatrix in="SourceAlpha" type="matrix" values="0 0 0 0 0 0 0 0 0 0 0 0 0 0 0 0 0 0 127 0" result="hardAlpha"/>
<feOffset dy="4"/>
<feGaussianBlur stdDeviation="2"/>
<feComposite in2="hardAlpha" operator="out"/>
<feColorMatrix type="matrix" values="0 0 0 0 0 0 0 0 0 0 0 0 0 0 0 0 0 0 0.25 0"/>
<feBlend mode="normal" in2="BackgroundImageFix" result="effect1_dropShadow_186_53"/>
<feBlend mode="normal" in="SourceGraphic" in2="effect1_dropShadow_186_53" result="shape"/>
</filter>
<filter id="filter6_d_186_53" x="355" y="9.99902" width="89.667" height="129.667" filterUnits="userSpaceOnUse" color-interpolation-filters="sRGB">
<feFlood flood-opacity="0" result="BackgroundImageFix"/>
<feColorMatrix in="SourceAlpha" type="matrix" values="0 0 0 0 0 0 0 0 0 0 0 0 0 0 0 0 0 0 127 0" result="hardAlpha"/>
<feOffset dy="4"/>
<feGaussianBlur stdDeviation="2"/>
<feComposite in2="hardAlpha" operator="out"/>
<feColorMatrix type="matrix" values="0 0 0 0 0 0 0 0 0 0 0 0 0 0 0 0 0 0 0.25 0"/>
<feBlend mode="normal" in2="BackgroundImageFix" result="effect1_dropShadow_186_53"/>
<feBlend mode="normal" in="SourceGraphic" in2="effect1_dropShadow_186_53" result="shape"/>
</filter>
<linearGradient id="paint0_linear_186_53" x1="428.342" y1="166.667" x2="428.342" y2="250" gradientUnits="userSpaceOnUse">
<stop stop-color="#034F86"/>
<stop offset="0.9998" stop-color="#63C3E1"/>
<stop offset="0.9999" stop-color="#63C3E1"/>
</linearGradient>
<linearGradient id="paint1_linear_186_53" x1="489.197" y1="178.334" x2="489.197" y2="208.334" gradientUnits="userSpaceOnUse">
<stop stop-color="#034F86"/>
<stop offset="0.9998" stop-color="#63C3E1"/>
<stop offset="0.9999" stop-color="#63C3E1"/>
</linearGradient>
<linearGradient id="paint2_linear_186_53" x1="375.71" y1="133.333" x2="375.71" y2="150" gradientUnits="userSpaceOnUse">
<stop stop-color="#034F86"/>
<stop offset="1" stop-color="#63C3E1"/>
</linearGradient>
<linearGradient id="paint3_linear_186_53" x1="443.965" y1="113.333" x2="443.965" y2="154.999" gradientUnits="userSpaceOnUse">
<stop stop-color="#034F86"/>
<stop offset="1" stop-color="#63C3E1"/>
</linearGradient>
<linearGradient id="paint4_linear_186_53" x1="479.327" y1="250" x2="479.327" y2="300" gradientUnits="userSpaceOnUse">
<stop stop-color="#034F86"/>
<stop offset="1" stop-color="#63C3E1"/>
</linearGradient>
<linearGradient id="paint5_linear_186_53" x1="257.289" y1="-16.6667" x2="257.289" y2="483.333" gradientUnits="userSpaceOnUse">
<stop stop-color="#034F86"/>
<stop offset="0.510417" stop-color="#1989AD"/>
<stop offset="1" stop-color="#63C3E1"/>
</linearGradient>
<linearGradient id="paint6_linear_186_53" x1="399.833" y1="9.99902" x2="399.833" y2="131.666" gradientUnits="userSpaceOnUse">
<stop stop-color="#034F86"/>
<stop offset="1" stop-color="#63C3E1"/>
</linearGradient>
</defs>
</svg>
