<svg width="225" height="225" viewBox="0 0 225 225" fill="none" xmlns="http://www.w3.org/2000/svg">
<path d="M137.886 45.0357C137.886 39.3827 129.008 30.5929 122.801 25.2501C115.577 19.0318 112.178 14.321 107.717 13.0019C101.343 17.1475 95.8032 22.0073 91.9945 25.2501C76.0601 38.8174 79.8844 37.3099 77.3349 43.1513C69.8988 31.28 81.1591 24.1195 88.8077 17.1475C94.5957 11.8713 102.405 4.14554 107.717 0C112.816 3.20338 119.73 9.93955 124.713 14.321C137.036 25.1558 146.384 35.4255 137.886 45.0357Z" fill="url(#paint0_linear_79_4)"/>
<path d="M137.886 45.0357C137.886 39.3827 129.008 30.5929 122.801 25.2501C115.577 19.0318 112.178 14.321 107.717 13.0019C101.343 17.1475 95.8032 22.0073 91.9945 25.2501C76.0601 38.8174 79.8844 37.3099 77.3349 43.1513C69.8988 31.28 81.1591 24.1195 88.8077 17.1475C94.5957 11.8713 102.405 4.14554 107.717 0C112.816 3.20338 119.73 9.93955 124.713 14.321C137.036 25.1558 146.384 35.4255 137.886 45.0357Z" fill="url(#paint1_linear_79_4)"/>
<path d="M11.4728 61.2408C17.4216 74.6196 17.6341 92.5208 28.4695 100.623C6.58622 104.392 7.64852 70.6624 0 55.5877C8.28589 53.515 55.6642 35.237 58.0012 54.2687C46.9534 49.5579 22.9455 59.1681 11.4728 61.2408Z" fill="url(#paint2_linear_79_4)"/>
<path d="M26.1007 109.788C36.523 117.354 42.4864 129.255 54.8139 129.265C39.8275 138.618 27.941 119.458 16.3237 109.78C16.3237 109.78 42.9166 79.5191 54.7739 90.1778C42.7041 91.0136 33.9199 104.807 26.1007 109.788Z" fill="url(#paint3_linear_79_4)"/>
<path d="M189.26 109.88C178.954 102.189 173.172 90.2178 160.846 90.0599C175.974 80.887 187.567 100.188 199.036 110.005C199.036 110.005 171.983 139.944 160.29 129.144C172.371 128.453 181.365 114.766 189.26 109.88Z" fill="url(#paint4_linear_79_4)"/>
<path d="M67.2943 172.391C79.7847 167.921 94.4176 169.003 100.352 159.42C102.398 175.572 77.7403 175.607 62.5874 179.991C62.5874 179.991 45.4493 144.764 61.6868 140.665C56.712 150.454 66.1283 163.916 67.2943 172.391Z" fill="url(#paint5_linear_79_4)"/>
<path d="M148.934 171.453C151.012 159.651 159.563 149.063 153.33 139.63C170.013 146.355 157.404 165.149 153.877 178.934C153.877 178.934 110.99 173.92 115.348 159.454C122.273 168.262 140.132 167.995 148.934 171.453Z" fill="url(#paint6_linear_79_4)"/>
<path d="M67.946 47.2428C65.6939 59.0202 56.9881 69.5076 63.0816 79.012C46.499 72.0945 59.3838 53.4488 63.1132 39.7049C63.1132 39.7049 105.923 45.2153 101.352 59.6295C94.5576 50.7424 76.6961 50.8025 67.946 47.2428Z" fill="url(#paint7_linear_79_4)"/>
<path d="M149.016 47.1115C136.438 51.3831 121.829 50.0704 115.703 59.5583C113.982 43.3771 138.636 43.7306 153.875 39.5866C153.875 39.5866 170.303 75.0786 153.986 78.921C159.156 69.2119 150.012 55.6038 149.016 47.1115Z" fill="url(#paint8_linear_79_4)"/>
<path d="M107.929 58.7915C99.485 68.0979 94.1192 67.0826 92.8445 76.8812C86.0458 67.0826 96.7561 63.6586 107.571 53.2748C107.571 53.2748 130.875 67.0826 123.226 76.8812C119.827 67.0826 114.09 65.3867 107.929 58.7915Z" fill="url(#paint9_linear_79_4)"/>
<path d="M107.802 160.92C116.159 151.552 121.534 152.528 122.718 142.72C129.607 152.469 118.929 155.971 108.211 166.434C108.211 166.434 84.7802 152.797 92.3372 142.943C95.8277 152.716 101.58 154.37 107.802 160.92Z" fill="url(#paint10_linear_79_4)"/>
<path d="M57.4791 135.602C70.8898 137.277 72.6515 141.916 82.8649 137.839C76.7927 148.108 67.9585 141.66 52.2805 138.722C52.2805 138.722 53.7982 113.727 67.2809 114.539C59.4651 122.2 60.753 127.474 57.4791 135.602Z" fill="url(#paint11_linear_79_4)"/>
<path d="M157.229 135.444C152.666 124.205 156.437 120.67 147.667 114.604C160.639 114.556 158.36 124.449 162.726 138.045C162.726 138.045 137.302 148.503 131.851 137.611C143.054 140.137 147.673 136.676 157.229 135.444Z" fill="url(#paint12_linear_79_4)"/>
<path d="M158.619 84.4271C145.391 82.1794 143.885 77.5003 133.53 81.0988C140.097 71.1767 148.531 77.9593 163.945 81.5588C163.945 81.5588 161.129 106.289 147.784 104.895C155.945 97.6358 154.943 92.3471 158.619 84.4271Z" fill="url(#paint13_linear_79_4)"/>
<path d="M57.6896 84.0262C62.373 95.2264 58.6403 98.7927 67.474 104.785C54.503 104.942 56.6764 95.0298 52.165 81.4716C52.165 81.4716 77.4755 70.7994 83.0431 81.6459C71.8141 79.2136 67.2325 82.7134 57.6896 84.0262Z" fill="url(#paint14_linear_79_4)"/>
<path d="M111.966 33.5413C111.966 37.8753 110.691 44.0936 107.717 45.7895C104.53 43.5283 103.255 37.4984 103.255 33.5413C103.255 29.5842 104.317 25.2502 107.717 22.8006C110.266 24.4965 111.966 29.7726 111.966 33.5413Z" fill="url(#paint15_linear_79_4)"/>
<path d="M31.4302 144.335C35.6516 142.152 42.4915 140.006 45.5005 141.422C45.5006 144.717 39.672 149.017 35.8176 151.01C31.9633 153.003 26.5571 154.139 23.1085 153.001C23.1085 149.617 27.7593 146.234 31.4302 144.335Z" fill="url(#paint16_linear_79_4)"/>
<path d="M111.966 185.23C111.966 189.564 110.054 196.348 107.717 197.478C104.742 195.971 103.255 189.187 103.255 185.23C103.255 181.273 104.955 176.751 107.717 174.49C110.266 176.751 111.966 181.462 111.966 185.23Z" fill="url(#paint17_linear_79_4)"/>
<path d="M180.247 150.728C176.008 148.572 170.381 144.026 170.381 141.366C173.154 140.383 180.71 142.058 184.581 144.026C188.451 145.995 192.867 149.805 192.867 152.802C189.301 153.95 183.933 152.603 180.247 150.728Z" fill="url(#paint18_linear_79_4)"/>
<path d="M184.583 75.7529C180.351 77.9206 173.367 79.5192 170.499 78.6156C170.499 75.7529 176.362 71.0421 180.226 69.0629C184.089 67.0837 190.576 65.5751 192.944 67.1174C192.944 69.5322 188.262 73.868 184.583 75.7529Z" fill="url(#paint19_linear_79_4)"/>
<path d="M35.6718 68.3532C39.8915 70.5387 45.2542 74.6197 45.4543 77.7841C42.2798 78.7652 35.1318 77.0202 31.2791 75.0247C27.4263 73.0292 23.0714 68.9667 23.0714 66.1912C26.1329 64.8211 32.0024 66.4527 35.6718 68.3532Z" fill="url(#paint20_linear_79_4)"/>
<path d="M47.9431 107.185C51.5144 107.13 56.609 107.783 58.0836 109.475C56.5165 110.971 51.3015 112.148 48.0407 112.197C44.7799 112.247 40.3236 111.303 39.14 109.766C40.4706 108.089 44.8376 107.232 47.9431 107.185Z" fill="url(#paint21_linear_79_4)"/>
<path d="M79.9897 62.4631C81.8615 65.1612 83.8229 69.3821 82.9313 71.3698C80.6823 70.9351 76.8847 67.5538 75.1756 65.0904C73.4665 62.6269 72.1135 58.7445 73.0025 57.0581C75.3072 57.2198 78.362 60.117 79.9897 62.4631Z" fill="url(#paint22_linear_79_4)"/>
<path d="M72.1312 89.3965C74.3242 90.4929 77.1365 92.536 77.2999 94.1138C75.701 94.5978 72.0243 93.7163 70.022 92.7153C68.0197 91.7143 65.7214 89.682 65.6676 88.2984C67.2013 87.6203 70.2243 88.4432 72.1312 89.3965Z" fill="url(#paint23_linear_79_4)"/>
<path d="M143.004 89.5802C145.156 88.4205 148.541 87.2451 150.172 87.8908C149.866 89.3643 147.2 91.7768 145.236 92.8357C143.271 93.8945 140.149 94.6777 138.762 94.0422C138.845 92.5242 141.134 90.5886 143.004 89.5802Z" fill="url(#paint24_linear_79_4)"/>
<path d="M69.9181 126.89C72.0692 125.73 75.4544 124.555 77.0858 125.201C76.7793 126.674 74.1133 129.087 72.1492 130.145C70.1851 131.204 67.0621 131.987 65.6753 131.352C65.7591 129.834 68.0475 127.898 69.9181 126.89Z" fill="url(#paint25_linear_79_4)"/>
<path d="M110.225 72.3052C110.18 74.5376 109.492 77.7034 108.004 78.5813C106.764 77.5641 105.889 74.2763 105.93 72.238C105.971 70.1998 106.893 67.4401 108.24 66.7401C109.642 67.6141 110.263 70.364 110.225 72.3052Z" fill="url(#paint26_linear_79_4)"/>
<path d="M78.3539 108.297C80.1367 108.249 82.6861 108.57 83.4369 109.464C82.667 110.269 80.073 110.924 78.4452 110.968C76.8174 111.011 74.5842 110.532 73.9801 109.718C74.6303 108.818 76.8036 108.338 78.3539 108.297Z" fill="url(#paint27_linear_79_4)"/>
<path d="M94.3345 86.7909C95.1352 88.2045 95.882 90.3901 95.2841 91.371C94.1363 91.0914 92.3733 89.2812 91.6421 87.9905C90.911 86.6999 90.4601 84.7015 91.0367 83.8728C92.2318 84.0159 93.6382 85.5617 94.3345 86.7909Z" fill="url(#paint28_linear_79_4)"/>
<path d="M123.789 87.6525C122.838 88.9905 121.113 90.6863 119.857 90.7386C119.535 89.7224 120.372 87.4486 121.241 86.2269C122.11 85.0052 123.806 83.6309 124.904 83.641C125.383 84.6226 124.617 86.4889 123.789 87.6525Z" fill="url(#paint29_linear_79_4)"/>
<path d="M94.4703 132.5C93.5188 133.838 91.794 135.534 90.5381 135.586C90.2155 134.57 91.0531 132.296 91.9218 131.074C92.7906 129.853 94.4873 128.478 95.5852 128.488C96.0641 129.47 95.2977 131.336 94.4703 132.5Z" fill="url(#paint30_linear_79_4)"/>
<path d="M123.654 131.638C124.455 133.052 125.201 135.238 124.603 136.218C123.456 135.939 121.693 134.129 120.962 132.838C120.23 131.547 119.779 129.549 120.356 128.72C121.551 128.863 122.958 130.409 123.654 131.638Z" fill="url(#paint31_linear_79_4)"/>
<path d="M136.992 108.297C138.775 108.249 141.325 108.57 142.075 109.464C141.306 110.269 138.712 110.924 137.084 110.968C135.456 111.011 133.223 110.532 132.619 109.718C133.269 108.818 135.442 108.338 136.992 108.297Z" fill="url(#paint32_linear_79_4)"/>
<path d="M110.225 146.548C110.18 148.78 109.492 151.946 108.004 152.824C106.764 151.807 105.889 148.519 105.93 146.481C105.971 144.443 106.893 141.683 108.24 140.983C109.642 141.857 110.263 144.607 110.225 146.548Z" fill="url(#paint33_linear_79_4)"/>
<path d="M144.792 126.33C146.985 127.426 149.797 129.469 149.961 131.047C148.362 131.531 144.685 130.65 142.683 129.649C140.681 128.648 138.382 126.615 138.328 125.232C139.862 124.554 142.885 125.376 144.792 126.33Z" fill="url(#paint34_linear_79_4)"/>
<path d="M135.346 62.7496C137.15 60.0154 140.427 56.4949 142.824 56.2578C143.449 58.2225 141.872 62.7853 140.224 65.2817C138.577 67.7781 135.351 70.6633 133.255 70.7607C132.331 68.8808 133.777 65.1271 135.346 62.7496Z" fill="url(#paint35_linear_79_4)"/>
<path d="M166.92 107.185C170.491 107.13 175.586 107.783 177.06 109.475C175.493 110.971 170.278 112.148 167.017 112.197C163.757 112.247 159.3 111.303 158.117 109.766C159.447 108.089 163.814 107.232 166.92 107.185Z" fill="url(#paint36_linear_79_4)"/>
<path d="M135.764 157.225C134.184 154.384 132.676 150.019 133.773 148.114C135.966 148.733 139.391 152.414 140.834 155.008C142.276 157.602 143.214 161.58 142.152 163.185C139.874 162.833 137.138 159.696 135.764 157.225Z" fill="url(#paint37_linear_79_4)"/>
<path d="M75.4632 154.687C77.2797 151.959 80.5728 148.451 82.9709 148.222C83.5874 150.189 81.9887 154.746 80.3301 157.237C78.6715 159.727 75.432 162.601 73.3355 162.691C72.4208 160.807 73.8836 157.059 75.4632 154.687Z" fill="url(#paint38_linear_79_4)"/>
<path d="M12.1102 158.85C26.1324 162.618 48.6531 169.025 57.3639 166.199C57.3639 182.781 17.6341 169.967 0 164.314C5.94885 155.458 7.43606 114.756 27.6196 120.032C23.3705 123.989 13.8098 146.413 12.1102 158.85Z" fill="url(#paint39_linear_79_4)"/>
<path d="M215.008 55.2111C209.697 71.2279 207.997 105.711 187.176 99.6815C194.612 98.0208 199.499 76.5039 203.96 61.2409C187.176 56.9069 171.029 51.0655 157.219 53.7037C162.531 37.1214 191.85 49.7464 215.008 55.2111Z" fill="url(#paint40_linear_79_4)"/>
<path d="M215.505 164.854C197.239 168.887 162.835 185.021 158.174 166.04C163.549 170.891 186.951 163.751 204.054 159.449C199.784 144.414 197.303 129.105 187.754 119.871C206.57 115.552 209.113 144.37 215.505 164.854Z" fill="url(#paint41_linear_79_4)"/>
<path d="M107.631 219.902C95.819 207.182 61.9263 188.548 78.0418 175.392C76.037 181.957 94.8051 196.263 107.631 207.182C120.105 196.319 135.549 187.492 137.91 174.713C152.758 188.811 124.335 204.662 107.631 219.902Z" fill="url(#paint42_linear_79_4)"/>
<path d="M128.75 95.1591C132.429 92.3326 130.237 83.6646 127.475 79.7075C119.19 79.7075 111.541 82.8913 111.541 85.7374C110.054 77.8232 120.039 77.0695 130.237 75.1851C135.761 84.0415 135.761 95.1591 128.75 95.1591Z" fill="url(#paint43_linear_79_4)"/>
<path d="M111.327 133.083C112.429 137.288 122.096 139.613 127.331 139.292C131.197 132.792 131.59 125.307 128.752 123.979C137.338 126.504 133.431 134.69 130.552 143.569C119.143 143.77 108.056 138.583 111.327 133.083Z" fill="url(#paint44_linear_79_4)"/>
<path d="M87.4697 124.069C83.8072 126.912 86.0492 135.57 88.8342 139.514C97.12 139.476 104.75 136.258 104.733 133.412C106.267 141.319 96.2855 142.118 86.0985 144.049C80.5232 135.218 80.4587 124.101 87.4697 124.069Z" fill="url(#paint45_linear_79_4)"/>
<path d="M82.675 100.946C78.0098 99.7146 70.9487 106.015 68.6723 110.208C73.1281 116.404 80.2676 120.411 82.9731 118.881C76.2496 124.249 70.1634 117.187 62.8881 110.575C68.3364 101.682 78.9048 95.703 82.675 100.946Z" fill="url(#paint46_linear_79_4)"/>
<path d="M132.493 118.497C137.065 119.98 144.549 114.076 147.111 110.015C143.093 103.588 136.244 99.1994 133.438 100.58C140.52 95.588 146.106 102.968 152.91 109.964C146.856 118.543 135.894 123.935 132.493 118.497Z" fill="url(#paint47_linear_79_4)"/>
<path d="M104.351 85.8886C103.113 81.7137 93.3744 79.637 88.152 80.0911C84.499 86.6873 84.3489 94.1797 87.2292 95.4344C78.5643 93.1292 82.2039 84.8477 84.793 75.8986C96.1911 75.4057 107.442 80.3072 104.351 85.8886Z" fill="url(#paint48_linear_79_4)"/>
<ellipse cx="107.929" cy="109.668" rx="10.6229" ry="9.42169" fill="url(#paint49_linear_79_4)"/>
<defs>
<linearGradient id="paint0_linear_79_4" x1="108.029" y1="0" x2="108.029" y2="45.0357" gradientUnits="userSpaceOnUse">
<stop offset="0.375" stop-color="#FF4D00"/>
<stop offset="1" stop-color="#FDD502" stop-opacity="0.84"/>
</linearGradient>
<linearGradient id="paint1_linear_79_4" x1="108.029" y1="0" x2="108.029" y2="45.0357" gradientUnits="userSpaceOnUse">
<stop offset="0.375" stop-color="#FF4D00"/>
<stop offset="1" stop-color="#FDD502" stop-opacity="0.84"/>
</linearGradient>
<linearGradient id="paint2_linear_79_4" x1="29.0006" y1="45.6911" x2="29.0006" y2="100.915" gradientUnits="userSpaceOnUse">
<stop offset="0.375" stop-color="#FF4D00"/>
<stop offset="1" stop-color="#FDD502" stop-opacity="0.84"/>
</linearGradient>
<linearGradient id="paint3_linear_79_4" x1="32.2002" y1="93.1826" x2="47.4318" y2="132.482" gradientUnits="userSpaceOnUse">
<stop offset="0.375" stop-color="#FF4D00"/>
<stop offset="1" stop-color="#FDD502" stop-opacity="0.84"/>
</linearGradient>
<linearGradient id="paint4_linear_79_4" x1="182.907" y1="126.41" x2="168.181" y2="86.9676" gradientUnits="userSpaceOnUse">
<stop offset="0.375" stop-color="#FF4D00"/>
<stop offset="1" stop-color="#FDD502" stop-opacity="0.84"/>
</linearGradient>
<linearGradient id="paint5_linear_79_4" x1="53.8081" y1="159.666" x2="100.223" y2="164.356" gradientUnits="userSpaceOnUse">
<stop offset="0.375" stop-color="#FF4D00"/>
<stop offset="1" stop-color="#FDD502" stop-opacity="0.84"/>
</linearGradient>
<linearGradient id="paint6_linear_79_4" x1="129.701" y1="175.197" x2="152.994" y2="139.011" gradientUnits="userSpaceOnUse">
<stop offset="0.375" stop-color="#FF4D00"/>
<stop offset="1" stop-color="#FDD502" stop-opacity="0.84"/>
</linearGradient>
<linearGradient id="paint7_linear_79_4" x1="87.2324" y1="43.722" x2="63.4542" y2="79.6653" gradientUnits="userSpaceOnUse">
<stop offset="0.375" stop-color="#FF4D00"/>
<stop offset="1" stop-color="#FDD502" stop-opacity="0.84"/>
</linearGradient>
<linearGradient id="paint8_linear_79_4" x1="162.245" y1="60.0472" x2="115.955" y2="54.4315" gradientUnits="userSpaceOnUse">
<stop offset="0.375" stop-color="#FF4D00"/>
<stop offset="1" stop-color="#FDD502" stop-opacity="0.84"/>
</linearGradient>
<linearGradient id="paint9_linear_79_4" x1="120.934" y1="62.8837" x2="92.7605" y2="77.0811" gradientUnits="userSpaceOnUse">
<stop offset="0.375" stop-color="#FF4D00"/>
<stop offset="1" stop-color="#FDD502" stop-opacity="0.84"/>
</linearGradient>
<linearGradient id="paint10_linear_79_4" x1="94.7592" y1="156.923" x2="122.783" y2="142.487" gradientUnits="userSpaceOnUse">
<stop offset="0.375" stop-color="#FF4D00"/>
<stop offset="1" stop-color="#FDD502" stop-opacity="0.84"/>
</linearGradient>
<linearGradient id="paint11_linear_79_4" x1="54.8005" y1="123.517" x2="79.104" y2="142.832" gradientUnits="userSpaceOnUse">
<stop offset="0.375" stop-color="#FF4D00"/>
<stop offset="1" stop-color="#FDD502" stop-opacity="0.84"/>
</linearGradient>
<linearGradient id="paint12_linear_79_4" x1="146.519" y1="143.162" x2="149.75" y2="114.689" gradientUnits="userSpaceOnUse">
<stop offset="0.375" stop-color="#FF4D00"/>
<stop offset="1" stop-color="#FDD502" stop-opacity="0.84"/>
</linearGradient>
<linearGradient id="paint13_linear_79_4" x1="160.646" y1="96.5334" x2="137.575" y2="76.2542" gradientUnits="userSpaceOnUse">
<stop offset="0.375" stop-color="#FF4D00"/>
<stop offset="1" stop-color="#FDD502" stop-opacity="0.84"/>
</linearGradient>
<linearGradient id="paint14_linear_79_4" x1="68.3162" y1="76.2183" x2="65.3274" y2="104.71" gradientUnits="userSpaceOnUse">
<stop offset="0.375" stop-color="#FF4D00"/>
<stop offset="1" stop-color="#FDD502" stop-opacity="0.84"/>
</linearGradient>
<linearGradient id="paint15_linear_79_4" x1="107.61" y1="22.8006" x2="107.61" y2="45.7895" gradientUnits="userSpaceOnUse">
<stop offset="0.375" stop-color="#FF4D00"/>
<stop offset="1" stop-color="#FDD502" stop-opacity="0.84"/>
</linearGradient>
<linearGradient id="paint16_linear_79_4" x1="23.162" y1="153.082" x2="44.1124" y2="139.31" gradientUnits="userSpaceOnUse">
<stop offset="0.375" stop-color="#FF4D00"/>
<stop offset="1" stop-color="#FDD502" stop-opacity="0.84"/>
</linearGradient>
<linearGradient id="paint17_linear_79_4" x1="107.61" y1="174.49" x2="107.61" y2="197.478" gradientUnits="userSpaceOnUse">
<stop offset="0.375" stop-color="#FF4D00"/>
<stop offset="1" stop-color="#FDD502" stop-opacity="0.84"/>
</linearGradient>
<linearGradient id="paint18_linear_79_4" x1="192.919" y1="152.72" x2="171.848" y2="139.097" gradientUnits="userSpaceOnUse">
<stop offset="0.375" stop-color="#FF4D00"/>
<stop offset="1" stop-color="#FDD502" stop-opacity="0.84"/>
</linearGradient>
<linearGradient id="paint19_linear_79_4" x1="192.891" y1="67.0358" x2="171.872" y2="80.7241" gradientUnits="userSpaceOnUse">
<stop offset="0.375" stop-color="#FF4D00"/>
<stop offset="1" stop-color="#FDD502" stop-opacity="0.84"/>
</linearGradient>
<linearGradient id="paint20_linear_79_4" x1="23.0178" y1="66.2726" x2="43.9564" y2="80.0591" gradientUnits="userSpaceOnUse">
<stop offset="0.375" stop-color="#FF4D00"/>
<stop offset="1" stop-color="#FDD502" stop-opacity="0.84"/>
</linearGradient>
<linearGradient id="paint21_linear_79_4" x1="39.1412" y1="109.827" x2="58.0832" y2="109.458" gradientUnits="userSpaceOnUse">
<stop offset="0.375" stop-color="#FF4D00"/>
<stop offset="1" stop-color="#FDD502" stop-opacity="0.84"/>
</linearGradient>
<linearGradient id="paint22_linear_79_4" x1="72.9437" y1="57.0901" x2="81.2402" y2="72.2927" gradientUnits="userSpaceOnUse">
<stop offset="0.375" stop-color="#FF4D00"/>
<stop offset="1" stop-color="#FDD502" stop-opacity="0.84"/>
</linearGradient>
<linearGradient id="paint23_linear_79_4" x1="65.6418" y1="88.3389" x2="76.56" y2="95.2779" gradientUnits="userSpaceOnUse">
<stop offset="0.375" stop-color="#FF4D00"/>
<stop offset="1" stop-color="#FDD502" stop-opacity="0.84"/>
</linearGradient>
<linearGradient id="paint24_linear_79_4" x1="138.789" y1="94.0819" x2="149.421" y2="86.7952" gradientUnits="userSpaceOnUse">
<stop offset="0.375" stop-color="#FF4D00"/>
<stop offset="1" stop-color="#FDD502" stop-opacity="0.84"/>
</linearGradient>
<linearGradient id="paint25_linear_79_4" x1="65.7025" y1="131.392" x2="76.3349" y2="124.105" gradientUnits="userSpaceOnUse">
<stop offset="0.375" stop-color="#FF4D00"/>
<stop offset="1" stop-color="#FDD502" stop-opacity="0.84"/>
</linearGradient>
<linearGradient id="paint26_linear_79_4" x1="108.187" y1="66.7392" x2="108.002" y2="78.5812" gradientUnits="userSpaceOnUse">
<stop offset="0.375" stop-color="#FF4D00"/>
<stop offset="1" stop-color="#FDD502" stop-opacity="0.84"/>
</linearGradient>
<linearGradient id="paint27_linear_79_4" x1="73.9812" y1="109.751" x2="83.4356" y2="109.428" gradientUnits="userSpaceOnUse">
<stop offset="0.375" stop-color="#FF4D00"/>
<stop offset="1" stop-color="#FDD502" stop-opacity="0.84"/>
</linearGradient>
<linearGradient id="paint28_linear_79_4" x1="91.0039" y1="83.8875" x2="94.4951" y2="91.7226" gradientUnits="userSpaceOnUse">
<stop offset="0.375" stop-color="#FF4D00"/>
<stop offset="1" stop-color="#FDD502" stop-opacity="0.84"/>
</linearGradient>
<linearGradient id="paint29_linear_79_4" x1="124.873" y1="83.6236" x2="120.646" y2="91.18" gradientUnits="userSpaceOnUse">
<stop offset="0.375" stop-color="#FF4D00"/>
<stop offset="1" stop-color="#FDD502" stop-opacity="0.84"/>
</linearGradient>
<linearGradient id="paint30_linear_79_4" x1="95.5542" y1="128.471" x2="91.3273" y2="136.027" gradientUnits="userSpaceOnUse">
<stop offset="0.375" stop-color="#FF4D00"/>
<stop offset="1" stop-color="#FDD502" stop-opacity="0.84"/>
</linearGradient>
<linearGradient id="paint31_linear_79_4" x1="120.323" y1="128.735" x2="123.815" y2="136.57" gradientUnits="userSpaceOnUse">
<stop offset="0.375" stop-color="#FF4D00"/>
<stop offset="1" stop-color="#FDD502" stop-opacity="0.84"/>
</linearGradient>
<linearGradient id="paint32_linear_79_4" x1="132.62" y1="109.751" x2="142.074" y2="109.428" gradientUnits="userSpaceOnUse">
<stop offset="0.375" stop-color="#FF4D00"/>
<stop offset="1" stop-color="#FDD502" stop-opacity="0.84"/>
</linearGradient>
<linearGradient id="paint33_linear_79_4" x1="108.187" y1="140.982" x2="108.002" y2="152.824" gradientUnits="userSpaceOnUse">
<stop offset="0.375" stop-color="#FF4D00"/>
<stop offset="1" stop-color="#FDD502" stop-opacity="0.84"/>
</linearGradient>
<linearGradient id="paint34_linear_79_4" x1="138.303" y1="125.272" x2="149.221" y2="132.211" gradientUnits="userSpaceOnUse">
<stop offset="0.375" stop-color="#FF4D00"/>
<stop offset="1" stop-color="#FDD502" stop-opacity="0.84"/>
</linearGradient>
<linearGradient id="paint35_linear_79_4" x1="133.314" y1="70.7916" x2="141.275" y2="55.4537" gradientUnits="userSpaceOnUse">
<stop offset="0.375" stop-color="#FF4D00"/>
<stop offset="1" stop-color="#FDD502" stop-opacity="0.84"/>
</linearGradient>
<linearGradient id="paint36_linear_79_4" x1="158.118" y1="109.827" x2="177.06" y2="109.458" gradientUnits="userSpaceOnUse">
<stop offset="0.375" stop-color="#FF4D00"/>
<stop offset="1" stop-color="#FDD502" stop-opacity="0.84"/>
</linearGradient>
<linearGradient id="paint37_linear_79_4" x1="142.214" y1="163.158" x2="135.336" y2="147.43" gradientUnits="userSpaceOnUse">
<stop offset="0.375" stop-color="#FF4D00"/>
<stop offset="1" stop-color="#FDD502" stop-opacity="0.84"/>
</linearGradient>
<linearGradient id="paint38_linear_79_4" x1="73.3949" y1="162.722" x2="81.417" y2="147.408" gradientUnits="userSpaceOnUse">
<stop offset="0.375" stop-color="#FF4D00"/>
<stop offset="1" stop-color="#FDD502" stop-opacity="0.84"/>
</linearGradient>
<linearGradient id="paint39_linear_79_4" x1="28.6819" y1="119.562" x2="28.6819" y2="174.385" gradientUnits="userSpaceOnUse">
<stop offset="0.375" stop-color="#FF4D00"/>
<stop offset="1" stop-color="#FDD502" stop-opacity="0.84"/>
</linearGradient>
<linearGradient id="paint40_linear_79_4" x1="186.114" y1="45.4505" x2="186.114" y2="100.381" gradientUnits="userSpaceOnUse">
<stop offset="0.375" stop-color="#FF4D00"/>
<stop offset="1" stop-color="#FDD502" stop-opacity="0.84"/>
</linearGradient>
<linearGradient id="paint41_linear_79_4" x1="210.391" y1="137.809" x2="160.421" y2="170.825" gradientUnits="userSpaceOnUse">
<stop offset="0.375" stop-color="#FF4D00"/>
<stop offset="1" stop-color="#FDD502" stop-opacity="0.84"/>
</linearGradient>
<linearGradient id="paint42_linear_79_4" x1="132.371" y1="202.084" x2="80.8737" y2="169.514" gradientUnits="userSpaceOnUse">
<stop offset="0.375" stop-color="#FF4D00"/>
<stop offset="1" stop-color="#FDD502" stop-opacity="0.84"/>
</linearGradient>
<linearGradient id="paint43_linear_79_4" x1="122.802" y1="75.1851" x2="122.802" y2="95.1591" gradientUnits="userSpaceOnUse">
<stop offset="0.375" stop-color="#FF4D00"/>
<stop offset="1" stop-color="#FDD502" stop-opacity="0.84"/>
</linearGradient>
<linearGradient id="paint44_linear_79_4" x1="134.021" y1="137.736" x2="115.212" y2="126.55" gradientUnits="userSpaceOnUse">
<stop offset="0.375" stop-color="#FF4D00"/>
<stop offset="1" stop-color="#FDD502" stop-opacity="0.84"/>
</linearGradient>
<linearGradient id="paint45_linear_79_4" x1="93.5337" y1="144.015" x2="93.4424" y2="124.041" gradientUnits="userSpaceOnUse">
<stop offset="0.375" stop-color="#FF4D00"/>
<stop offset="1" stop-color="#FDD502" stop-opacity="0.84"/>
</linearGradient>
<linearGradient id="paint46_linear_79_4" x1="66.8864" y1="116.134" x2="84.4926" y2="103.473" gradientUnits="userSpaceOnUse">
<stop offset="0.375" stop-color="#FF4D00"/>
<stop offset="1" stop-color="#FDD502" stop-opacity="0.84"/>
</linearGradient>
<linearGradient id="paint47_linear_79_4" x1="149.304" y1="104.197" x2="130.79" y2="115.772" gradientUnits="userSpaceOnUse">
<stop offset="0.375" stop-color="#FF4D00"/>
<stop offset="1" stop-color="#FDD502" stop-opacity="0.84"/>
</linearGradient>
<linearGradient id="paint48_linear_79_4" x1="81.515" y1="81.8176" x2="100.716" y2="92.4517" gradientUnits="userSpaceOnUse">
<stop offset="0.375" stop-color="#FF4D00"/>
<stop offset="1" stop-color="#FDD502" stop-opacity="0.84"/>
</linearGradient>
<linearGradient id="paint49_linear_79_4" x1="107.929" y1="100.247" x2="107.929" y2="119.09" gradientUnits="userSpaceOnUse">
<stop offset="0.375" stop-color="#FF4D00"/>
<stop offset="1" stop-color="#FDD502" stop-opacity="0.84"/>
</linearGradient>
</defs>
</svg>
