<svg width="370" height="370" viewBox="0 0 370 370" fill="none" xmlns="http://www.w3.org/2000/svg">
<path d="M0 28C0 12.536 12.536 0 28 0H342C357.464 0 370 12.536 370 28V342C370 357.464 357.464 370 342 370H28C12.536 370 0 357.464 0 342V28Z" fill="url(#paint0_linear_233_327)"/>
<path d="M234.451 79.6078C234.451 70.8705 219.961 57.2849 209.832 49.027C198.043 39.4159 192.495 32.1347 185.213 30.096C174.811 36.5034 165.771 44.0148 159.555 49.027C133.549 69.9967 139.79 67.6667 135.63 76.6954C123.494 58.3469 141.871 47.2795 154.354 36.5034C163.8 28.3485 176.545 16.4074 185.213 10C193.535 14.9512 204.82 25.3627 212.953 32.1347C233.064 48.8812 248.32 64.7543 234.451 79.6078Z" fill="url(#paint1_linear_233_327)"/>
<path d="M234.451 79.6078C234.451 70.8705 219.961 57.2849 209.832 49.027C198.043 39.4159 192.495 32.1347 185.213 30.096C174.811 36.5034 165.771 44.0148 159.555 49.027C133.549 69.9967 139.79 67.6667 135.63 76.6954C123.494 58.3469 141.871 47.2795 154.354 36.5034C163.8 28.3485 176.545 16.4074 185.213 10C193.535 14.9512 204.82 25.3627 212.953 32.1347C233.064 48.8812 248.32 64.7543 234.451 79.6078Z" fill="url(#paint2_linear_233_327)"/>
<path d="M28.7081 106.12C38.4086 127.976 38.755 157.219 56.4238 170.455C20.7398 176.611 22.4721 121.511 10 96.8857C23.5114 93.4997 100.769 63.6411 104.58 94.731C86.5646 87.0356 47.4162 102.734 28.7081 106.12Z" fill="url(#paint3_linear_233_327)"/>
<path d="M52.5611 185.425C69.5563 197.785 79.2805 217.226 99.3823 217.242C74.9447 232.522 55.5621 201.222 36.6182 185.412C36.6182 185.412 79.9819 135.979 99.3171 153.391C79.6355 154.756 65.3115 177.289 52.5611 185.425Z" fill="url(#paint4_linear_233_327)"/>
<path d="M318.616 185.576C301.811 173.013 292.384 153.457 272.284 153.199C296.952 138.214 315.856 169.744 334.557 185.781C334.557 185.781 290.445 234.688 271.376 217.045C291.077 215.917 305.743 193.558 318.616 185.576Z" fill="url(#paint5_linear_233_327)"/>
<path d="M119.734 287.692C140.101 280.391 163.962 282.158 173.64 266.504C176.975 292.888 136.767 292.947 112.058 300.108C112.058 300.108 84.1119 242.562 110.59 235.865C102.478 251.857 117.832 273.847 119.734 287.692Z" fill="url(#paint6_linear_233_327)"/>
<path d="M252.859 286.161C256.248 266.88 270.192 249.585 260.028 234.176C287.232 245.162 266.671 275.862 260.92 298.382C260.92 298.382 190.985 290.19 198.093 266.559C209.384 280.947 238.506 280.511 252.859 286.161Z" fill="url(#paint7_linear_233_327)"/>
<path d="M120.796 83.2533C117.124 102.493 102.928 119.624 112.864 135.151C85.8236 123.85 106.834 93.3912 112.915 70.9394C112.915 70.9394 182.723 79.9411 175.27 103.488C164.19 88.97 135.065 89.0683 120.796 83.2533Z" fill="url(#paint8_linear_233_327)"/>
<path d="M252.993 83.0389C232.482 90.0169 208.66 87.8726 198.671 103.372C195.865 76.9385 236.067 77.516 260.916 70.7465C260.916 70.7465 287.705 128.726 261.097 135.002C269.528 119.142 254.617 96.9117 252.993 83.0389Z" fill="url(#paint9_linear_233_327)"/>
<path d="M185.995 102.119C172.225 117.322 163.476 115.663 161.397 131.67C150.311 115.663 167.776 110.07 185.411 93.1068C185.411 93.1068 223.411 115.663 210.939 131.67C205.396 115.663 196.042 112.893 185.995 102.119Z" fill="url(#paint10_linear_233_327)"/>
<path d="M185.788 268.954C199.415 253.651 208.18 255.245 210.11 239.223C221.345 255.148 203.932 260.87 186.455 277.961C186.455 277.961 148.247 255.685 160.57 239.587C166.261 255.552 175.641 258.254 185.788 268.954Z" fill="url(#paint11_linear_233_327)"/>
<path d="M103.728 227.594C125.596 230.331 128.469 237.909 145.124 231.25C135.222 248.024 120.817 237.491 95.2511 232.691C95.2511 232.691 97.726 191.861 119.712 193.186C106.967 205.702 109.067 214.318 103.728 227.594Z" fill="url(#paint12_linear_233_327)"/>
<path d="M266.386 227.336C258.945 208.976 265.093 203.202 250.794 193.292C271.947 193.215 268.23 209.376 275.349 231.585C275.349 231.585 233.892 248.67 225.003 230.876C243.271 235.003 250.802 229.35 266.386 227.336Z" fill="url(#paint13_linear_233_327)"/>
<path d="M268.653 143.997C247.082 140.325 244.626 132.682 227.741 138.56C238.45 122.352 252.203 133.431 277.337 139.312C277.337 139.312 272.745 179.71 250.984 177.434C264.293 165.575 262.658 156.935 268.653 143.997Z" fill="url(#paint14_linear_233_327)"/>
<path d="M104.072 143.342C111.709 161.638 105.622 167.464 120.027 177.253C98.8754 177.509 102.419 161.317 95.0629 139.168C95.0629 139.168 136.336 121.735 145.414 139.453C127.104 135.48 119.633 141.197 104.072 143.342Z" fill="url(#paint15_linear_233_327)"/>
<path d="M196.069 62.9606C196.069 71.6717 193.001 84.1703 185.842 87.579C178.172 83.0341 175.103 70.9142 175.103 62.9606C175.103 55.0069 177.66 46.2958 185.842 41.3721C191.978 44.7808 196.069 55.3857 196.069 62.9606Z" fill="url(#paint16_linear_233_327)"/>
<path d="M61.3319 239.839C68.9322 235.902 81.7113 232.739 88.1213 236.805C89.2221 244.426 79.1577 252.834 72.2184 256.429C65.279 260.024 54.9915 261.229 47.807 257.689C46.6765 249.862 54.723 243.263 61.3319 239.839Z" fill="url(#paint17_linear_233_327)"/>
<path d="M198.166 306.098C198.166 314.809 193.103 328.444 186.916 330.717C179.041 327.687 175.103 314.052 175.103 306.098C175.103 298.145 179.603 289.055 186.916 284.51C193.666 289.055 198.166 298.523 198.166 306.098Z" fill="url(#paint18_linear_233_327)"/>
<path d="M301.486 255.109C293.322 250.949 282.832 241.64 283.38 235.659C289.213 232.997 304.213 235.536 311.667 239.334C319.12 243.132 327.302 250.982 326.684 257.722C319.206 260.883 308.585 258.726 301.486 255.109Z" fill="url(#paint19_linear_233_327)"/>
<path d="M317.682 134.228C309.864 138.24 296.085 139.855 289.74 136.571C288.476 129.329 298.556 119.45 305.694 115.787C312.832 112.124 325.616 110.564 331.208 115.289C332.275 121.399 324.48 130.739 317.682 134.228Z" fill="url(#paint20_linear_233_327)"/>
<path d="M74.8695 113.134C82.9893 117.347 92.908 125.824 92.3525 133.355C85.4374 136.473 71.0816 134.024 63.6678 130.177C56.2541 126.331 48.4294 117.655 49.2822 111.007C56.0816 106.984 67.8088 109.471 74.8695 113.134Z" fill="url(#paint21_linear_233_327)"/>
<path d="M88.0758 175.895C93.8994 175.805 102.222 177.64 104.661 182.211C102.136 186.203 93.6547 189.28 88.3375 189.362C83.0203 189.443 75.733 186.834 73.7711 182.685C75.907 178.202 83.0118 175.972 88.0758 175.895Z" fill="url(#paint22_linear_233_327)"/>
<path d="M142.673 103.115C145.725 107.522 148.181 114.823 144.985 119.023C139.823 119.13 132.517 114.215 129.73 110.191C126.943 106.166 125.765 99.2619 128.795 95.6434C134.235 94.9877 140.018 99.2822 142.673 103.115Z" fill="url(#paint23_linear_233_327)"/>
<path d="M129.032 149.137C132.608 150.928 136.764 154.944 136.021 159.112C132.548 161.268 125.907 160.845 122.642 159.21C119.376 157.575 116.225 153.316 117.052 149.612C120.528 146.968 125.922 147.58 129.032 149.137Z" fill="url(#paint24_linear_233_327)"/>
<path d="M243.19 152.415C246.698 150.521 252.575 149.122 256.074 151.402C256.293 154.861 252.482 159.585 249.279 161.315C246.076 163.045 240.489 163.6 237.467 161.451C236.794 157.788 240.14 154.062 243.19 152.415Z" fill="url(#paint25_linear_233_327)"/>
<path d="M122.473 212.013C125.98 210.118 131.941 208.841 135.634 211.407C136.021 215.111 132.335 220.018 129.132 221.747C125.929 223.477 120.227 223.864 117.028 221.456C116.166 217.517 119.422 213.66 122.473 212.013Z" fill="url(#paint26_linear_233_327)"/>
<path d="M190.861 123.452C190.789 127.099 189.107 132.262 185.371 133.676C182.223 131.996 179.959 126.612 180.025 123.283C180.091 119.953 182.37 115.457 185.755 114.332C189.307 115.78 190.924 120.281 190.861 123.452Z" fill="url(#paint27_linear_233_327)"/>
<path d="M145.178 181.71C148.541 181.62 153.361 182.499 154.799 184.831C153.365 186.903 148.485 188.55 145.414 188.633C142.343 188.716 138.116 187.43 136.957 185.312C138.162 182.99 142.253 181.789 145.178 181.71Z" fill="url(#paint28_linear_233_327)"/>
<path d="M168.291 150.522C169.859 153.296 171.129 157.67 169.504 159.797C166.867 159.422 163.125 156 161.693 153.468C160.261 150.936 159.646 146.895 161.186 145.086C163.965 145.171 166.927 148.111 168.291 150.522Z" fill="url(#paint29_linear_233_327)"/>
<path d="M212.085 152.483C210.223 155.106 206.694 158.346 203.878 158.247C202.939 156.083 204.349 151.496 206.049 149.101C207.75 146.705 211.282 144.129 213.756 144.331C215.039 146.45 213.704 150.201 212.085 152.483Z" fill="url(#paint30_linear_233_327)"/>
<path d="M169.835 218.979C168.01 221.548 164.414 224.643 161.327 224.362C160.125 222.084 161.296 217.474 162.962 215.127C164.627 212.781 168.281 210.367 171.003 210.731C172.577 212.984 171.421 216.744 169.835 218.979Z" fill="url(#paint31_linear_233_327)"/>
<path d="M210.5 216.575C212.044 219.305 213.229 223.64 211.479 225.801C208.754 225.49 204.973 222.164 203.564 219.671C202.154 217.179 201.637 213.162 203.291 211.319C206.171 211.338 209.157 214.201 210.5 216.575Z" fill="url(#paint32_linear_233_327)"/>
<path d="M231.241 182.764C234.648 182.673 239.524 183.447 240.971 185.535C239.511 187.399 234.563 188.892 231.453 188.976C228.343 189.059 224.069 187.919 222.903 186.022C224.133 183.935 228.279 182.844 231.241 182.764Z" fill="url(#paint33_linear_233_327)"/>
<path d="M190.379 246.313C190.307 249.96 188.695 255.124 185.124 256.54C182.118 254.863 179.959 249.48 180.025 246.151C180.091 242.821 182.272 238.324 185.508 237.196C188.901 238.642 190.442 243.142 190.379 246.313Z" fill="url(#paint34_linear_233_327)"/>
<path d="M248.338 208.929C251.914 210.72 256.174 214.57 255.677 218.352C252.415 220.175 245.931 219.505 242.666 217.87C239.401 216.234 236.104 212.204 236.709 208.852C239.947 206.582 245.228 207.372 248.338 208.929Z" fill="url(#paint35_linear_233_327)"/>
<path d="M231.139 104.814C234.081 100.348 240.188 94.9939 245.891 95.5393C248.449 99.5488 247.023 107.599 244.337 111.677C241.651 115.755 235.331 119.918 230.286 119.231C227.049 115.259 228.581 108.698 231.139 104.814Z" fill="url(#paint36_linear_233_327)"/>
<path d="M282.308 179.607C288.132 179.517 296.454 181.335 298.893 185.864C296.367 189.82 287.885 192.871 282.568 192.952C277.25 193.034 269.964 190.45 268.002 186.338C270.139 181.895 277.244 179.684 282.308 179.607Z" fill="url(#paint37_linear_233_327)"/>
<path d="M230.079 264.143C227.503 259.501 225.672 252.095 228.936 248.337C233.778 248.794 240.307 254.394 242.658 258.632C245.01 262.87 245.669 269.749 242.599 272.957C237.46 273.007 232.319 268.179 230.079 264.143Z" fill="url(#paint38_linear_233_327)"/>
<path d="M130.555 259.157C133.517 254.701 139.506 249.295 144.873 249.685C147.126 253.554 145.45 261.486 142.745 265.555C140.041 269.623 133.899 273.867 129.16 273.321C126.263 269.507 127.979 263.032 130.555 259.157Z" fill="url(#paint39_linear_233_327)"/>
<path d="M29.7474 265.572C52.6129 271.728 89.3362 282.194 103.54 277.577C103.54 304.665 38.755 283.733 10 274.498C19.7005 260.031 22.1256 193.541 55.038 202.16C48.1091 208.625 32.519 245.255 29.7474 265.572Z" fill="url(#paint40_linear_233_327)"/>
<path d="M360 102.32C356.138 119.73 360 170.995 320.414 170.995C334.577 168.304 338.276 141.01 343.586 111.025C322.828 98.787 295.545 87.89 269.241 92.1638C282.759 69.9171 328.621 88.2948 360 102.32Z" fill="url(#paint41_linear_233_327)"/>
<path d="M219.947 161.528C225.946 156.911 222.372 142.751 217.868 136.287C204.357 136.287 191.884 141.488 191.884 146.137C189.459 133.209 205.742 131.978 222.372 128.899C231.379 143.367 231.379 161.528 219.947 161.528Z" fill="url(#paint42_linear_233_327)"/>
<path d="M191.535 223.48C193.333 230.349 209.096 234.147 217.632 233.623C223.936 223.005 224.578 210.777 219.949 208.607C233.951 212.733 227.579 226.104 222.885 240.609C204.281 240.938 186.201 232.465 191.535 223.48Z" fill="url(#paint43_linear_233_327)"/>
<path d="M152.633 208.754C146.66 213.399 150.316 227.542 154.858 233.986C168.369 233.924 180.81 228.666 180.784 224.017C183.284 236.934 167.008 238.24 150.397 241.394C141.305 226.968 141.2 208.807 152.633 208.754Z" fill="url(#paint44_linear_233_327)"/>
<path d="M144.814 170.981C137.207 168.97 125.693 179.262 121.981 186.112C129.246 196.233 140.888 202.779 145.3 200.279C134.337 209.048 124.412 197.513 112.549 186.711C121.433 172.183 138.666 162.417 144.814 170.981Z" fill="url(#paint45_linear_233_327)"/>
<path d="M226.051 199.652C233.505 202.075 245.708 192.431 249.887 185.796C243.334 175.297 232.166 168.128 227.59 170.383C239.139 162.229 248.248 174.284 259.342 185.713C249.471 199.728 231.595 208.536 226.051 199.652Z" fill="url(#paint46_linear_233_327)"/>
<path d="M180.16 146.384C178.141 139.564 162.261 136.172 153.745 136.913C147.788 147.689 147.544 159.928 152.24 161.978C138.111 158.212 144.046 144.684 148.268 130.065C166.854 129.259 185.201 137.266 180.16 146.384Z" fill="url(#paint47_linear_233_327)"/>
<ellipse cx="187.683" cy="185.131" rx="23.5862" ry="23.6285" fill="url(#paint48_linear_233_327)"/>
<path d="M235.397 295.294C235.397 303.416 220.857 316.045 210.692 323.721C198.861 332.656 193.293 339.424 185.986 341.319C172.933 333.768 168.089 328.818 160.236 323.721C143.381 312.782 139.805 303.687 135.63 295.294C123.451 312.35 141.997 327.685 154.524 337.703C164.003 345.283 177.287 354.044 185.986 360C194.337 355.397 205.662 345.719 213.823 339.424C234.005 323.857 249.316 309.102 235.397 295.294Z" fill="url(#paint49_linear_233_327)"/>
<path d="M235.397 295.294C235.397 303.416 220.857 316.045 210.692 323.721C198.861 332.656 193.293 339.424 185.986 341.319C172.933 333.768 168.089 328.818 160.236 323.721C143.381 312.782 139.805 303.687 135.63 295.294C123.451 312.35 141.997 327.685 154.524 337.703C164.003 345.283 177.287 354.044 185.986 360C194.337 355.397 205.662 345.719 213.823 339.424C234.005 323.857 249.316 309.102 235.397 295.294Z" fill="url(#paint50_linear_233_327)"/>
<path d="M336.91 264.319C319.931 274.087 293.108 278.769 270.046 277.693C283.241 299.639 339.723 284.434 357.775 274.087C355.564 258.281 342.138 215.488 308.828 209.684C318.966 221.775 339.241 240.636 336.91 264.319Z" fill="url(#paint51_linear_233_327)"/>
<defs>
<linearGradient id="paint0_linear_233_327" x1="0" y1="0" x2="370" y2="370" gradientUnits="userSpaceOnUse">
<stop stop-color="#FF4D00"/>
<stop offset="1" stop-color="#FDD502"/>
</linearGradient>
<linearGradient id="paint1_linear_233_327" x1="185.724" y1="10" x2="185.724" y2="79.6078" gradientUnits="userSpaceOnUse">
<stop offset="0.375" stop-color="white"/>
<stop offset="1" stop-color="white"/>
</linearGradient>
<linearGradient id="paint2_linear_233_327" x1="185.724" y1="10" x2="185.724" y2="79.6078" gradientUnits="userSpaceOnUse">
<stop offset="0.375" stop-color="white"/>
<stop offset="1" stop-color="white"/>
</linearGradient>
<linearGradient id="paint3_linear_233_327" x1="57.2899" y1="80.7188" x2="57.2899" y2="170.931" gradientUnits="userSpaceOnUse">
<stop offset="0.375" stop-color="white"/>
<stop offset="1" stop-color="white"/>
</linearGradient>
<linearGradient id="paint4_linear_233_327" x1="62.5073" y1="158.299" x2="87.4223" y2="222.468" gradientUnits="userSpaceOnUse">
<stop offset="0.375" stop-color="white"/>
<stop offset="1" stop-color="white"/>
</linearGradient>
<linearGradient id="paint5_linear_233_327" x1="308.258" y1="212.58" x2="284.168" y2="148.176" gradientUnits="userSpaceOnUse">
<stop offset="0.375" stop-color="white"/>
<stop offset="1" stop-color="white"/>
</linearGradient>
<linearGradient id="paint6_linear_233_327" x1="97.7422" y1="266.905" x2="173.431" y2="274.54" gradientUnits="userSpaceOnUse">
<stop offset="0.375" stop-color="white"/>
<stop offset="1" stop-color="white"/>
</linearGradient>
<linearGradient id="paint7_linear_233_327" x1="221.496" y1="292.276" x2="259.576" y2="233.226" gradientUnits="userSpaceOnUse">
<stop offset="0.375" stop-color="white"/>
<stop offset="1" stop-color="white"/>
</linearGradient>
<linearGradient id="paint8_linear_233_327" x1="152.246" y1="77.5018" x2="113.375" y2="136.154" gradientUnits="userSpaceOnUse">
<stop offset="0.375" stop-color="white"/>
<stop offset="1" stop-color="white"/>
</linearGradient>
<linearGradient id="paint9_linear_233_327" x1="274.564" y1="104.171" x2="199.078" y2="95.0292" gradientUnits="userSpaceOnUse">
<stop offset="0.375" stop-color="white"/>
<stop offset="1" stop-color="white"/>
</linearGradient>
<linearGradient id="paint10_linear_233_327" x1="207.202" y1="108.804" x2="161.227" y2="131.93" gradientUnits="userSpaceOnUse">
<stop offset="0.375" stop-color="white"/>
<stop offset="1" stop-color="white"/>
</linearGradient>
<linearGradient id="paint11_linear_233_327" x1="164.519" y1="262.425" x2="210.251" y2="238.909" gradientUnits="userSpaceOnUse">
<stop offset="0.375" stop-color="white"/>
<stop offset="1" stop-color="white"/>
</linearGradient>
<linearGradient id="paint12_linear_233_327" x1="99.3604" y1="207.852" x2="139.046" y2="239.337" gradientUnits="userSpaceOnUse">
<stop offset="0.375" stop-color="white"/>
<stop offset="1" stop-color="white"/>
</linearGradient>
<linearGradient id="paint13_linear_233_327" x1="248.922" y1="239.944" x2="254.208" y2="193.434" gradientUnits="userSpaceOnUse">
<stop offset="0.375" stop-color="white"/>
<stop offset="1" stop-color="white"/>
</linearGradient>
<linearGradient id="paint14_linear_233_327" x1="271.958" y1="163.774" x2="234.277" y2="130.713" gradientUnits="userSpaceOnUse">
<stop offset="0.375" stop-color="white"/>
<stop offset="1" stop-color="white"/>
</linearGradient>
<linearGradient id="paint15_linear_233_327" x1="121.4" y1="130.587" x2="116.509" y2="177.129" gradientUnits="userSpaceOnUse">
<stop offset="0.375" stop-color="white"/>
<stop offset="1" stop-color="white"/>
</linearGradient>
<linearGradient id="paint16_linear_233_327" x1="185.586" y1="41.3721" x2="185.586" y2="87.579" gradientUnits="userSpaceOnUse">
<stop offset="0.375" stop-color="white"/>
<stop offset="1" stop-color="white"/>
</linearGradient>
<linearGradient id="paint17_linear_233_327" x1="47.9398" y1="257.891" x2="85.6993" y2="233.114" gradientUnits="userSpaceOnUse">
<stop offset="0.375" stop-color="white"/>
<stop offset="1" stop-color="white"/>
</linearGradient>
<linearGradient id="paint18_linear_233_327" x1="186.634" y1="284.51" x2="186.634" y2="330.717" gradientUnits="userSpaceOnUse">
<stop offset="0.375" stop-color="white"/>
<stop offset="1" stop-color="white"/>
</linearGradient>
<linearGradient id="paint19_linear_233_327" x1="326.808" y1="257.53" x2="286.185" y2="231.312" gradientUnits="userSpaceOnUse">
<stop offset="0.375" stop-color="white"/>
<stop offset="1" stop-color="white"/>
</linearGradient>
<linearGradient id="paint20_linear_233_327" x1="331.062" y1="115.064" x2="292.188" y2="140.336" gradientUnits="userSpaceOnUse">
<stop offset="0.375" stop-color="white"/>
<stop offset="1" stop-color="white"/>
</linearGradient>
<linearGradient id="paint21_linear_233_327" x1="49.1456" y1="111.215" x2="89.4803" y2="137.725" gradientUnits="userSpaceOnUse">
<stop offset="0.375" stop-color="white"/>
<stop offset="1" stop-color="white"/>
</linearGradient>
<linearGradient id="paint22_linear_233_327" x1="73.7743" y1="182.85" x2="104.662" y2="182.249" gradientUnits="userSpaceOnUse">
<stop offset="0.375" stop-color="white"/>
<stop offset="1" stop-color="white"/>
</linearGradient>
<linearGradient id="paint23_linear_233_327" x1="128.637" y1="95.7297" x2="142.203" y2="120.544" gradientUnits="userSpaceOnUse">
<stop offset="0.375" stop-color="white"/>
<stop offset="1" stop-color="white"/>
</linearGradient>
<linearGradient id="paint24_linear_233_327" x1="116.974" y1="149.735" x2="134.796" y2="161.042" gradientUnits="userSpaceOnUse">
<stop offset="0.375" stop-color="white"/>
<stop offset="1" stop-color="white"/>
</linearGradient>
<linearGradient id="paint25_linear_233_327" x1="237.541" y1="161.56" x2="254.899" y2="149.685" gradientUnits="userSpaceOnUse">
<stop offset="0.375" stop-color="white"/>
<stop offset="1" stop-color="white"/>
</linearGradient>
<linearGradient id="paint26_linear_233_327" x1="117.109" y1="221.575" x2="134.467" y2="209.701" gradientUnits="userSpaceOnUse">
<stop offset="0.375" stop-color="white"/>
<stop offset="1" stop-color="white"/>
</linearGradient>
<linearGradient id="paint27_linear_233_327" x1="185.623" y1="114.33" x2="185.319" y2="133.675" gradientUnits="userSpaceOnUse">
<stop offset="0.375" stop-color="white"/>
<stop offset="1" stop-color="white"/>
</linearGradient>
<linearGradient id="paint28_linear_233_327" x1="136.96" y1="185.396" x2="154.798" y2="184.787" gradientUnits="userSpaceOnUse">
<stop offset="0.375" stop-color="white"/>
<stop offset="1" stop-color="white"/>
</linearGradient>
<linearGradient id="paint29_linear_233_327" x1="161.106" y1="145.122" x2="167.963" y2="160.484" gradientUnits="userSpaceOnUse">
<stop offset="0.375" stop-color="white"/>
<stop offset="1" stop-color="white"/>
</linearGradient>
<linearGradient id="paint30_linear_233_327" x1="213.682" y1="144.29" x2="205.387" y2="159.093" gradientUnits="userSpaceOnUse">
<stop offset="0.375" stop-color="white"/>
<stop offset="1" stop-color="white"/>
</linearGradient>
<linearGradient id="paint31_linear_233_327" x1="170.919" y1="210.684" x2="162.794" y2="225.184" gradientUnits="userSpaceOnUse">
<stop offset="0.375" stop-color="white"/>
<stop offset="1" stop-color="white"/>
</linearGradient>
<linearGradient id="paint32_linear_233_327" x1="203.206" y1="211.357" x2="209.957" y2="226.481" gradientUnits="userSpaceOnUse">
<stop offset="0.375" stop-color="white"/>
<stop offset="1" stop-color="white"/>
</linearGradient>
<linearGradient id="paint33_linear_233_327" x1="222.906" y1="186.097" x2="240.969" y2="185.481" gradientUnits="userSpaceOnUse">
<stop offset="0.375" stop-color="white"/>
<stop offset="1" stop-color="white"/>
</linearGradient>
<linearGradient id="paint34_linear_233_327" x1="185.382" y1="237.194" x2="185.079" y2="256.539" gradientUnits="userSpaceOnUse">
<stop offset="0.375" stop-color="white"/>
<stop offset="1" stop-color="white"/>
</linearGradient>
<linearGradient id="paint35_linear_233_327" x1="236.64" y1="208.961" x2="254.462" y2="220.267" gradientUnits="userSpaceOnUse">
<stop offset="0.375" stop-color="white"/>
<stop offset="1" stop-color="white"/>
</linearGradient>
<linearGradient id="paint36_linear_233_327" x1="230.447" y1="119.315" x2="243.466" y2="94.2782" gradientUnits="userSpaceOnUse">
<stop offset="0.375" stop-color="white"/>
<stop offset="1" stop-color="white"/>
</linearGradient>
<linearGradient id="paint37_linear_233_327" x1="268.006" y1="186.501" x2="298.893" y2="185.901" gradientUnits="userSpaceOnUse">
<stop offset="0.375" stop-color="white"/>
<stop offset="1" stop-color="white"/>
</linearGradient>
<linearGradient id="paint38_linear_233_327" x1="242.752" y1="272.89" x2="231.503" y2="247.212" gradientUnits="userSpaceOnUse">
<stop offset="0.375" stop-color="white"/>
<stop offset="1" stop-color="white"/>
</linearGradient>
<linearGradient id="paint39_linear_233_327" x1="129.309" y1="273.399" x2="142.427" y2="248.402" gradientUnits="userSpaceOnUse">
<stop offset="0.375" stop-color="white"/>
<stop offset="1" stop-color="white"/>
</linearGradient>
<linearGradient id="paint40_linear_233_327" x1="56.7702" y1="201.393" x2="56.7702" y2="290.95" gradientUnits="userSpaceOnUse">
<stop offset="0.375" stop-color="white"/>
<stop offset="1" stop-color="white"/>
</linearGradient>
<linearGradient id="paint41_linear_233_327" x1="321.862" y1="80.5568" x2="321.862" y2="169.544" gradientUnits="userSpaceOnUse">
<stop offset="0.375" stop-color="white"/>
<stop offset="1" stop-color="white"/>
</linearGradient>
<linearGradient id="paint42_linear_233_327" x1="210.247" y1="128.899" x2="210.247" y2="161.528" gradientUnits="userSpaceOnUse">
<stop offset="0.375" stop-color="white"/>
<stop offset="1" stop-color="white"/>
</linearGradient>
<linearGradient id="paint43_linear_233_327" x1="228.542" y1="231.081" x2="197.843" y2="212.856" gradientUnits="userSpaceOnUse">
<stop offset="0.375" stop-color="white"/>
<stop offset="1" stop-color="white"/>
</linearGradient>
<linearGradient id="paint44_linear_233_327" x1="162.521" y1="241.339" x2="162.371" y2="208.71" gradientUnits="userSpaceOnUse">
<stop offset="0.375" stop-color="white"/>
<stop offset="1" stop-color="white"/>
</linearGradient>
<linearGradient id="paint45_linear_233_327" x1="119.068" y1="195.793" x2="147.813" y2="175.159" gradientUnits="userSpaceOnUse">
<stop offset="0.375" stop-color="white"/>
<stop offset="1" stop-color="white"/>
</linearGradient>
<linearGradient id="paint46_linear_233_327" x1="253.462" y1="176.292" x2="223.242" y2="195.153" gradientUnits="userSpaceOnUse">
<stop offset="0.375" stop-color="white"/>
<stop offset="1" stop-color="white"/>
</linearGradient>
<linearGradient id="paint47_linear_233_327" x1="142.923" y1="139.734" x2="174.26" y2="157.058" gradientUnits="userSpaceOnUse">
<stop offset="0.375" stop-color="white"/>
<stop offset="1" stop-color="white"/>
</linearGradient>
<linearGradient id="paint48_linear_233_327" x1="187.683" y1="161.502" x2="187.683" y2="208.759" gradientUnits="userSpaceOnUse">
<stop offset="0.375" stop-color="white"/>
<stop offset="1" stop-color="white"/>
</linearGradient>
<linearGradient id="paint49_linear_233_327" x1="186.498" y1="360" x2="186.498" y2="295.294" gradientUnits="userSpaceOnUse">
<stop offset="0.375" stop-color="white"/>
<stop offset="1" stop-color="white"/>
</linearGradient>
<linearGradient id="paint50_linear_233_327" x1="186.498" y1="360" x2="186.498" y2="295.294" gradientUnits="userSpaceOnUse">
<stop offset="0.375" stop-color="white"/>
<stop offset="1" stop-color="white"/>
</linearGradient>
<linearGradient id="paint51_linear_233_327" x1="308.739" y1="202.516" x2="306.271" y2="292.436" gradientUnits="userSpaceOnUse">
<stop offset="0.375" stop-color="white"/>
<stop offset="1" stop-color="white"/>
</linearGradient>
</defs>
</svg>
