<svg width="370" height="370" viewBox="0 0 370 370" fill="none" xmlns="http://www.w3.org/2000/svg">
<path fill-rule="evenodd" clip-rule="evenodd" d="M28 0C12.536 0 0 12.5361 0 28V342C0 357.464 12.536 370 28 370H342C357.464 370 370 357.464 370 342V28C370 12.5361 357.464 0 342 0H28ZM212.638 48.4307C222.618 56.4268 235.5 66.749 235.5 74.5C242.5 61.5 233.064 48.8809 212.953 32.1348C210.994 30.5029 208.852 28.6611 206.612 26.7344L206.596 26.7197L206.574 26.7021C199.527 20.6396 191.519 13.752 185.214 10C179.218 14.4316 171.273 21.5098 163.818 28.1514L161.083 30.5869C160.28 31.3008 159.487 32.0049 158.706 32.6943C157.899 33.4082 157.105 34.1074 156.328 34.7861C155.656 35.374 154.997 35.9473 154.354 36.5029C153.086 37.5967 151.825 38.6543 150.588 39.6924C139.634 48.8779 130.508 56.5303 135 74.5C135.738 72.8984 136.169 71.7236 136.523 70.7568C136.787 70.0352 137.009 69.4297 137.285 68.8496C138.719 65.8281 141.609 63.498 159.555 49.0273L161.256 47.6514C167.369 42.7041 175.725 35.9404 185.214 30.0957C192.495 32.1348 197.211 35.8887 209 45.5C209.591 45.9814 210.202 46.4756 210.831 46.9814L212.638 48.4307ZM28.7081 106.12C31.9788 113.489 34.1379 121.248 36.2405 128.804C40.3398 143.536 44.2241 157.495 55.7123 166.282C69.3877 154.48 87.2222 143.295 98 153C84.9799 153.903 74.8807 164.241 65.8446 173.491C61.2214 178.224 56.8766 182.671 52.561 185.425C57.9423 189.339 62.4559 193.737 66.75 197.922C76.0178 206.954 84.2629 214.989 98 215C78.9009 226.942 63.7338 211.802 48.9751 197.07C44.8499 192.952 40.7565 188.866 36.6182 185.412C36.6182 185.412 44.6641 175.878 55.3351 166.608C30.5428 170.44 24.3457 146.128 18.4315 122.924C15.9983 113.377 13.6129 104.019 10 96.8857C11.4979 96.5107 13.7269 95.8818 16.5153 95.0947C38.8779 88.7861 97.2206 72.3271 103 95C89.9705 89.4346 66.7129 95.9648 47.76 101.287L47.752 101.29C40.5028 103.325 33.8838 105.183 28.7081 106.12ZM318.616 185.576C312.684 181.142 308.01 175.748 303.56 170.614C295.405 161.205 288.005 152.667 275 152.5C293.475 141.277 307.193 156.538 320.774 171.645C325.326 176.708 329.862 181.754 334.557 185.78C334.557 185.78 291.568 234.643 272.5 217C285.607 216.249 295.988 206.12 305.26 197.074C309.924 192.523 314.308 188.247 318.616 185.576ZM140.945 282.825C134.05 283.965 126.781 285.166 119.734 287.692C119.097 283.059 116.888 277.584 114.534 271.751C109.854 260.154 104.603 247.14 110 236.5C87.5 246 112.058 300.108 112.058 300.108C117.598 298.503 123.567 297.261 129.516 296.022L129.525 296.02L129.536 296.017C150.113 291.733 170.449 287.501 172 268.5C165.671 278.738 153.977 280.672 140.945 282.825ZM252.859 286.16C254.04 279.443 256.61 273.37 259.028 267.656C263.551 256.971 267.542 247.541 260.92 237.5C279.011 248.241 272.728 265.081 266.225 282.509C264.252 287.797 262.258 293.14 260.92 298.382C260.92 298.382 196.5 292 198.5 268C205.95 277.492 220.983 279.905 234.472 282.07H234.481C241.435 283.188 247.977 284.239 252.859 286.16ZM114.763 101.221C117.078 95.6943 119.545 89.8076 120.796 83.2529C125.688 85.2471 132.119 86.3125 138.904 87.4365C151.909 89.5898 166.219 91.96 173.5 101.5C168.5 77 112.916 70.9395 112.916 70.9395C111.461 76.3096 109.155 81.9297 106.858 87.5264C99.5537 105.329 92.343 122.903 112.916 131.5C106.364 121.263 110.281 111.916 114.763 101.221ZM252.993 83.0391C245.989 85.4219 238.638 86.5811 231.595 87.6914C218.013 89.833 205.578 91.793 199 102C196.868 81.915 219.377 78.2168 241.212 74.6289C248.114 73.4951 254.948 72.3721 260.916 70.7461C260.916 70.7461 288.608 127.724 262 134C267.581 123.5 262.537 110.647 258.019 99.1348C255.712 93.2568 253.542 87.7275 252.993 83.0391ZM172.582 113.672C176.258 111.077 180.755 107.903 185.995 102.119C189.332 105.697 192.599 108.264 195.677 110.682C201.869 115.545 207.298 119.81 211 130.5C223.472 114.493 185.411 93.1064 185.411 93.1064C181.168 97.1885 177.148 100.544 173.595 103.509L173.578 103.523C162.372 112.876 155.807 118.355 161.5 130.5C162.788 120.584 166.596 117.896 172.582 113.672ZM185.742 269.317C190.715 263.732 195.041 260.398 198.623 257.638C204.857 252.832 208.839 249.762 210.065 239.587C218.465 251.494 210.849 257.697 199.166 267.214C195.224 270.425 190.819 274.013 186.409 278.324C186.409 278.324 148.202 256.048 160.525 239.95C164.447 250.952 170.12 255.655 176.589 261.019C179.508 263.438 182.588 265.991 185.742 269.317ZM121.673 231.598C117.159 230.236 111.708 228.593 103.728 227.594C105.372 223.507 106.29 219.986 107.146 216.705C109.07 209.327 110.679 203.163 119.5 194.5C97.5144 193.175 95.2511 232.69 95.2511 232.69C101.69 233.899 107.421 235.472 112.551 236.879L112.567 236.885L112.577 236.888C127.799 241.067 137.72 243.792 145.124 231.25C134.547 235.479 129.528 233.966 121.673 231.598ZM266.386 227.337C263.485 220.181 262.909 215.044 262.438 210.853C261.702 204.291 261.226 200.048 252.5 194C267.758 193.944 269.188 201.969 271.473 214.781C272.355 219.731 273.365 225.396 275.349 231.586C275.349 231.586 235.889 249.38 227 231.585C239.088 234.316 245.601 232.454 253.139 230.298C256.993 229.196 261.114 228.018 266.386 227.337ZM251.045 139.24C255.455 140.788 260.781 142.657 268.653 143.997C266.739 148.127 265.656 151.774 264.634 155.213C262.456 162.546 260.56 168.927 251.5 177C273.261 179.277 277.337 139.312 277.337 139.312C270.996 137.828 265.379 136.014 260.353 134.39C245.457 129.577 235.748 126.44 227.741 138.56C238.464 134.826 243.368 136.547 251.045 139.24ZM103.696 142.366C106.483 149.043 107.443 154.059 108.237 158.212C109.62 165.441 110.503 170.061 119.651 176.277C103.837 176.469 101.828 167.464 98.7458 153.65C97.7058 148.989 96.5437 143.78 94.6876 138.192C94.6876 138.192 135.96 120.759 145.039 138.478C132.421 135.739 124.95 137.604 116.432 139.729C112.589 140.688 108.534 141.699 103.696 142.366ZM185.842 87.5791C193.001 84.1709 196.069 71.6719 196.069 62.9609C196.069 55.3857 191.978 44.7812 185.842 41.3721C177.66 46.2959 175.104 55.0078 175.104 62.9609C175.104 70.915 178.172 83.0342 185.842 87.5791ZM61.3319 239.839C68.9321 235.901 81.7113 232.739 88.1213 236.805C89.222 244.426 79.1577 252.834 72.2184 256.429C65.2791 260.023 54.9916 261.229 47.807 257.688C46.6765 249.861 54.723 243.263 61.3319 239.839ZM186.916 330.717C193.103 328.444 198.166 314.81 198.166 306.099C198.166 298.523 193.666 289.055 186.916 284.51C179.603 289.055 175.104 298.145 175.104 306.099C175.104 314.052 179.041 327.687 186.916 330.717ZM301.486 255.108C293.322 250.949 282.832 241.641 283.38 235.658C289.213 232.997 304.213 235.536 311.667 239.334C319.12 243.132 327.302 250.982 326.684 257.722C319.206 260.884 308.585 258.726 301.486 255.108ZM289.74 136.57C296.085 139.854 309.864 138.24 317.682 134.228C324.48 130.739 332.275 121.398 331.208 115.289C325.616 110.563 312.832 112.123 305.694 115.786C298.556 119.45 288.476 129.328 289.74 136.57ZM74.8695 113.134C82.9893 117.348 92.9081 125.823 92.3525 133.354C85.4374 136.473 71.0815 134.024 63.6678 130.178C56.254 126.331 48.4294 117.654 49.2822 111.007C56.0815 106.983 67.8087 109.471 74.8695 113.134ZM104.661 182.212C102.222 177.641 93.8994 175.806 88.0758 175.896C83.0118 175.973 75.907 178.202 73.7711 182.686C75.733 186.835 83.0204 189.443 88.3375 189.362C93.6548 189.28 102.136 186.203 104.661 182.212ZM142.672 103.114C145.725 107.522 148.181 114.823 144.985 119.022C139.823 119.129 132.517 114.215 129.73 110.19C126.943 106.166 125.765 99.2617 128.795 95.6426C134.235 94.9873 140.018 99.2822 142.672 103.114ZM136.021 159.112C136.764 154.944 132.608 150.929 129.032 149.138C125.922 147.58 120.528 146.969 117.052 149.612C116.225 153.315 119.376 157.575 122.641 159.21C125.906 160.846 132.548 161.269 136.021 159.112ZM243.19 152.415C246.698 150.521 252.575 149.122 256.074 151.402C256.293 154.86 252.482 159.585 249.279 161.314C246.076 163.044 240.489 163.601 237.467 161.451C236.794 157.788 240.14 154.062 243.19 152.415ZM135.635 211.407C131.941 208.842 125.98 210.118 122.473 212.013C119.422 213.66 116.166 217.517 117.028 221.456C120.227 223.864 125.929 223.477 129.132 221.747C132.335 220.018 136.021 215.11 135.635 211.407ZM190.861 123.452C190.789 127.099 189.107 132.262 185.371 133.675C182.223 131.996 179.959 126.612 180.025 123.282C180.091 119.952 182.37 115.457 185.755 114.332C189.307 115.779 190.924 120.281 190.861 123.452ZM154.799 184.831C153.361 182.5 148.541 181.62 145.178 181.711C142.253 181.79 138.162 182.991 136.957 185.312C138.116 187.431 142.343 188.716 145.414 188.633C148.485 188.551 153.365 186.903 154.799 184.831ZM168.291 150.522C169.859 153.295 171.129 157.669 169.504 159.796C166.867 159.421 163.125 155.999 161.693 153.467C160.261 150.936 159.646 146.896 161.186 145.086C163.965 145.171 166.927 148.11 168.291 150.522ZM203.878 158.248C206.694 158.346 210.223 155.106 212.085 152.483C213.704 150.202 215.039 146.45 213.756 144.331C211.282 144.129 207.75 146.705 206.049 149.101C204.349 151.496 202.939 156.083 203.878 158.248ZM169.835 218.979C168.01 221.549 164.414 224.643 161.327 224.362C160.125 222.084 161.296 217.474 162.962 215.128C164.627 212.781 168.281 210.366 171.003 210.731C172.577 212.984 171.421 216.744 169.835 218.979ZM211.479 225.801C213.229 223.64 212.044 219.306 210.5 216.575C209.157 214.201 206.171 211.338 203.291 211.319C201.637 213.161 202.154 217.179 203.564 219.671C204.973 222.164 208.754 225.489 211.479 225.801ZM231.241 182.765C234.648 182.673 239.524 183.447 240.971 185.535C239.511 187.398 234.563 188.892 231.453 188.976C228.343 189.06 224.069 187.919 222.903 186.021C224.133 183.935 228.28 182.844 231.241 182.765ZM185.124 256.54C188.695 255.124 190.307 249.96 190.379 246.312C190.442 243.142 188.901 238.642 185.508 237.196C182.272 238.323 180.091 242.821 180.025 246.15C179.959 249.48 182.118 254.862 185.124 256.54ZM248.338 208.929C251.914 210.72 256.174 214.57 255.677 218.352C252.415 220.175 245.931 219.505 242.666 217.87C239.401 216.234 236.104 212.204 236.709 208.852C239.947 206.582 245.228 207.372 248.338 208.929ZM245.891 95.5391C240.188 94.9941 234.081 100.348 231.139 104.814C228.581 108.698 227.049 115.259 230.286 119.23C235.331 119.917 241.651 115.755 244.337 111.677C247.023 107.599 248.449 99.5488 245.891 95.5391ZM282.308 179.607C288.132 179.518 296.454 181.335 298.893 185.864C296.367 189.82 287.885 192.871 282.568 192.953C277.25 193.034 269.964 190.45 268.002 186.339C270.139 181.896 277.244 179.685 282.308 179.607ZM228.936 248.337C225.672 252.096 227.503 259.501 230.079 264.143C232.319 268.179 237.46 273.007 242.599 272.957C245.669 269.749 245.01 262.87 242.658 258.632C240.307 254.394 233.778 248.794 228.936 248.337ZM130.555 259.157C133.517 254.701 139.506 249.295 144.873 249.686C147.126 253.554 145.45 261.486 142.745 265.555C140.041 269.623 133.899 273.866 129.161 273.321C126.263 269.507 127.979 263.032 130.555 259.157ZM33.9028 269.302L33.6545 269.234C32.314 268.872 31.0096 268.519 29.7474 268.179C32.519 247.862 48.1091 211.232 55.038 204.768C31.7584 198.671 23.7317 230.151 17.5945 254.221C15.0551 264.181 12.8391 272.871 10 277.105L10.3922 277.231C39.3392 286.529 103.541 307.15 103.541 280.184C90.1758 284.527 56.8757 275.52 33.9402 269.313L33.9288 269.311L33.9193 269.308L33.9105 269.305L33.9028 269.302ZM360.759 101.528C360.037 104.779 359.586 109.211 359.07 114.269C356.824 136.296 353.367 170.203 321.172 170.203C334.318 167.706 338.449 144.015 343.22 116.649C343.59 114.53 343.963 112.389 344.345 110.233C323.586 97.9951 296.303 87.0977 270 91.3721C283.517 69.125 329.379 87.5029 360.759 101.528ZM217.868 136.287C222.372 142.751 225.946 156.911 219.947 161.528C231.379 161.528 231.379 143.367 222.372 128.899C220.596 129.229 218.825 129.536 217.079 129.839C202.479 132.374 189.718 134.59 191.885 146.138C191.885 141.488 204.357 136.287 217.868 136.287ZM191.535 223.48C193.333 230.349 209.096 234.146 217.632 233.623C223.936 223.005 224.578 210.776 219.949 208.607C232.456 212.293 228.708 223.354 224.419 236.012C223.907 237.524 223.386 239.061 222.885 240.609C204.281 240.938 186.201 232.465 191.535 223.48ZM154.858 233.986C150.316 227.542 146.66 213.399 152.633 208.754C141.2 208.807 141.305 226.968 150.397 241.395C152.17 241.058 153.939 240.742 155.682 240.432C170.269 237.829 183.017 235.555 180.784 224.017C180.811 228.666 168.369 233.924 154.858 233.986ZM144.814 170.981C137.207 168.97 125.693 179.262 121.981 186.112C129.246 196.233 140.888 202.779 145.3 200.279C135.507 208.111 126.543 199.744 116.286 190.171L116.254 190.142L116.208 190.098L116.16 190.054L116.056 189.957C114.904 188.882 113.736 187.793 112.548 186.711C121.433 172.184 138.666 162.417 144.814 170.981ZM249.887 185.796C245.708 192.431 233.505 202.075 226.051 199.652C231.595 208.536 249.471 199.729 259.342 185.713C258.157 184.492 256.995 183.265 255.85 182.056C246.274 171.94 237.906 163.1 227.59 170.383C232.166 168.129 243.334 175.297 249.887 185.796ZM180.16 146.384C178.141 139.564 162.261 136.172 153.745 136.913C147.788 147.688 147.544 159.929 152.24 161.979C139.62 158.614 143.007 147.461 146.883 134.7C147.09 134.021 147.298 133.336 147.505 132.647C147.762 131.791 148.018 130.93 148.268 130.064C166.854 129.26 185.201 137.267 180.16 146.384ZM187.683 208.759C200.709 208.759 211.269 198.18 211.269 185.13C211.269 172.081 200.709 161.502 187.683 161.502C174.656 161.502 164.097 172.081 164.097 185.13C164.097 198.18 174.656 208.759 187.683 208.759ZM235.397 295.294C235.397 303.416 220.857 316.045 210.692 323.722C206.843 326.627 203.657 329.307 200.858 331.659L200.784 331.722L200.767 331.736C195.011 336.58 190.89 340.047 185.986 341.319C177.799 336.582 172.841 332.869 168.344 329.501C165.672 327.5 163.163 325.621 160.236 323.722C144.576 313.558 140.379 304.985 136.513 297.09C136.218 296.487 135.925 295.889 135.63 295.294C123.451 312.351 141.997 327.686 154.524 337.703C162.306 343.926 172.652 350.944 180.92 356.554C182.724 357.777 184.428 358.934 185.986 360C192.318 356.51 200.361 350.102 207.437 344.463L207.449 344.454C208.689 343.466 209.899 342.501 211.064 341.58C212.016 340.829 212.938 340.106 213.823 339.424C234.005 323.856 249.316 309.102 235.397 295.294ZM270.046 277.693C293.108 278.77 319.931 274.087 336.91 264.318C338.929 243.805 323.986 226.908 313.362 214.896C311.722 213.041 310.184 211.302 308.828 209.685C342.138 215.488 355.564 258.281 357.775 274.087C339.724 284.435 283.241 299.639 270.046 277.693Z" fill="url(#paint0_linear_237_158)"/>
<defs>
<linearGradient id="paint0_linear_237_158" x1="0" y1="0" x2="370" y2="370" gradientUnits="userSpaceOnUse">
<stop stop-color="#FF4D00"/>
<stop offset="1" stop-color="#FDD502"/>
</linearGradient>
</defs>
</svg>
