<svg width="386" height="380" viewBox="0 0 386 380" fill="none" xmlns="http://www.w3.org/2000/svg">
<path d="M319.143 78.5275L327.5 6L335.857 78.5275L386 87.5934L335.857 98.4725L327.5 171L319.143 98.4725L269 87.5934L319.143 78.5275Z" fill="url(#paint0_linear_217_28)"/>
<circle cx="303.5" cy="113.5" r="7.5" fill="url(#paint1_linear_217_28)"/>
<circle cx="352.5" cy="63.5" r="7.5" fill="url(#paint2_linear_217_28)"/>
<circle cx="352.5" cy="113.5" r="7.5" fill="url(#paint3_linear_217_28)"/>
<circle cx="303.5" cy="59.5" r="7.5" fill="url(#paint4_linear_217_28)"/>
<path fill-rule="evenodd" clip-rule="evenodd" d="M379.581 331.864V201.153C315.013 187.848 289.186 161.627 273.142 136.189C257.503 103.44 252.793 73.5736 265.315 7.651e-06L191.356 0L35.2189 6.53135e-07H0V195.397V380H93.9169H191.356C233.618 380 379.972 379.609 379.972 379.609C379.972 379.609 380.035 380 379.972 374.13V360.433C379.972 356.553 379.876 351.493 379.779 346.388C379.681 341.193 379.581 335.952 379.581 331.864ZM86.4562 55.0723C87.6286 52.8043 88.0092 50.4051 87.5981 47.875C86.5704 41.5496 80.703 37.0493 74.1977 38.1062C67.9426 39.1225 63.5105 45.0366 64.5793 51.615C65.607 57.9404 71.4744 62.4407 77.9797 61.3837C79.9814 61.0585 81.6506 60.2679 82.9874 59.0119L118.435 89.0906L101.202 133.182C99.6182 132.92 98.326 132.87 96.5746 133.155C89.3187 134.334 84.3004 141.382 85.4925 148.719C86.0269 152.008 87.7713 154.841 90.184 157.046L78.3403 179.795L41.3393 161.569C42.22 158.681 42.1772 155.488 41.0061 152.453C38.2224 145.24 30.1181 141.649 22.9046 144.432C15.6911 147.216 12.1 155.32 14.8836 162.534C17.6673 169.747 25.7716 173.338 32.9851 170.555C35.201 169.7 37.0751 168.343 38.5276 166.663L53.5984 174.115L75.9764 184.336L66.1096 203.288C64.7763 202.985 63.4842 202.935 62.2332 203.139C56.7287 204.033 53.1741 209.025 54.0785 214.592C54.9829 220.158 59.9352 223.768 65.4397 222.874C68.4421 222.386 70.7386 220.715 72.1612 218.406L113.567 231.415C113.354 233.268 113.392 235.08 113.679 236.851C114.666 242.923 118.532 247.749 123.779 250.012L117.147 274.344L77.3119 257.572C77.7379 255.105 77.1383 252.474 75.4396 250.376C72.3128 246.514 66.6463 245.918 62.783 249.046C58.9198 252.174 58.3228 257.84 61.4496 261.702C64.5764 265.564 70.243 266.16 74.1062 263.032C74.7544 262.507 75.3107 261.911 75.7728 261.264L116.086 278.237L109.781 301.369C108.489 301.319 107.196 301.27 105.945 301.473C97.9389 302.774 92.5024 310.409 93.8179 318.506C95.1334 326.602 102.498 332.417 110.755 331.076C119.012 329.734 124.198 322.139 122.883 314.043C122.061 308.983 118.819 304.835 114.654 302.914L128.653 251.558C130.236 251.82 132.029 251.788 133.53 251.544C137.283 250.935 140.83 249.06 143.213 246.335L174.884 268.977C172.08 273.847 170.773 280.033 171.76 286.105C173.281 295.467 179.6 302.75 187.596 306.126L175.916 346.458C175.124 346.327 174.124 346.49 173.373 346.612L173.373 346.612C167.118 347.628 162.686 353.542 163.754 360.12C164.782 366.446 170.649 370.946 177.155 369.889C183.66 368.832 187.842 362.959 186.773 356.38C186.156 352.585 183.912 349.834 181.04 347.963L192.47 307.671C195.387 308.236 198.221 308.295 201.224 307.807C209.48 306.465 216.329 301.198 219.805 294.14L248.625 305.559C248.498 306.359 248.412 307.411 248.577 308.423C249.481 313.99 254.433 317.6 259.938 316.706C265.442 315.811 268.997 310.819 268.093 305.253C267.749 303.139 266.822 301.308 265.503 299.898L289.623 269.553C292.727 271.242 296.674 271.003 299.592 268.641C303.455 265.514 304.052 259.847 300.925 255.985C297.798 252.123 292.132 251.527 288.268 254.655C284.405 257.782 283.808 263.449 286.935 267.311L270.628 287.837L263.007 297.979C261.171 296.998 258.998 296.602 256.731 296.97C253.979 297.418 251.892 298.795 250.428 300.851L221.858 289.392C222.825 285.859 223.209 281.901 222.592 278.106C221.277 270.009 216.623 263.494 210.087 259.622L221.777 233.571C223.652 234.045 225.735 234.226 227.987 233.86C235.994 232.559 241.43 224.924 240.115 216.827C238.799 208.731 231.225 203.209 223.219 204.51L222.718 204.592L212.221 177.517L233.009 169.379L248.501 163.314C248.637 163.514 248.783 163.709 248.938 163.9C252.065 167.763 257.731 168.358 261.594 165.23C265.458 162.103 266.055 156.436 262.928 152.574C259.801 148.712 254.134 148.117 250.271 151.244C247.697 153.328 246.573 156.539 247.035 159.592L231.551 165.654L210.775 173.788L202.826 153.288C210.38 149.204 215.111 140.384 213.631 131.276C212.768 125.962 209.985 121.48 206.157 118.467L222.264 92.7367C223.639 93.2925 225.181 93.3016 226.933 93.0171C232.437 92.1227 235.992 87.1303 235.087 81.564C234.183 75.9976 229.231 72.3875 223.726 73.2818C218.222 74.1762 214.667 79.1685 215.571 84.7348C215.9 86.759 216.688 88.4488 217.936 89.8043L201.787 115.281C198.165 113.533 193.664 112.706 189.411 113.397C179.153 115.063 171.879 124.036 171.772 134.441L111.644 142.133C110.651 139.178 108.697 136.639 106.116 134.98L123.685 89.7956L140.161 72.881L151.471 78.2331L164.599 84.2051L165.02 83.4973C163.73 86.4739 164.099 90.048 166.281 92.7433C169.408 96.6055 175.074 97.201 178.938 94.0734C182.801 90.9457 183.398 85.2794 180.271 81.4172C177.144 77.555 171.478 76.9595 167.614 80.0871C167.076 80.5231 166.601 81.0085 166.19 81.5315L142.965 70.0023L170.566 41.6663C171.649 42.0097 172.732 42.3531 173.983 42.1499C177.486 41.5807 179.995 38.0567 179.42 34.5145C178.844 30.9723 175.348 28.4239 171.845 28.993C168.342 29.5621 165.833 33.0862 166.409 36.6284C166.491 37.1344 166.573 37.6404 166.906 38.1058L121.071 84.7669L86.4562 55.0723ZM73.632 213.233C73.7588 212.433 73.6766 211.927 73.5533 211.168C73.1833 208.891 72.1038 206.989 70.5651 205.421L95.349 158.804C97.2648 159.531 99.3487 159.712 101.35 159.387C107.605 158.371 112.161 153.216 112.425 146.94L172.553 139.248C173.793 143.721 176.244 147.738 179.78 150.54L137.817 217.867C134.777 216.543 131.36 216.059 128.107 216.588C122.352 217.523 117.591 221.412 115.288 226.202L73.632 213.233ZM217.628 206.457C212.744 209.588 209.604 215.552 210.591 221.624C211.289 225.926 213.658 229.436 216.821 231.519L205.131 257.57C201.3 256.115 197.132 255.754 192.628 256.485C186.373 257.502 181.239 260.673 177.31 264.947L145.599 242.052C147.148 238.944 147.823 235.198 147.166 231.15C146.467 226.849 144.349 223.298 141.354 220.668L183.108 153.635C186.731 155.383 190.981 156.251 195.484 155.519L197.236 155.235L217.628 206.457Z" fill="url(#paint5_linear_217_28)"/>
<defs>
<linearGradient id="paint0_linear_217_28" x1="329.606" y1="-5.55471" x2="329.606" y2="159.445" gradientUnits="userSpaceOnUse">
<stop stop-color="#034F86"/>
<stop offset="1" stop-color="#63C3E1"/>
</linearGradient>
<linearGradient id="paint1_linear_217_28" x1="303.5" y1="106" x2="303.5" y2="121" gradientUnits="userSpaceOnUse">
<stop stop-color="#034F86"/>
<stop offset="1" stop-color="#63C3E1"/>
</linearGradient>
<linearGradient id="paint2_linear_217_28" x1="352.5" y1="56" x2="352.5" y2="71" gradientUnits="userSpaceOnUse">
<stop stop-color="#034F86"/>
<stop offset="1" stop-color="#63C3E1"/>
</linearGradient>
<linearGradient id="paint3_linear_217_28" x1="352.5" y1="106" x2="352.5" y2="121" gradientUnits="userSpaceOnUse">
<stop stop-color="#034F86"/>
<stop offset="1" stop-color="#63C3E1"/>
</linearGradient>
<linearGradient id="paint4_linear_217_28" x1="303.5" y1="52" x2="303.5" y2="67" gradientUnits="userSpaceOnUse">
<stop stop-color="#034F86"/>
<stop offset="1" stop-color="#63C3E1"/>
</linearGradient>
<linearGradient id="paint5_linear_217_28" x1="190" y1="0" x2="190" y2="380" gradientUnits="userSpaceOnUse">
<stop stop-color="#034F86"/>
<stop offset="0.0001" stop-color="#034F86"/>
<stop offset="1" stop-color="#63C3E1"/>
</linearGradient>
</defs>
</svg>
