<svg width="370" height="370" viewBox="0 0 370 370" fill="none" xmlns="http://www.w3.org/2000/svg">
<rect width="370" height="370" rx="28" fill="url(#paint0_linear_233_381)"/>
<path d="M233.809 79.6078C233.809 70.8705 219.361 57.2849 209.261 49.027C197.506 39.4159 191.974 32.1347 184.713 30.096C174.34 36.5034 165.326 44.0148 159.127 49.027C133.196 69.9967 139.42 67.6667 135.271 76.6954C123.169 58.3469 141.494 47.2795 153.941 36.5034C163.36 28.3485 176.069 16.4074 184.713 10C193.011 14.9512 204.264 25.3627 212.373 32.1347C232.426 48.8812 247.639 64.7543 233.809 79.6078Z" fill="url(#paint1_linear_233_381)"/>
<path d="M233.809 79.6078C233.809 70.8705 219.361 57.2849 209.261 49.027C197.506 39.4159 191.974 32.1347 184.713 30.096C174.34 36.5034 165.326 44.0148 159.127 49.027C133.196 69.9967 139.42 67.6667 135.271 76.6954C123.169 58.3469 141.494 47.2795 153.941 36.5034C163.36 28.3485 176.069 16.4074 184.713 10C193.011 14.9512 204.264 25.3627 212.373 32.1347C232.426 48.8812 247.639 64.7543 233.809 79.6078Z" fill="url(#paint2_linear_233_381)"/>
<path d="M28.6546 106.12C38.3274 127.976 38.6729 157.219 56.2912 170.455C20.7091 176.611 22.4364 121.511 10 96.8857C23.4728 93.4997 100.51 63.6411 104.31 94.731C86.3459 87.0356 47.3093 102.734 28.6546 106.12Z" fill="url(#paint3_linear_233_381)"/>
<path d="M52.4395 185.425C69.3862 197.785 79.0826 217.226 99.127 217.242C74.7592 232.522 55.432 201.222 36.5422 185.412C36.5422 185.412 79.7821 135.979 99.062 153.391C79.4366 154.756 65.1536 177.289 52.4395 185.425Z" fill="url(#paint4_linear_233_381)"/>
<path d="M317.734 185.576C300.977 173.013 291.577 153.457 271.535 153.199C296.132 138.214 314.982 169.744 333.63 185.781C333.63 185.781 289.643 234.688 270.63 217.045C290.274 215.917 304.898 193.558 317.734 185.576Z" fill="url(#paint5_linear_233_381)"/>
<path d="M119.42 287.692C139.729 280.391 163.522 282.158 173.172 266.504C176.498 292.888 136.405 292.947 111.767 300.108C111.767 300.108 83.9002 242.562 110.302 235.865C102.213 251.857 117.524 273.847 119.42 287.692Z" fill="url(#paint6_linear_233_381)"/>
<path d="M252.165 286.161C255.545 266.88 269.448 249.585 259.314 234.176C286.44 245.162 265.937 275.862 260.203 298.382C260.203 298.382 190.468 290.19 197.555 266.559C208.815 280.947 237.853 280.511 252.165 286.161Z" fill="url(#paint7_linear_233_381)"/>
<path d="M120.48 83.2533C116.818 102.493 102.662 119.624 112.57 135.151C85.6069 123.85 106.558 93.3912 112.621 70.9394C112.621 70.9394 182.23 79.9411 174.798 103.488C163.75 88.9701 134.707 89.0683 120.48 83.2533Z" fill="url(#paint8_linear_233_381)"/>
<path d="M252.299 83.0389C231.847 90.0169 208.093 87.8726 198.132 103.372C195.334 76.9385 235.421 77.516 260.199 70.7465C260.199 70.7465 286.912 128.726 260.38 135.002C268.787 119.142 253.918 96.9118 252.299 83.0389Z" fill="url(#paint9_linear_233_381)"/>
<path d="M185.492 102.119C171.762 117.322 163.037 115.663 160.964 131.67C149.91 115.663 167.325 110.07 184.91 93.1068C184.91 93.1068 222.801 115.663 210.365 131.67C204.837 115.663 195.51 112.893 185.492 102.119Z" fill="url(#paint10_linear_233_381)"/>
<path d="M185.285 268.954C198.874 253.651 207.614 255.245 209.538 239.223C220.741 255.148 203.378 260.87 185.95 277.961C185.95 277.961 147.852 255.685 160.14 239.587C165.815 255.552 175.168 258.254 185.285 268.954Z" fill="url(#paint11_linear_233_381)"/>
<path d="M103.461 227.594C125.266 230.331 128.131 237.909 144.738 231.25C134.864 248.024 120.5 237.491 95.0075 232.691C95.0075 232.691 97.4753 191.861 119.398 193.186C106.69 205.702 108.784 214.318 103.461 227.594Z" fill="url(#paint12_linear_233_381)"/>
<path d="M265.653 227.336C258.233 208.976 264.364 203.202 250.106 193.292C271.198 193.215 267.492 209.376 274.591 231.585C274.591 231.585 233.253 248.67 224.389 230.876C242.604 235.003 250.114 229.35 265.653 227.336Z" fill="url(#paint13_linear_233_381)"/>
<path d="M267.914 143.997C246.405 140.325 243.956 132.682 227.119 138.56C237.797 122.352 251.511 133.431 276.573 139.312C276.573 139.312 271.994 179.71 250.295 177.434C263.566 165.575 261.936 156.935 267.914 143.997Z" fill="url(#paint14_linear_233_381)"/>
<path d="M103.803 143.342C111.418 161.638 105.349 167.464 119.712 177.253C98.6215 177.509 102.155 161.317 94.8198 139.168C94.8198 139.168 135.975 121.735 145.027 139.453C126.769 135.48 119.319 141.197 103.803 143.342Z" fill="url(#paint15_linear_233_381)"/>
<path d="M195.537 62.9606C195.537 71.6717 192.478 84.1703 185.34 87.579C177.691 83.0341 174.632 70.9142 174.632 62.9606C174.632 55.0069 177.181 46.2958 185.34 41.3721C191.458 44.7808 195.537 55.3857 195.537 62.9606Z" fill="url(#paint16_linear_233_381)"/>
<path d="M61.1854 239.839C68.7639 235.902 81.5065 232.739 87.8982 236.805C88.9958 244.426 78.9602 252.834 72.0407 256.429C65.1212 260.024 54.8631 261.229 47.6991 257.689C46.5718 249.862 54.5954 243.263 61.1854 239.839Z" fill="url(#paint17_linear_233_381)"/>
<path d="M197.628 306.098C197.628 314.809 192.58 328.444 186.41 330.717C178.558 327.687 174.632 314.052 174.632 306.098C174.632 298.145 179.119 289.055 186.41 284.51C193.141 289.055 197.628 298.523 197.628 306.098Z" fill="url(#paint18_linear_233_381)"/>
<path d="M300.653 255.109C292.512 250.949 282.052 241.64 282.599 235.659C288.416 232.997 303.372 235.536 310.805 239.334C318.237 243.132 326.395 250.982 325.779 257.722C318.323 260.883 307.731 258.726 300.653 255.109Z" fill="url(#paint19_linear_233_381)"/>
<path d="M316.803 134.228C309.007 138.24 295.268 139.855 288.941 136.571C287.681 129.329 297.731 119.45 304.849 115.787C311.966 112.124 324.715 110.564 330.291 115.289C331.354 121.399 323.582 130.739 316.803 134.228Z" fill="url(#paint20_linear_233_381)"/>
<path d="M74.6841 113.134C82.7808 117.347 92.6712 125.824 92.1173 133.355C85.2219 136.473 70.907 134.024 63.5145 130.177C56.1219 126.331 48.3197 117.655 49.17 111.007C55.9499 106.984 67.6436 109.471 74.6841 113.134Z" fill="url(#paint21_linear_233_381)"/>
<path d="M87.8527 175.895C93.6597 175.805 101.958 177.64 104.391 182.211C101.873 186.203 93.4157 189.28 88.1137 189.362C82.8117 189.443 75.5451 186.834 73.5889 182.685C75.7187 178.202 82.8032 175.972 87.8527 175.895Z" fill="url(#paint22_linear_233_381)"/>
<path d="M142.294 103.115C145.337 107.522 147.787 114.823 144.6 119.023C139.453 119.13 132.167 114.215 129.388 110.191C126.609 106.166 125.435 99.2619 128.455 95.6434C133.88 94.9877 139.647 99.2822 142.294 103.115Z" fill="url(#paint23_linear_233_381)"/>
<path d="M128.692 149.137C132.257 150.928 136.401 154.944 135.66 159.112C132.197 161.268 125.575 160.845 122.32 159.21C119.064 157.575 115.921 153.316 116.746 149.612C120.212 146.968 125.591 147.58 128.692 149.137Z" fill="url(#paint24_linear_233_381)"/>
<path d="M242.524 152.415C246.022 150.521 251.882 149.122 255.371 151.402C255.589 154.861 251.789 159.585 248.595 161.315C245.402 163.045 239.83 163.6 236.817 161.451C236.146 157.788 239.483 154.062 242.524 152.415Z" fill="url(#paint25_linear_233_381)"/>
<path d="M122.151 212.013C125.649 210.118 131.592 208.841 135.275 211.407C135.661 215.111 131.985 220.018 128.792 221.747C125.598 223.477 119.912 223.864 116.722 221.456C115.863 217.517 119.11 213.66 122.151 212.013Z" fill="url(#paint26_linear_233_381)"/>
<path d="M190.344 123.452C190.272 127.099 188.595 132.262 184.87 133.676C181.731 131.996 179.474 126.612 179.539 123.283C179.605 119.953 181.877 115.457 185.252 114.332C188.795 115.78 190.407 120.281 190.344 123.452Z" fill="url(#paint27_linear_233_381)"/>
<path d="M144.791 181.71C148.146 181.62 152.951 182.499 154.385 184.831C152.956 186.903 148.089 188.55 145.027 188.633C141.965 188.716 137.75 187.43 136.594 185.312C137.796 182.99 141.875 181.789 144.791 181.71Z" fill="url(#paint28_linear_233_381)"/>
<path d="M167.839 150.522C169.402 153.296 170.668 157.67 169.048 159.797C166.419 159.422 162.687 156 161.26 153.468C159.832 150.936 159.218 146.895 160.754 145.086C163.525 145.171 166.479 148.111 167.839 150.522Z" fill="url(#paint29_linear_233_381)"/>
<path d="M211.507 152.483C209.65 155.106 206.132 158.346 203.324 158.247C202.387 156.083 203.793 151.496 205.489 149.101C207.184 146.705 210.707 144.129 213.174 144.331C214.453 146.45 213.122 150.201 211.507 152.483Z" fill="url(#paint30_linear_233_381)"/>
<path d="M169.378 218.979C167.559 221.548 163.973 224.643 160.895 224.362C159.696 222.084 160.864 217.474 162.525 215.127C164.186 212.781 167.829 210.367 170.543 210.731C172.112 212.984 170.959 216.744 169.378 218.979Z" fill="url(#paint31_linear_233_381)"/>
<path d="M209.927 216.575C211.466 219.305 212.648 223.64 210.903 225.801C208.186 225.49 204.416 222.164 203.011 219.671C201.605 217.179 201.09 213.162 202.738 211.319C205.611 211.338 208.588 214.201 209.927 216.575Z" fill="url(#paint32_linear_233_381)"/>
<path d="M230.609 182.764C234.006 182.673 238.868 183.447 240.311 185.535C238.855 187.399 233.922 188.892 230.821 188.976C227.72 189.059 223.457 187.919 222.295 186.022C223.521 183.935 227.656 182.844 230.609 182.764Z" fill="url(#paint33_linear_233_381)"/>
<path d="M189.864 246.313C189.792 249.96 188.185 255.124 184.624 256.54C181.626 254.863 179.474 249.48 179.539 246.151C179.605 242.821 181.78 238.324 185.006 237.196C188.39 238.642 189.927 243.142 189.864 246.313Z" fill="url(#paint34_linear_233_381)"/>
<path d="M247.657 208.929C251.223 210.72 255.471 214.57 254.975 218.352C251.722 220.175 245.257 219.505 242.001 217.87C238.745 216.234 235.458 212.204 236.061 208.852C239.29 206.582 244.556 207.372 247.657 208.929Z" fill="url(#paint35_linear_233_381)"/>
<path d="M230.507 104.814C233.441 100.348 239.531 94.9939 245.217 95.5393C247.768 99.5488 246.346 107.599 243.668 111.677C240.989 115.755 234.687 119.918 229.657 119.231C226.429 115.259 227.956 108.698 230.507 104.814Z" fill="url(#paint36_linear_233_381)"/>
<path d="M281.53 179.607C287.337 179.517 295.635 181.335 298.067 185.864C295.549 189.82 287.091 192.871 281.789 192.952C276.487 193.034 269.221 190.45 267.265 186.338C269.396 181.895 276.481 179.684 281.53 179.607Z" fill="url(#paint37_linear_233_381)"/>
<path d="M229.45 264.143C226.882 259.501 225.056 252.095 228.31 248.337C233.139 248.794 239.649 254.394 241.994 258.632C244.339 262.87 244.996 269.749 241.934 272.957C236.81 273.007 231.684 268.179 229.45 264.143Z" fill="url(#paint38_linear_233_381)"/>
<path d="M130.21 259.157C133.164 254.701 139.137 249.295 144.487 249.685C146.734 253.554 145.063 261.486 142.366 265.555C139.669 269.623 133.545 273.867 128.82 273.321C125.931 269.507 127.642 263.032 130.21 259.157Z" fill="url(#paint39_linear_233_381)"/>
<path d="M29.691 265.572C52.4911 271.728 89.1095 282.194 103.273 277.577C103.273 304.665 38.6729 283.733 10 274.498C19.6728 260.031 22.091 193.541 54.9093 202.16C48.0002 208.625 32.4547 245.255 29.691 265.572Z" fill="url(#paint40_linear_233_381)"/>
<path d="M359 102.32C355.149 119.73 359 170.995 319.527 170.995C333.65 168.304 337.338 141.01 342.633 111.025C321.934 98.787 294.729 87.89 268.501 92.1638C281.979 69.9171 327.71 88.2948 359 102.32Z" fill="url(#paint41_linear_233_381)"/>
<path d="M219.347 161.528C225.329 156.911 221.765 142.751 217.274 136.287C203.801 136.287 191.365 141.488 191.365 146.137C188.947 133.209 205.183 131.978 221.765 128.899C230.747 143.367 230.747 161.528 219.347 161.528Z" fill="url(#paint42_linear_233_381)"/>
<path d="M191.017 223.48C192.809 230.349 208.527 234.147 217.039 233.623C223.325 223.005 223.964 210.777 219.349 208.607C233.311 212.733 226.958 226.104 222.277 240.609C203.725 240.938 185.698 232.465 191.017 223.48Z" fill="url(#paint43_linear_233_381)"/>
<path d="M152.225 208.754C146.27 213.399 149.915 227.542 154.444 233.986C167.916 233.924 180.323 228.666 180.296 224.017C182.789 236.934 166.559 238.24 149.996 241.394C140.93 226.968 140.825 208.807 152.225 208.754Z" fill="url(#paint44_linear_233_381)"/>
<path d="M144.429 170.981C136.843 168.97 125.362 179.262 121.661 186.112C128.906 196.233 140.514 202.779 144.914 200.279C133.981 209.048 124.085 197.513 112.256 186.711C121.114 172.183 138.299 162.417 144.429 170.981Z" fill="url(#paint45_linear_233_381)"/>
<path d="M225.433 199.652C232.866 202.075 245.035 192.431 249.201 185.796C242.667 175.297 231.532 168.128 226.969 170.383C238.485 162.229 247.567 174.284 258.63 185.713C248.787 199.728 230.962 208.536 225.433 199.652Z" fill="url(#paint46_linear_233_381)"/>
<path d="M179.674 146.384C177.66 139.564 161.826 136.172 153.335 136.913C147.395 147.689 147.151 159.928 151.834 161.978C137.745 158.212 143.663 144.684 147.873 130.065C166.406 129.259 184.7 137.266 179.674 146.384Z" fill="url(#paint47_linear_233_381)"/>
<ellipse cx="187.175" cy="185.131" rx="23.5188" ry="23.6285" fill="url(#paint48_linear_233_381)"/>
<path d="M234.753 295.294C234.753 303.416 220.254 316.045 210.118 323.721C198.321 332.656 192.77 339.424 185.483 341.319C172.468 333.768 167.637 328.818 159.807 323.721C143 312.782 139.434 303.687 135.271 295.294C123.127 312.35 141.62 327.685 154.111 337.703C163.564 345.283 176.809 354.044 185.483 360C193.811 355.397 205.103 345.719 213.241 339.424C233.365 323.857 248.632 309.102 234.753 295.294Z" fill="url(#paint49_linear_233_381)"/>
<path d="M234.753 295.294C234.753 303.416 220.254 316.045 210.118 323.721C198.321 332.656 192.77 339.424 185.483 341.319C172.468 333.768 167.637 328.818 159.807 323.721C143 312.782 139.434 303.687 135.271 295.294C123.127 312.35 141.62 327.685 154.111 337.703C163.564 345.283 176.809 354.044 185.483 360C193.811 355.397 205.103 345.719 213.241 339.424C233.365 323.857 248.632 309.102 234.753 295.294Z" fill="url(#paint50_linear_233_381)"/>
<path d="M335.976 264.319C319.046 274.087 292.3 278.769 269.303 277.693C282.461 299.639 338.781 284.434 356.781 274.087C354.577 258.281 341.189 215.488 307.974 209.684C318.083 221.775 338.301 240.636 335.976 264.319Z" fill="url(#paint51_linear_233_381)"/>
<defs>
<linearGradient id="paint0_linear_233_381" x1="0" y1="0" x2="370" y2="370" gradientUnits="userSpaceOnUse">
<stop stop-color="#066BB2"/>
<stop offset="1" stop-color="#63C3E1"/>
</linearGradient>
<linearGradient id="paint1_linear_233_381" x1="185.222" y1="10" x2="185.222" y2="79.6078" gradientUnits="userSpaceOnUse">
<stop offset="0.0260417" stop-color="white"/>
<stop offset="0.625" stop-color="#FFFEF9" stop-opacity="0.84"/>
</linearGradient>
<linearGradient id="paint2_linear_233_381" x1="185.222" y1="10" x2="185.222" y2="79.6078" gradientUnits="userSpaceOnUse">
<stop offset="0.0260417" stop-color="white"/>
<stop offset="0.625" stop-color="#FFFEF9" stop-opacity="0.84"/>
</linearGradient>
<linearGradient id="paint3_linear_233_381" x1="57.1548" y1="80.7188" x2="57.1548" y2="170.931" gradientUnits="userSpaceOnUse">
<stop offset="0.0260417" stop-color="white"/>
<stop offset="0.625" stop-color="#FFFEF9" stop-opacity="0.84"/>
</linearGradient>
<linearGradient id="paint4_linear_233_381" x1="62.3574" y1="158.299" x2="87.3249" y2="222.419" gradientUnits="userSpaceOnUse">
<stop offset="0.0260417" stop-color="white"/>
<stop offset="0.625" stop-color="#FFFEF9" stop-opacity="0.84"/>
</linearGradient>
<linearGradient id="paint5_linear_233_381" x1="307.406" y1="212.58" x2="283.264" y2="148.221" gradientUnits="userSpaceOnUse">
<stop offset="0.0260417" stop-color="white"/>
<stop offset="0.625" stop-color="#FFFEF9" stop-opacity="0.84"/>
</linearGradient>
<linearGradient id="paint6_linear_233_381" x1="97.4915" y1="266.905" x2="172.969" y2="274.497" gradientUnits="userSpaceOnUse">
<stop offset="0.0260417" stop-color="white"/>
<stop offset="0.625" stop-color="#FFFEF9" stop-opacity="0.84"/>
</linearGradient>
<linearGradient id="paint7_linear_233_381" x1="220.892" y1="292.276" x2="259.017" y2="233.325" gradientUnits="userSpaceOnUse">
<stop offset="0.0260417" stop-color="white"/>
<stop offset="0.625" stop-color="#FFFEF9" stop-opacity="0.84"/>
</linearGradient>
<linearGradient id="paint8_linear_233_381" x1="151.839" y1="77.5018" x2="112.925" y2="136.051" gradientUnits="userSpaceOnUse">
<stop offset="0.0260417" stop-color="white"/>
<stop offset="0.625" stop-color="#FFFEF9" stop-opacity="0.84"/>
</linearGradient>
<linearGradient id="paint9_linear_233_381" x1="273.809" y1="104.171" x2="198.532" y2="95.0806" gradientUnits="userSpaceOnUse">
<stop offset="0.0260417" stop-color="white"/>
<stop offset="0.625" stop-color="#FFFEF9" stop-opacity="0.84"/>
</linearGradient>
<linearGradient id="paint10_linear_233_381" x1="206.638" y1="108.804" x2="160.742" y2="131.825" gradientUnits="userSpaceOnUse">
<stop offset="0.0260417" stop-color="white"/>
<stop offset="0.625" stop-color="#FFFEF9" stop-opacity="0.84"/>
</linearGradient>
<linearGradient id="paint11_linear_233_381" x1="164.078" y1="262.425" x2="209.733" y2="239.015" gradientUnits="userSpaceOnUse">
<stop offset="0.0260417" stop-color="white"/>
<stop offset="0.625" stop-color="#FFFEF9" stop-opacity="0.84"/>
</linearGradient>
<linearGradient id="paint12_linear_233_381" x1="99.1051" y1="207.852" x2="138.765" y2="239.226" gradientUnits="userSpaceOnUse">
<stop offset="0.0260417" stop-color="white"/>
<stop offset="0.625" stop-color="#FFFEF9" stop-opacity="0.84"/>
</linearGradient>
<linearGradient id="paint13_linear_233_381" x1="248.239" y1="239.944" x2="253.54" y2="193.437" gradientUnits="userSpaceOnUse">
<stop offset="0.0260417" stop-color="white"/>
<stop offset="0.625" stop-color="#FFFEF9" stop-opacity="0.84"/>
</linearGradient>
<linearGradient id="paint14_linear_233_381" x1="271.209" y1="163.774" x2="233.543" y2="130.82" gradientUnits="userSpaceOnUse">
<stop offset="0.0260417" stop-color="white"/>
<stop offset="0.625" stop-color="#FFFEF9" stop-opacity="0.84"/>
</linearGradient>
<linearGradient id="paint15_linear_233_381" x1="121.082" y1="130.587" x2="116.177" y2="177.126" gradientUnits="userSpaceOnUse">
<stop offset="0.0260417" stop-color="white"/>
<stop offset="0.625" stop-color="#FFFEF9" stop-opacity="0.84"/>
</linearGradient>
<linearGradient id="paint16_linear_233_381" x1="185.085" y1="41.3721" x2="185.085" y2="87.579" gradientUnits="userSpaceOnUse">
<stop offset="0.0260417" stop-color="white"/>
<stop offset="0.625" stop-color="#FFFEF9" stop-opacity="0.84"/>
</linearGradient>
<linearGradient id="paint17_linear_233_381" x1="47.8315" y1="257.891" x2="85.5479" y2="233.213" gradientUnits="userSpaceOnUse">
<stop offset="0.0260417" stop-color="white"/>
<stop offset="0.625" stop-color="#FFFEF9" stop-opacity="0.84"/>
</linearGradient>
<linearGradient id="paint18_linear_233_381" x1="186.13" y1="284.51" x2="186.13" y2="330.717" gradientUnits="userSpaceOnUse">
<stop offset="0.0260417" stop-color="white"/>
<stop offset="0.625" stop-color="#FFFEF9" stop-opacity="0.84"/>
</linearGradient>
<linearGradient id="paint19_linear_233_381" x1="325.903" y1="257.53" x2="285.328" y2="231.418" gradientUnits="userSpaceOnUse">
<stop offset="0.0260417" stop-color="white"/>
<stop offset="0.625" stop-color="#FFFEF9" stop-opacity="0.84"/>
</linearGradient>
<linearGradient id="paint20_linear_233_381" x1="330.145" y1="115.064" x2="291.316" y2="140.234" gradientUnits="userSpaceOnUse">
<stop offset="0.0260417" stop-color="white"/>
<stop offset="0.625" stop-color="#FFFEF9" stop-opacity="0.84"/>
</linearGradient>
<linearGradient id="paint21_linear_233_381" x1="49.0338" y1="111.215" x2="89.3226" y2="137.619" gradientUnits="userSpaceOnUse">
<stop offset="0.0260417" stop-color="white"/>
<stop offset="0.625" stop-color="#FFFEF9" stop-opacity="0.84"/>
</linearGradient>
<linearGradient id="paint22_linear_233_381" x1="73.592" y1="182.85" x2="104.392" y2="182.253" gradientUnits="userSpaceOnUse">
<stop offset="0.0260417" stop-color="white"/>
<stop offset="0.625" stop-color="#FFFEF9" stop-opacity="0.84"/>
</linearGradient>
<linearGradient id="paint23_linear_233_381" x1="128.298" y1="95.7297" x2="141.885" y2="120.511" gradientUnits="userSpaceOnUse">
<stop offset="0.0260417" stop-color="white"/>
<stop offset="0.625" stop-color="#FFFEF9" stop-opacity="0.84"/>
</linearGradient>
<linearGradient id="paint24_linear_233_381" x1="116.669" y1="149.735" x2="134.469" y2="160.996" gradientUnits="userSpaceOnUse">
<stop offset="0.0260417" stop-color="white"/>
<stop offset="0.625" stop-color="#FFFEF9" stop-opacity="0.84"/>
</linearGradient>
<linearGradient id="paint25_linear_233_381" x1="236.891" y1="161.56" x2="254.231" y2="149.732" gradientUnits="userSpaceOnUse">
<stop offset="0.0260417" stop-color="white"/>
<stop offset="0.625" stop-color="#FFFEF9" stop-opacity="0.84"/>
</linearGradient>
<linearGradient id="paint26_linear_233_381" x1="116.803" y1="221.575" x2="134.143" y2="209.747" gradientUnits="userSpaceOnUse">
<stop offset="0.0260417" stop-color="white"/>
<stop offset="0.625" stop-color="#FFFEF9" stop-opacity="0.84"/>
</linearGradient>
<linearGradient id="paint27_linear_233_381" x1="185.121" y1="114.33" x2="184.817" y2="133.675" gradientUnits="userSpaceOnUse">
<stop offset="0.0260417" stop-color="white"/>
<stop offset="0.625" stop-color="#FFFEF9" stop-opacity="0.84"/>
</linearGradient>
<linearGradient id="paint28_linear_233_381" x1="136.597" y1="185.396" x2="154.384" y2="184.791" gradientUnits="userSpaceOnUse">
<stop offset="0.0260417" stop-color="white"/>
<stop offset="0.625" stop-color="#FFFEF9" stop-opacity="0.84"/>
</linearGradient>
<linearGradient id="paint29_linear_233_381" x1="160.674" y1="145.122" x2="167.545" y2="160.47" gradientUnits="userSpaceOnUse">
<stop offset="0.0260417" stop-color="white"/>
<stop offset="0.625" stop-color="#FFFEF9" stop-opacity="0.84"/>
</linearGradient>
<linearGradient id="paint30_linear_233_381" x1="213.1" y1="144.29" x2="204.792" y2="159.073" gradientUnits="userSpaceOnUse">
<stop offset="0.0260417" stop-color="white"/>
<stop offset="0.625" stop-color="#FFFEF9" stop-opacity="0.84"/>
</linearGradient>
<linearGradient id="paint31_linear_233_381" x1="170.459" y1="210.684" x2="162.322" y2="225.164" gradientUnits="userSpaceOnUse">
<stop offset="0.0260417" stop-color="white"/>
<stop offset="0.625" stop-color="#FFFEF9" stop-opacity="0.84"/>
</linearGradient>
<linearGradient id="paint32_linear_233_381" x1="202.654" y1="211.357" x2="209.418" y2="226.466" gradientUnits="userSpaceOnUse">
<stop offset="0.0260417" stop-color="white"/>
<stop offset="0.625" stop-color="#FFFEF9" stop-opacity="0.84"/>
</linearGradient>
<linearGradient id="paint33_linear_233_381" x1="222.298" y1="186.097" x2="240.309" y2="185.485" gradientUnits="userSpaceOnUse">
<stop offset="0.0260417" stop-color="white"/>
<stop offset="0.625" stop-color="#FFFEF9" stop-opacity="0.84"/>
</linearGradient>
<linearGradient id="paint34_linear_233_381" x1="184.88" y1="237.194" x2="184.577" y2="256.539" gradientUnits="userSpaceOnUse">
<stop offset="0.0260417" stop-color="white"/>
<stop offset="0.625" stop-color="#FFFEF9" stop-opacity="0.84"/>
</linearGradient>
<linearGradient id="paint35_linear_233_381" x1="235.992" y1="208.961" x2="253.793" y2="220.221" gradientUnits="userSpaceOnUse">
<stop offset="0.0260417" stop-color="white"/>
<stop offset="0.625" stop-color="#FFFEF9" stop-opacity="0.84"/>
</linearGradient>
<linearGradient id="paint36_linear_233_381" x1="229.818" y1="119.315" x2="242.857" y2="94.3087" gradientUnits="userSpaceOnUse">
<stop offset="0.0260417" stop-color="white"/>
<stop offset="0.625" stop-color="#FFFEF9" stop-opacity="0.84"/>
</linearGradient>
<linearGradient id="paint37_linear_233_381" x1="267.268" y1="186.501" x2="298.068" y2="185.904" gradientUnits="userSpaceOnUse">
<stop offset="0.0260417" stop-color="white"/>
<stop offset="0.625" stop-color="#FFFEF9" stop-opacity="0.84"/>
</linearGradient>
<linearGradient id="paint38_linear_233_381" x1="242.087" y1="272.89" x2="230.816" y2="247.236" gradientUnits="userSpaceOnUse">
<stop offset="0.0260417" stop-color="white"/>
<stop offset="0.625" stop-color="#FFFEF9" stop-opacity="0.84"/>
</linearGradient>
<linearGradient id="paint39_linear_233_381" x1="128.968" y1="273.399" x2="142.108" y2="248.433" gradientUnits="userSpaceOnUse">
<stop offset="0.0260417" stop-color="white"/>
<stop offset="0.625" stop-color="#FFFEF9" stop-opacity="0.84"/>
</linearGradient>
<linearGradient id="paint40_linear_233_381" x1="56.6366" y1="201.393" x2="56.6366" y2="290.95" gradientUnits="userSpaceOnUse">
<stop offset="0.0260417" stop-color="white"/>
<stop offset="0.625" stop-color="#FFFEF9" stop-opacity="0.84"/>
</linearGradient>
<linearGradient id="paint41_linear_233_381" x1="320.971" y1="80.5568" x2="320.971" y2="169.544" gradientUnits="userSpaceOnUse">
<stop offset="0.375" stop-color="white"/>
<stop offset="1" stop-color="white" stop-opacity="0.84"/>
</linearGradient>
<linearGradient id="paint42_linear_233_381" x1="209.675" y1="128.899" x2="209.675" y2="161.528" gradientUnits="userSpaceOnUse">
<stop offset="0.0260417" stop-color="white"/>
<stop offset="0.625" stop-color="#FFFEF9" stop-opacity="0.84"/>
</linearGradient>
<linearGradient id="paint43_linear_233_381" x1="227.918" y1="231.081" x2="197.26" y2="212.933" gradientUnits="userSpaceOnUse">
<stop offset="0.0260417" stop-color="white"/>
<stop offset="0.625" stop-color="#FFFEF9" stop-opacity="0.84"/>
</linearGradient>
<linearGradient id="paint44_linear_233_381" x1="162.085" y1="241.339" x2="161.935" y2="208.71" gradientUnits="userSpaceOnUse">
<stop offset="0.0260417" stop-color="white"/>
<stop offset="0.625" stop-color="#FFFEF9" stop-opacity="0.84"/>
</linearGradient>
<linearGradient id="paint45_linear_233_381" x1="118.757" y1="195.793" x2="147.475" y2="175.236" gradientUnits="userSpaceOnUse">
<stop offset="0.0260417" stop-color="white"/>
<stop offset="0.625" stop-color="#FFFEF9" stop-opacity="0.84"/>
</linearGradient>
<linearGradient id="paint46_linear_233_381" x1="252.767" y1="176.292" x2="222.585" y2="195.075" gradientUnits="userSpaceOnUse">
<stop offset="0.0260417" stop-color="white"/>
<stop offset="0.625" stop-color="#FFFEF9" stop-opacity="0.84"/>
</linearGradient>
<linearGradient id="paint47_linear_233_381" x1="142.543" y1="139.734" x2="173.832" y2="156.982" gradientUnits="userSpaceOnUse">
<stop offset="0.0260417" stop-color="white"/>
<stop offset="0.625" stop-color="#FFFEF9" stop-opacity="0.84"/>
</linearGradient>
<linearGradient id="paint48_linear_233_381" x1="187.175" y1="161.502" x2="187.175" y2="208.759" gradientUnits="userSpaceOnUse">
<stop offset="0.0260417" stop-color="white"/>
<stop offset="0.625" stop-color="#FFFEF9" stop-opacity="0.84"/>
</linearGradient>
<linearGradient id="paint49_linear_233_381" x1="185.994" y1="360" x2="185.994" y2="295.294" gradientUnits="userSpaceOnUse">
<stop stop-color="white"/>
<stop offset="0.53125" stop-color="#FCFCFC" stop-opacity="0.84"/>
</linearGradient>
<linearGradient id="paint50_linear_233_381" x1="185.994" y1="360" x2="185.994" y2="295.294" gradientUnits="userSpaceOnUse">
<stop stop-color="white"/>
<stop offset="0.53125" stop-color="#FCFCFC" stop-opacity="0.84"/>
</linearGradient>
<linearGradient id="paint51_linear_233_381" x1="307.886" y1="202.516" x2="305.41" y2="292.436" gradientUnits="userSpaceOnUse">
<stop offset="0.375" stop-color="white"/>
<stop offset="1" stop-color="white" stop-opacity="0.84"/>
</linearGradient>
</defs>
</svg>
