<svg width="225" height="341" viewBox="0 0 225 341" fill="none" xmlns="http://www.w3.org/2000/svg">
<path d="M201 83.5C201 121 192.556 126 192.556 126C202.056 115 208.556 114 219.056 75.5C220.828 69 227.056 105.5 223.556 130C223.556 153.5 199.556 187.697 179.056 202C142.556 225.5 105.056 230 96.0556 247.5C74.5556 285.5 138.933 347.932 132.556 340C114.556 340 35.5555 300.5 24.0556 285.5C0.555561 261 -0.944372 229 0.555561 210C2.33102 187.51 24.0556 147.5 24.0556 147.5C24.0556 147.5 39.0555 119 27.0555 111C14.7002 102.763 0 120.093 0 119.5C0 118.5 0 115.5 2 109C4 102.5 14 96 21 93.5C23.8311 88.0606 25 86 27.5 82.5C28.6203 81.2673 30 80 32 78.2453C33.7115 77.0189 35.5 75.5 38.5554 74C47.5 69.5 71.0554 80 81.5554 61C84.5554 80.5 69.3494 84.1649 79.5554 89.4999C99.9627 100.167 76.5554 132.5 94.5554 138C99.5554 138 139.056 164 141.556 0C161.219 35.1139 172 59.5 167.056 103.5C176 96 186 61 186 36.5C184.556 33.5 192.056 43.5 196.556 55C200.312 64.599 201 76.8137 201 83.5Z" fill="url(#paint0_linear_43_36)"/>
<g filter="url(#filter0_d_43_36)">
<path d="M48.4756 37.2414L51.311 39.3103L52.5 33L53.689 39.3103L56.6159 37.1379L54.878 40.4778L60 41.8966L54.878 43.4483L56.6159 46.7586L53.689 44.6897L52.5 51L51.311 44.6897L48.4756 46.7586L50.2134 43.4483L45 41.8966L49.6646 40.3448L50.8537 40.0345L51.5854 41.3793L48.4756 42L51.4939 42.6207L50.8537 44.069L52.0427 43.2414L52.5 48L53.0488 43.2414L54.1463 43.8621L53.5061 42.6207L56.5 42L53.5061 41.2759L54.2378 40.0345L53.0488 40.8621L52.5 36.5L52.0427 40.7586L50.8537 40.0345L49.6646 40.3448L48.4756 37.2414Z" fill="url(#paint1_linear_43_36)" fill-opacity="0.8" shape-rendering="crispEdges"/>
</g>
<g filter="url(#filter1_d_43_36)">
<path d="M37.3171 47.8276L39.2073 49.2069L40 45L40.7927 49.2069L42.7439 47.7586L41.5854 49.9852L45 50.931L41.5854 51.9655L42.7439 54.1724L40.7927 52.7931L40 57L39.2073 52.7931L37.3171 54.1724L38.4756 51.9655L35 50.931L38.1098 49.8966L38.9024 49.6897L39.3902 50.5862L37 51L39.3293 51.4138L38.9024 52.2414L39.6951 51.8276L40 55L40.3659 51.8276L41.0976 52.2414L40.6707 51.4138L43 51L40.6707 50.5172L41.1585 49.6897L40.3659 50.2414L40 47L39.6951 50.1724L38.9024 49.6897L38.1098 49.8966L37.3171 47.8276Z" fill="url(#paint2_linear_43_36)" fill-opacity="0.8" shape-rendering="crispEdges"/>
</g>
<g filter="url(#filter2_d_43_36)">
<path d="M62.3171 47.8276L64.2073 49.2069L65 45L65.7927 49.2069L67.7439 47.7586L66.5854 49.9852L70 50.931L66.5854 51.9655L67.7439 54.1724L65.7927 52.7931L65 57L64.2073 52.7931L62.3171 54.1724L63.4756 51.9655L60 50.931L63.1098 49.8966L63.9024 49.6897L64.3902 50.5862L62 51L64.3293 51.4138L63.9024 52.3793L64.6951 51.8276L65 55L65.3659 51.8276L66.0976 52.2414L65.6707 51.4138L68 51L65.6707 50.5172L66.1585 49.6897L65.3659 50.2414L65 47L64.6951 50.1724L63.9024 49.6897L63.1098 49.8966L62.3171 47.8276Z" fill="url(#paint3_linear_43_36)" fill-opacity="0.8" shape-rendering="crispEdges"/>
</g>
<path d="M47.1748 62.931L52.6174 53L58.1645 63.109L66.2085 58.3117L63.5155 67.9589L63.613 61.938L57.0968 65.8292L52.6174 59.3783L48.2428 65.6858L41.6781 61.5828L41.5806 67.6037L39.1569 57.8737L47.1748 62.931Z" fill="url(#paint4_linear_43_36)" fill-opacity="0.55"/>
<defs>
<filter id="filter0_d_43_36" x="41" y="33" width="23" height="26" filterUnits="userSpaceOnUse" color-interpolation-filters="sRGB">
<feFlood flood-opacity="0" result="BackgroundImageFix"/>
<feColorMatrix in="SourceAlpha" type="matrix" values="0 0 0 0 0 0 0 0 0 0 0 0 0 0 0 0 0 0 127 0" result="hardAlpha"/>
<feOffset dy="4"/>
<feGaussianBlur stdDeviation="2"/>
<feComposite in2="hardAlpha" operator="out"/>
<feColorMatrix type="matrix" values="0 0 0 0 0 0 0 0 0 0 0 0 0 0 0 0 0 0 0.25 0"/>
<feBlend mode="normal" in2="BackgroundImageFix" result="effect1_dropShadow_43_36"/>
<feBlend mode="normal" in="SourceGraphic" in2="effect1_dropShadow_43_36" result="shape"/>
</filter>
<filter id="filter1_d_43_36" x="31" y="45" width="18" height="20" filterUnits="userSpaceOnUse" color-interpolation-filters="sRGB">
<feFlood flood-opacity="0" result="BackgroundImageFix"/>
<feColorMatrix in="SourceAlpha" type="matrix" values="0 0 0 0 0 0 0 0 0 0 0 0 0 0 0 0 0 0 127 0" result="hardAlpha"/>
<feOffset dy="4"/>
<feGaussianBlur stdDeviation="2"/>
<feComposite in2="hardAlpha" operator="out"/>
<feColorMatrix type="matrix" values="0 0 0 0 0 0 0 0 0 0 0 0 0 0 0 0 0 0 0.25 0"/>
<feBlend mode="normal" in2="BackgroundImageFix" result="effect1_dropShadow_43_36"/>
<feBlend mode="normal" in="SourceGraphic" in2="effect1_dropShadow_43_36" result="shape"/>
</filter>
<filter id="filter2_d_43_36" x="56" y="45" width="18" height="20" filterUnits="userSpaceOnUse" color-interpolation-filters="sRGB">
<feFlood flood-opacity="0" result="BackgroundImageFix"/>
<feColorMatrix in="SourceAlpha" type="matrix" values="0 0 0 0 0 0 0 0 0 0 0 0 0 0 0 0 0 0 127 0" result="hardAlpha"/>
<feOffset dy="4"/>
<feGaussianBlur stdDeviation="2"/>
<feComposite in2="hardAlpha" operator="out"/>
<feColorMatrix type="matrix" values="0 0 0 0 0 0 0 0 0 0 0 0 0 0 0 0 0 0 0.25 0"/>
<feBlend mode="normal" in2="BackgroundImageFix" result="effect1_dropShadow_43_36"/>
<feBlend mode="normal" in="SourceGraphic" in2="effect1_dropShadow_43_36" result="shape"/>
</filter>
<linearGradient id="paint0_linear_43_36" x1="110.803" y1="0" x2="110.803" y2="340.689" gradientUnits="userSpaceOnUse">
<stop stop-color="#392973"/>
<stop offset="1" stop-color="#920A6D"/>
</linearGradient>
<linearGradient id="paint1_linear_43_36" x1="54" y1="33" x2="54" y2="51" gradientUnits="userSpaceOnUse">
<stop stop-color="#01C2FF"/>
<stop offset="1" stop-color="#0185FF" stop-opacity="0.75"/>
</linearGradient>
<linearGradient id="paint2_linear_43_36" x1="40" y1="45" x2="40" y2="57" gradientUnits="userSpaceOnUse">
<stop stop-color="#01C2FF"/>
<stop offset="1" stop-color="#0185FF" stop-opacity="0.7"/>
</linearGradient>
<linearGradient id="paint3_linear_43_36" x1="65" y1="45" x2="65" y2="57" gradientUnits="userSpaceOnUse">
<stop stop-color="#01C2FF"/>
<stop offset="1" stop-color="#0185FF" stop-opacity="0.7"/>
</linearGradient>
<linearGradient id="paint4_linear_43_36" x1="52.7292" y1="55.219" x2="52.5258" y2="67.781" gradientUnits="userSpaceOnUse">
<stop stop-color="#FED500"/>
<stop offset="1" stop-color="#FE6B00" stop-opacity="0.88"/>
</linearGradient>
</defs>
</svg>
