<svg width="458" height="461" viewBox="0 0 458 461" fill="none" xmlns="http://www.w3.org/2000/svg">
<g filter="url(#filter0_d_15_107)">
<path d="M48 103L64.5 117L75 128L82.5 130L84.5 124.5L105.5 147L131.5 163.5L132 150L143 161.5L145.5 179.5V213L162.5 229.5L182 232.5L196 241.5L201.5 236L204 234L208 232L211 231L217.5 230.5H221.5L225 231L230 233L233 235L255 229.5L267 221.5L274 208V179.5L279 168.5L292 158L286 168.5L311 152.5L336 132L331.5 142L350.5 128L369 107.5L365.5 122L352 143L358 140L356 147.5L373.5 135.5L365.5 156L350.5 168.5H358L354 174.5L371 168.5L361 184.5L347.5 194.5L354 196.5L347.5 199.5H365.5L354 210L340.5 216.5L344 221.5L339 223.5L356 227L344 234.5L331 237L334.5 240.5L325.5 239L344 249.5L334.5 254H321.5V258L312 255.5L331 268.5L301 270L312 282L299 280.5L287.5 274L289 280.5L284.5 277.5L292.5 291L276.5 284.5L269 277.5L270.5 284.5L265.5 282L270.5 295L257.5 288L247 282L249 297.5L238.5 292L234 309L232 329L227 347.5L243.5 351.5L242.5 354.5L257.5 357L247 362.5L252.5 368.5L243.5 370L252.5 380.5H241L245.5 387L230 384.5L233 393.904L222.5 383.5L224 393.904L217.5 389.5L213.5 393.904L209 391.5L203 393.904V387L195 393.904V387L182 391.5L187 384.5L172.5 387L178.5 380.5L164 379L177 368.5L166 366L171.5 362.5L162 356L177 354.5L174 351.5H181.5L193 346L189 331L187 313L185 303L183.5 293.5L185 284.5L178.5 295L169 297.5L169.5 295L172.5 280.5L167.5 288V282L158 291L145.5 295L152 277.5L135.5 288L126 291L135.5 275L130 280.5V275L116 282H107L118.5 270L111 272L114.5 265.5L106 270H88.5L104.5 255L93.5 259L97.5 253L84 255L76 249.5L93.5 239L86.5 237L72.5 235L62 227L79 221.5L70.5 220L79 217.5L63.5 209.5L54 198H72.5L66.5 194.5H72.5L54 182.5L47 167L66.5 174.5L61 168.5H69L54 155.5L46 136L64.5 148.5L58.5 142H64.5L54 128L48 103Z" fill="url(#paint0_linear_15_107)" shape-rendering="crispEdges"/>
<path d="M48 103L64.5 117L75 128L82.5 130L84.5 124.5L105.5 147L131.5 163.5L132 150L143 161.5L145.5 179.5V213L162.5 229.5L182 232.5L196 241.5L201.5 236L204 234L208 232L211 231L217.5 230.5H221.5L225 231L230 233L233 235L255 229.5L267 221.5L274 208V179.5L279 168.5L292 158L286 168.5L311 152.5L336 132L331.5 142L350.5 128L369 107.5L365.5 122L352 143L358 140L356 147.5L373.5 135.5L365.5 156L350.5 168.5H358L354 174.5L371 168.5L361 184.5L347.5 194.5L354 196.5L347.5 199.5H365.5L354 210L340.5 216.5L344 221.5L339 223.5L356 227L344 234.5L331 237L334.5 240.5L325.5 239L344 249.5L334.5 254H321.5V258L312 255.5L331 268.5L301 270L312 282L299 280.5L287.5 274L289 280.5L284.5 277.5L292.5 291L276.5 284.5L269 277.5L270.5 284.5L265.5 282L270.5 295L257.5 288L247 282L249 297.5L238.5 292L234 309L232 329L227 347.5L243.5 351.5L242.5 354.5L257.5 357L247 362.5L252.5 368.5L243.5 370L252.5 380.5H241L245.5 387L230 384.5L233 393.904L222.5 383.5L224 393.904L217.5 389.5L213.5 393.904L209 391.5L203 393.904V387L195 393.904V387L182 391.5L187 384.5L172.5 387L178.5 380.5L164 379L177 368.5L166 366L171.5 362.5L162 356L177 354.5L174 351.5H181.5L193 346L189 331L187 313L185 303L183.5 293.5L185 284.5L178.5 295L169 297.5L169.5 295L172.5 280.5L167.5 288V282L158 291L145.5 295L152 277.5L135.5 288L126 291L135.5 275L130 280.5V275L116 282H107L118.5 270L111 272L114.5 265.5L106 270H88.5L104.5 255L93.5 259L97.5 253L84 255L76 249.5L93.5 239L86.5 237L72.5 235L62 227L79 221.5L70.5 220L79 217.5L63.5 209.5L54 198H72.5L66.5 194.5H72.5L54 182.5L47 167L66.5 174.5L61 168.5H69L54 155.5L46 136L64.5 148.5L58.5 142H64.5L54 128L48 103Z" fill="black" fill-opacity="0.2" shape-rendering="crispEdges"/>
<path d="M228 256.5H230L234 260L235.5 264H231.5L230 262L229 260L228 256.5Z" fill="url(#paint1_linear_15_107)" shape-rendering="crispEdges"/>
<path d="M228 256.5H230L234 260L235.5 264H231.5L230 262L229 260L228 256.5Z" fill="black" fill-opacity="0.2" shape-rendering="crispEdges"/>
<path d="M228 256.5H230L234 260L235.5 264H231.5L230 262L229 260L228 256.5Z" fill="#E7A90A" shape-rendering="crispEdges"/>
<path d="M48 103L48.3882 102.542L46.988 101.354L47.4166 103.14L48 103ZM331.5 142L330.953 141.754L330.014 143.84L331.856 142.483L331.5 142ZM289 280.5L288.667 280.999L289.924 281.837L289.585 280.365L289 280.5ZM166 366L165.678 365.494L164.464 366.266L165.867 366.585L166 366ZM233 235L232.667 235.499L232.888 235.646L233.146 235.582L233 235ZM358 140L358.58 140.155L358.923 138.868L357.732 139.463L358 140ZM365.5 122L366.005 122.324L366.059 122.239L366.083 122.141L365.5 122ZM311 152.5L311.323 153.005L311.353 152.986L311.38 152.964L311 152.5ZM369 107.5L369.583 107.641L368.555 107.098L369 107.5ZM350.5 128L350.856 128.483L350.905 128.447L350.945 128.402L350.5 128ZM336 132L336.547 132.246L335.62 131.536L336 132ZM286 168.5L285.479 168.202L286.323 169.005L286 168.5ZM292 158L292.521 158.298L291.623 157.533L292 158ZM279 168.5L278.623 168.033L278.513 168.122L278.454 168.252L279 168.5ZM274 208L274.533 208.276L274.6 208.146V208H274ZM274 179.5L273.454 179.252L273.4 179.37V179.5H274ZM255 229.5L255.146 230.082L255.246 230.057L255.333 229.999L255 229.5ZM267 221.5L267.333 221.999L267.461 221.913L267.533 221.776L267 221.5ZM211 231L210.954 230.402L210.88 230.407L210.81 230.431L211 231ZM196 241.5L195.676 242.005L196.082 242.266L196.424 241.924L196 241.5ZM225 231L225.223 230.443L225.156 230.416L225.085 230.406L225 231ZM201.5 236L201.125 235.531L201.099 235.552L201.076 235.576L201.5 236ZM182 232.5L182.324 231.995L182.217 231.926L182.091 231.907L182 232.5ZM162.5 229.5L162.082 229.931L162.22 230.064L162.409 230.093L162.5 229.5ZM145.5 213H144.9V213.254L145.082 213.431L145.5 213ZM145.5 179.5H146.1V179.459L146.094 179.417L145.5 179.5ZM143 161.5L143.594 161.417L143.568 161.225L143.434 161.085L143 161.5ZM132 150L132.434 149.585L131.453 148.56L131.4 149.978L132 150ZM131.5 163.5L131.179 164.007L132.061 164.567L132.1 163.522L131.5 163.5ZM84.5 124.5L84.9386 124.091L84.2707 123.375L83.9361 124.295L84.5 124.5ZM105.5 147L105.061 147.409L105.114 147.465L105.179 147.507L105.5 147ZM82.5 130L82.3454 130.58L82.8762 130.721L83.0639 130.205L82.5 130ZM64.5 117L64.934 116.586L64.9122 116.563L64.8882 116.542L64.5 117ZM64.5 142V142.6H65.7L64.98 141.64L64.5 142ZM54 128L53.4166 128.14L53.4455 128.261L53.52 128.36L54 128ZM58.5 142V141.4H57.1296L58.0591 142.407L58.5 142ZM64.5 148.5L64.1641 148.997L64.9409 148.093L64.5 148.5ZM46 136L46.3359 135.503L44.6917 134.392L45.4449 136.228L46 136ZM69 168.5V169.1H70.6084L69.393 168.047L69 168.5ZM54 155.5L53.4449 155.728L53.4991 155.86L53.607 155.953L54 155.5ZM61 168.5V167.9H59.6361L60.5577 168.905L61 168.5ZM66.5 174.5L66.2846 175.06L66.9423 174.095L66.5 174.5ZM47 167L47.2154 166.44L45.8519 165.916L46.4532 167.247L47 167ZM72.5 194.5V195.1H74.5276L72.8265 193.997L72.5 194.5ZM54 182.5L53.4532 182.747L53.5257 182.908L53.6735 183.003L54 182.5ZM66.5 194.5V193.9H64.2806L66.1977 195.018L66.5 194.5ZM72.5 198V198.6H74.7194L72.8023 197.482L72.5 198ZM54 198V197.4H52.7261L53.5374 198.382L54 198ZM79 217.5L79.1693 218.076L80.6052 217.653L79.2752 216.967L79 217.5ZM63.5 209.5L63.0374 209.882L63.1157 209.977L63.2248 210.033L63.5 209.5ZM70.5 220L70.3307 219.424L70.3957 220.591L70.5 220ZM79 221.5L79.1847 222.071L79.1043 220.909L79 221.5ZM62 227L61.8153 226.429L60.7241 226.782L61.6364 227.477L62 227ZM86.5 237L86.6648 236.423L86.6254 236.412L86.5849 236.406L86.5 237ZM72.5 235L72.1364 235.477L72.2606 235.572L72.4151 235.594L72.5 235ZM93.5 239L93.8087 239.514L94.9945 238.803L93.6648 238.423L93.5 239ZM76 249.5L75.6913 248.986L74.891 249.466L75.6601 249.994L76 249.5ZM97.5 253L97.9992 253.333L98.7488 252.208L97.4121 252.406L97.5 253ZM84 255L83.6601 255.494L83.8545 255.628L84.0879 255.594L84 255ZM93.5 259L93.0008 258.667L91.9863 260.189L93.705 259.564L93.5 259ZM104.5 255L104.91 255.438L104.295 254.436L104.5 255ZM88.5 270L88.0896 269.562L86.9827 270.6H88.5V270ZM114.5 265.5L115.028 265.784L115.964 264.046L114.219 264.97L114.5 265.5ZM111 272L110.472 271.716L109.814 272.937L111.155 272.58L111 272ZM118.5 270L118.933 270.415L120.416 268.868L118.345 269.42L118.5 270ZM107 282L106.567 281.585L105.594 282.6H107V282ZM130 275H130.6V274.029L129.732 274.463L130 275ZM116 282V282.6H116.142L116.268 282.537L116 282ZM130 280.5H129.4V281.949L130.424 280.924L130 280.5ZM135.5 275L136.016 275.306L135.076 274.576L135.5 275ZM126 291L125.484 290.694L124.681 292.046L126.181 291.572L126 291ZM152 277.5L152.562 277.709L153.184 276.035L151.678 276.994L152 277.5ZM145.5 295L144.938 294.791L144.508 295.947L145.683 295.571L145.5 295ZM167.5 282H168.1V280.605L167.087 281.564L167.5 282ZM167.5 288H166.9V289.982L167.999 288.333L167.5 288ZM172.5 280.5L173.088 280.622L172.001 280.167L172.5 280.5ZM169.5 295L168.912 294.878L168.912 294.882L169.5 295ZM185 284.5L185.592 284.599L184.49 284.184L185 284.5ZM193 346L193.259 346.541L193.708 346.326L193.58 345.845L193 346ZM169 297.5L168.412 297.382L168.223 298.325L169.153 298.08L169 297.5ZM158 291L158.183 291.571L158.313 291.53L158.413 291.436L158 291ZM135.5 288L135.681 288.572L135.756 288.548L135.822 288.506L135.5 288ZM106 270V270.6H106.149L106.281 270.53L106 270ZM181.5 351.5V352.1H181.636L181.759 352.041L181.5 351.5ZM174 351.5V350.9H172.551L173.576 351.924L174 351.5ZM177 354.5L177.06 355.097L178.32 354.971L177.424 354.076L177 354.5ZM162 356L161.94 355.403L160.304 355.567L161.661 356.495L162 356ZM171.5 362.5L171.822 363.006L172.589 362.518L171.839 362.005L171.5 362.5ZM242.5 354.5L241.931 354.31L241.709 354.976L242.401 355.092L242.5 354.5ZM247 362.5L246.722 361.969L246.031 362.33L246.558 362.905L247 362.5ZM177 368.5L177.377 368.967L178.34 368.189L177.133 367.915L177 368.5ZM164 379L163.623 378.533L162.491 379.447L163.938 379.597L164 379ZM178.5 380.5L178.941 380.907L179.754 380.026L178.562 379.903L178.5 380.5ZM172.5 387L172.059 386.593L170.861 387.892L172.602 387.591L172.5 387ZM187 384.5L187.488 384.849L188.337 383.661L186.898 383.909L187 384.5ZM182 391.5L181.512 391.151L180.418 392.683L182.196 392.067L182 391.5ZM195 387H195.6V386.157L194.804 386.433L195 387ZM195 393.904H194.4V395.214L195.392 394.358L195 393.904ZM203 387H203.6V385.69L202.608 386.546L203 387ZM203 393.904H202.4V394.791L203.223 394.461L203 393.904ZM209 391.5L209.283 390.971L209.036 390.839L208.777 390.943L209 391.5ZM213.5 393.904L213.217 394.433L213.63 394.654L213.944 394.308L213.5 393.904ZM217.5 389.5L217.837 389.003L217.406 388.711L217.056 389.097L217.5 389.5ZM224 393.904L223.663 394.401L224.788 395.163L224.594 393.818L224 393.904ZM222.5 383.5L222.922 383.074L221.651 381.814L221.906 383.586L222.5 383.5ZM233 393.904L232.578 394.33L233.572 393.722L233 393.904ZM189 331L188.404 331.066L188.409 331.111L188.42 331.155L189 331ZM187 313L187.596 312.934L187.593 312.908L187.588 312.882L187 313ZM185 303L184.407 303.094L184.409 303.106L184.412 303.118L185 303ZM230 384.5L230.096 383.908L229.132 383.752L229.428 384.682L230 384.5ZM245.5 387L245.404 387.592L246.795 387.817L245.993 386.658L245.5 387ZM241 380.5V379.9H239.855L240.507 380.842L241 380.5ZM252.5 380.5V381.1H253.805L252.956 380.11L252.5 380.5ZM243.5 370L243.401 369.408L242.352 369.583L243.044 370.39L243.5 370ZM252.5 368.5L252.599 369.092L253.69 368.91L252.942 368.095L252.5 368.5ZM257.5 357L257.778 357.531L259.362 356.702L257.599 356.408L257.5 357ZM227 347.5L226.421 347.343L226.26 347.938L226.859 348.083L227 347.5ZM243.5 351.5L244.069 351.69L244.276 351.071L243.641 350.917L243.5 351.5ZM238.5 292L238.778 291.469L238.112 291.12L237.92 291.846L238.5 292ZM232 329L232.579 329.157L232.592 329.109L232.597 329.06L232 329ZM234 309L233.42 308.846L233.408 308.893L233.403 308.94L234 309ZM249 297.5L248.722 298.031L249.743 298.566L249.595 297.423L249 297.5ZM247 282L247.298 281.479L246.251 280.881L246.405 282.077L247 282ZM270.5 295L270.216 295.528L271.641 296.296L271.06 294.785L270.5 295ZM257.5 288L257.202 288.521L257.209 288.525L257.216 288.528L257.5 288ZM265.5 282L265.768 281.463L264.385 280.772L264.94 282.215L265.5 282ZM270.5 284.5L270.232 285.037L271.348 285.595L271.087 284.374L270.5 284.5ZM269 277.5L269.409 277.061L268.013 275.758L268.413 277.626L269 277.5ZM292.5 291L292.274 291.556L293.924 292.226L293.016 290.694L292.5 291ZM276.5 284.5L276.091 284.939L276.172 285.014L276.274 285.056L276.5 284.5ZM284.5 277.5L284.833 277.001L283.984 277.806L284.5 277.5ZM287.5 274L287.795 273.478L286.609 272.807L286.915 274.135L287.5 274ZM312 282L311.931 282.596L313.529 282.78L312.442 281.595L312 282ZM301 270L300.97 269.401L299.695 269.464L300.558 270.405L301 270ZM299 280.5L298.705 281.022L298.811 281.082L298.931 281.096L299 280.5ZM331 268.5L331.03 269.099L332.808 269.01L331.339 268.005L331 268.5ZM312 255.5L312.153 254.92L311.661 255.995L312 255.5ZM321.5 258L321.347 258.58L322.1 258.778V258H321.5ZM321.5 254V253.4H320.9V254H321.5ZM334.5 254V254.6H334.635L334.757 254.542L334.5 254ZM344 249.5L344.257 250.042L345.3 249.548L344.296 248.978L344 249.5ZM325.5 239L325.599 238.408L325.204 239.522L325.5 239ZM334.5 240.5L334.401 241.092L336.248 241.4L334.924 240.076L334.5 240.5ZM331 237L330.887 236.411L329.776 236.624L330.576 237.424L331 237ZM356 227L356.318 227.509L357.589 226.715L356.121 226.412L356 227ZM344 234.5L344.113 235.089L344.223 235.068L344.318 235.009L344 234.5ZM339 223.5L338.777 222.943L336.922 223.685L338.879 224.088L339 223.5ZM344 221.5L344.223 222.057L344.926 221.776L344.492 221.156L344 221.5ZM340.5 216.5L340.24 215.959L339.604 216.266L340.008 216.844L340.5 216.5ZM354 210L354.26 210.541L354.34 210.502L354.405 210.443L354 210ZM365.5 199.5L365.905 199.943L367.047 198.9H365.5V199.5ZM347.5 199.5L347.249 198.955L347.5 200.1V199.5ZM354 196.5L354.251 197.045L355.675 196.388L354.176 195.927L354 196.5ZM347.5 194.5L347.143 194.018L346.189 194.724L347.324 195.073L347.5 194.5ZM371 168.5L371.509 168.818L372.418 167.363L370.8 167.934L371 168.5ZM361 184.5L361.357 184.982L361.449 184.914L361.509 184.818L361 184.5ZM354 174.5L353.501 174.167L352.502 175.665L354.2 175.066L354 174.5ZM358 168.5L358.499 168.833L359.121 167.9H358V168.5ZM350.5 168.5L350.116 168.039L348.843 169.1H350.5V168.5ZM373.5 135.5L374.059 135.718L374.767 133.904L373.161 135.005L373.5 135.5ZM365.5 156L365.884 156.461L366.003 156.362L366.059 156.218L365.5 156ZM352 143L351.495 142.676L350.313 144.514L352.268 143.537L352 143ZM356 147.5L355.42 147.345L355.003 148.911L356.339 147.995L356 147.5ZM178.5 295L178.653 295.58L178.884 295.519L179.01 295.316L178.5 295ZM183.5 293.5L182.908 293.401L182.892 293.497L182.907 293.594L183.5 293.5ZM230 233L230.333 232.501L230.281 232.466L230.223 232.443L230 233ZM204 234L203.732 233.463L203.675 233.492L203.625 233.531L204 234ZM217.5 230.5V229.9H217.477L217.454 229.902L217.5 230.5ZM221.5 230.5L221.585 229.906L221.543 229.9H221.5V230.5ZM208 232L207.81 231.431L207.77 231.444L207.732 231.463L208 232ZM97.1456 158.898L96.8239 159.405L96.8714 159.435L96.9236 159.456L97.1456 158.898ZM85.5 151.5L85.0862 151.934L85.1287 151.975L85.1783 152.006L85.5 151.5ZM124 169.5L124.371 169.028L124.298 168.971L124.211 168.938L124 169.5ZM128.5 188.5L128.156 188.991L129.843 190.172L129.054 188.27L128.5 188.5ZM118.5 181.5L118.844 181.008L117.14 179.815L117.947 181.733L118.5 181.5ZM122.5 191L121.947 191.233L121.975 191.298L122.017 191.356L122.5 191ZM129.5 200.5L129.209 201.024L129.983 200.144L129.5 200.5ZM116 193L116.291 192.475L115.552 193.399L116 193ZM128.5 207L128.338 207.578L130.314 208.131L128.948 206.6L128.5 207ZM116 203.5L116.162 202.922L115.616 203.961L116 203.5ZM131 216V216.6H132.657L131.384 215.539L131 216ZM118.5 216V215.4L118.256 216.548L118.5 216ZM136.5 224L136.595 224.592L138.592 224.273L136.744 223.451L136.5 224ZM124 226L123.905 225.407L123.829 226.575L124 226ZM142.5 231.5L142.603 232.091L142.671 230.925L142.5 231.5ZM131 233.5L130.897 232.909L130.838 234.077L131 233.5ZM147 238L147.268 238.536L148.656 237.842L147.162 237.422L147 238ZM140 241.5L139.732 240.963L140 242.1V241.5ZM155.5 241.5L155.846 241.99L157.39 240.9H155.5V241.5ZM147 247.5L146.654 247.01L145.11 248.1H147V247.5ZM165.5 247.5L165.924 247.924L166.949 246.9H165.5V247.5ZM160.5 252.5L160.076 252.076L159.052 253.1H160.5V252.5ZM177 252.5L177.546 252.748L177.932 251.9H177V252.5ZM174.5 258L173.954 257.751L173.484 258.786L174.603 258.591L174.5 258ZM131 175L131.563 174.793L131.504 174.633L131.371 174.528L131 175ZM87 173L86.4411 173.218L86.4812 173.321L86.5551 173.403L87 173ZM96.5 183.5L96.1355 183.977L96.9449 183.098L96.5 183.5ZM88 177L88.3645 176.523L87.4706 177.282L88 177ZM92 184.5L91.6481 184.986L92.5294 184.218L92 184.5ZM77.5 174L77.8519 173.514L76.9981 174.329L77.5 174ZM87 188.5L86.4981 188.829L86.5497 188.908L86.623 188.967L87 188.5ZM100 199L99.7772 199.557L100.377 198.533L100 199ZM90 195L90.2228 194.443L89.674 195.504L90 195ZM98.5 200.5L98.3254 201.074L98.826 199.996L98.5 200.5ZM80.4131 195L80.5877 194.426L78.8837 193.908L79.9268 195.351L80.4131 195ZM88 205.5L87.5137 205.851L87.5657 205.923L87.6364 205.977L88 205.5ZM98.5 213.5L98.6349 214.085L99.8802 213.797L98.8636 213.023L98.5 213.5ZM92 215V215.6H92.0683L92.1349 215.585L92 215ZM85.5 215V214.4H83.5966L85.1559 215.492L85.5 215ZM95.5 222L95.1559 222.492L95.2402 222.551L95.3394 222.578L95.5 222ZM104.5 224.5L104.768 225.037L106.163 224.339L104.661 223.922L104.5 224.5ZM99.5 227L99.2317 226.463L99.5 227.6V227ZM106.5 227L106.842 227.493L108.421 226.4H106.5V227ZM100 231.5L100.074 232.095L100.22 232.077L100.342 231.993L100 231.5ZM92 232.5L91.9256 231.905L91.7814 233.059L92 232.5ZM103.5 237L103.281 237.559L103.387 237.6L103.5 237.6L103.5 237ZM116 237L116.441 237.407L117.37 236.4L116 236.4L116 237ZM110 243.5L110.282 244.029L110.372 243.982L110.441 243.907L110 243.5ZM102.5 247.5L102.218 246.971L100.508 247.882L102.434 248.096L102.5 247.5ZM111.5 248.5L111.434 249.096L111.5 249.104L111.566 249.096L111.5 248.5ZM120.5 247.5L121.082 247.646L121.291 246.808L120.434 246.904L120.5 247.5ZM119 253.5L119.309 254.015L119.522 253.887L119.582 253.646L119 253.5ZM111.5 258L111.191 257.486L109.334 258.6H111.5V258ZM120.5 258V258.6H120.554L120.607 258.59L120.5 258ZM131 253.5L131.557 253.723L132.304 251.855L130.656 253.009L131 253.5ZM128 261L128.424 261.424L128.511 261.337L128.557 261.223L128 261ZM124 265L123.576 264.576L122.551 265.6L124 265.6L124 265ZM126 257L126.107 257.591L126.236 257.567L126.344 257.492L126 257ZM132 265L132 265.6L132.206 265.6L132.368 265.474L132 265ZM141 258L141.577 258.165L142.081 256.399L140.632 257.526L141 258ZM139 265L139.492 265.344L139.549 265.262L139.577 265.165L139 265ZM135.5 270L135.008 269.656L134.138 270.9L135.624 270.587L135.5 270ZM145 268L145.124 268.587L145.356 268.539L145.492 268.344L145 268ZM152 258L152.594 257.915L152.379 256.412L151.508 257.656L152 258ZM153 265L153.565 265.202L153.615 265.062L153.594 264.915L153 265ZM150.5 272L149.935 271.798L149.354 273.424L150.818 272.509L150.5 272ZM158.5 267L158.818 267.509L158.876 267.473L158.924 267.424L158.5 267ZM166 259.5H166.6V258.052L165.576 259.076L166 259.5ZM166 267L166.56 267.216L166.6 267.112V267H166ZM163.5 273.5L162.94 273.285L162.327 274.879L163.802 274.018L163.5 273.5ZM169.5 270L169.802 270.518L169.917 270.451L169.993 270.342L169.5 270ZM226.023 271.207L226.097 270.611L226.03 270.603L225.963 270.61L226.023 271.207ZM235.5 282L236.096 281.926L236.086 281.849L236.057 281.777L235.5 282ZM234.5 279.5L233.933 279.695L233.938 279.709L233.943 279.723L234.5 279.5ZM233.023 275.207L233.59 275.012L233.553 274.903L233.478 274.817L233.023 275.207ZM243.5 259.5L244.09 259.611L244.1 259.556V259.5H243.5ZM242 267.5L241.41 267.389L241.405 267.417L241.403 267.445L242 267.5ZM241.523 272.707L242.112 272.821L242.117 272.791L242.12 272.762L241.523 272.707ZM240.5 278L241.048 278.244L241.076 278.181L241.089 278.114L240.5 278ZM240 240L240.523 239.706L240.504 239.672L240.48 239.64L240 240ZM241.523 242.707L242.096 242.53L242.077 242.469L242.046 242.413L241.523 242.707ZM243 247.5L243.599 247.457L243.594 247.389L243.573 247.323L243 247.5ZM243.5 254.5H244.1V254.479L244.099 254.457L243.5 254.5ZM236.023 286.207L235.427 286.281L235.626 287.88L236.521 286.54L236.023 286.207ZM230.023 271.707L230.478 271.317L230.327 271.14L230.097 271.112L230.023 271.707ZM238.5 282.5L238.999 282.833L239.028 282.791L239.048 282.744L238.5 282.5ZM200 310.5L200.588 310.618L200.887 309.126L199.65 310.012L200 310.5ZM199 315.5L198.412 315.382L198.068 317.102L199.393 315.953L199 315.5ZM206.5 309H207.1V307.686L206.107 308.547L206.5 309ZM206.5 314H205.9V315.448L206.924 314.424L206.5 314ZM211 309.5L211.499 309.167L211.093 308.558L210.576 309.076L211 309.5ZM213 312.5L212.501 312.833L213 313.582L213.499 312.833L213 312.5ZM216 308L216.424 307.576L215.907 307.058L215.501 307.667L216 308ZM219 311L218.576 311.424L219.491 312.339L219.598 311.05L219 311ZM219.5 305L219.891 304.544L219 303.781L218.902 304.95L219.5 305ZM223 308L222.61 308.456L223.746 309.43L223.597 307.94L223 308ZM222.5 303L222.744 302.452L221.8 302.032L221.903 303.06L222.5 303ZM227 305L226.756 305.548L228.548 306.344L227.509 304.682L227 305ZM224.5 301L224.711 300.438L223.053 299.816L223.991 301.318L224.5 301ZM228.5 302.5L228.289 303.062L230.212 303.783L228.98 302.14L228.5 302.5ZM225.5 298.5L225.574 297.905L224.172 297.729L225.02 298.86L225.5 298.5ZM229.5 299L229.426 299.595L231.668 299.876L229.86 298.52L229.5 299ZM225.5 296L225.312 295.43L224.221 295.791L225.14 296.48L225.5 296ZM229.5 294.677L229.688 295.246L231.614 294.609L229.652 294.096L229.5 294.677ZM228 256.5V255.9H227.205L227.423 256.665L228 256.5ZM230 256.5L230.395 256.048L230.225 255.9H230V256.5ZM230 262L229.463 262.268L229.488 262.317L229.52 262.36L230 262ZM229 260L228.423 260.165L228.438 260.218L228.463 260.268L229 260ZM235.5 264V264.6H236.366L236.062 263.789L235.5 264ZM231.5 264L231.02 264.36L231.2 264.6H231.5V264ZM234 260L234.562 259.789L234.509 259.648L234.395 259.548L234 260ZM249.5 251.001L249.324 251.575L250.438 251.918L250.069 250.812L249.5 251.001ZM248 246.502L248.211 245.94L247.033 245.498L247.431 246.691L248 246.502ZM260 251.001L259.789 251.563L261.368 252.155L260.518 250.699L260 251.001ZM256.5 245.002L256.676 244.428L255.207 243.976L255.982 245.304L256.5 245.002ZM269.5 249.001L269.324 249.575L269.924 248.577L269.5 249.001ZM264 243.502L264.078 242.907L262.328 242.679L263.576 243.926L264 243.502ZM275.5 245.002L275.422 245.597L276.998 245.802L275.952 244.607L275.5 245.002ZM272 241.002V240.402H270.678L271.548 241.397L272 241.002ZM282.5 241.002V241.602H284.372L282.849 240.513L282.5 241.002ZM275.5 236.002L275.418 235.407L273.924 235.613L275.151 236.49L275.5 236.002ZM290 234.002L290.082 234.596L292.327 234.286L290.223 233.444L290 234.002ZM282.5 231.001L282.349 230.421L280.584 230.881L282.277 231.559L282.5 231.001ZM294 228.001L294.151 228.582L295.846 228.14L294.236 227.45L294 228.001ZM287 225.001L286.667 224.502L285.746 225.116L286.764 225.553L287 225.001ZM297.5 218.001L297.833 218.5L297.401 217.409L297.5 218.001ZM288.5 219.5L288.095 219.057L286.597 220.426L288.599 220.092L288.5 219.5ZM300 209L300.405 209.443L302.05 207.94L299.873 208.414L300 209ZM288.5 211.5L288.039 211.116L286.921 212.457L288.627 212.086L288.5 211.5ZM298.5 199.502L298.961 199.886L298.232 198.965L298.5 199.502ZM288.5 204.5L287.983 204.195L286.948 205.946L288.768 205.037L288.5 204.5ZM259.5 271.002L259.136 271.479L260.201 272.29L260.098 270.955L259.5 271.002ZM258.5 258.002L258.952 257.607L257.763 256.249L257.902 258.048L258.5 258.002ZM265.5 266.002L265.048 266.397L265.169 266.535L265.347 266.582L265.5 266.002ZM275 268.502L274.847 269.082L276.44 269.501L275.49 268.156L275 268.502ZM269 260.002L269.318 259.493L268.51 260.348L269 260.002ZM273 262.502L272.682 263.011L274.239 263.984L273.557 262.279L273 262.502ZM270 255.002L270.41 254.564L269.443 255.224L270 255.002ZM278 262.502L277.59 262.94L277.658 263.004L277.743 263.044L278 262.502ZM287.5 267.002L287.243 267.544L288.932 268.344L288.024 266.71L287.5 267.002ZM282.5 258.002L282.665 257.425L281.272 257.027L281.975 258.293L282.5 258.002ZM286 259.002L285.835 259.578L287.643 260.095L286.468 258.627L286 259.002ZM282 254.002L282.304 253.484L281.531 254.376L282 254.002ZM290.5 259.002L290.196 259.519L290.267 259.561L290.347 259.582L290.5 259.002ZM300 261.502L299.847 262.082L301.768 262.587L300.448 261.103L300 261.502ZM292 252.502L292.291 251.977L291.552 252.9L292 252.502ZM296.5 255.002L296.209 255.526L297.799 256.41L297.046 254.753L296.5 255.002ZM294.682 251.002L294.738 250.404L293.707 250.306L294.136 251.25L294.682 251.002ZM310.5 252.502L310.443 253.099L312.294 253.274L310.895 252.05L310.5 252.502ZM298.5 242.002L298.798 241.481L298.105 242.453L298.5 242.002ZM305.5 246.002L305.202 246.523L306.006 245.679L305.5 246.002ZM302 240.502L302.268 239.965L300.331 238.996L301.494 240.824L302 240.502ZM311 243.002L310.94 243.599L311.044 243.609L311.145 243.584L311 243.002ZM321 240.502L321.145 241.084L322.686 240.698L321.276 239.969L321 240.502ZM306 242.502L305.732 243.038L305.83 243.088L305.94 243.099L306 242.502ZM306.5 233.001L306.342 232.422L304.858 232.827L306.224 233.534L306.5 233.001ZM317.5 230.001L317.658 230.58L317.71 230.566L317.758 230.543L317.5 230.001ZM328 225.001L328.258 225.543L329.786 224.815L328.141 224.418L328 225.001ZM313.5 221.501L313.463 220.902L313.359 222.084L313.5 221.501ZM321.5 221.001L321.537 221.6L323.163 221.498L321.86 220.521L321.5 221.001ZM317.5 218.001L317.264 217.449L316.31 217.858L317.14 218.481L317.5 218.001ZM328 213.5L328.236 214.052L328.352 214.002L328.439 213.91L328 213.5ZM335 206.001L335.439 206.41L336.644 205.118L334.901 205.409L335 206.001ZM323 208.001L322.777 207.443L323.099 208.592L323 208.001ZM328 206L328.223 206.558L330.001 205.846L328.135 205.416L328 206ZM321.5 204.501L321.132 204.027L320.136 204.802L321.365 205.085L321.5 204.501ZM330.5 197.501L330.868 197.974L330.935 197.922L330.985 197.854L330.5 197.501ZM338.5 186.501L338.985 186.854L338.24 185.96L338.5 186.501ZM326 192.5L325.508 192.156L324.195 194.032L326.26 193.041L326 192.5ZM329.5 187.5L329.992 187.844L329.196 186.983L329.5 187.5ZM321 192.5L320.557 192.096L321.304 193.018L321 192.5ZM331.5 181L331.943 181.405L331.999 181.343L332.037 181.268L331.5 181ZM338.5 167L339.037 167.268L338.088 166.564L338.5 167ZM329.5 175.5H328.9V176.892L329.912 175.936L329.5 175.5ZM329.5 170H330.1V168.678L329.105 169.549L329.5 170ZM321.5 177L320.995 176.677L321.895 177.452L321.5 177ZM329.5 164.5L330.005 164.823L330.035 164.777L330.056 164.726L329.5 164.5ZM335 151L335.556 151.226L336.415 149.116L334.628 150.529L335 151ZM313.5 168L313.792 168.524L313.834 168.5L313.872 168.471L313.5 168ZM292 180L291.708 179.476L291.475 179.606L291.415 179.865L292 180ZM191 357L191.268 357.536L193.144 356.598L191.056 356.402L191 357ZM186 359.5L185.732 358.963L186.145 360.082L186 359.5ZM192 357.999L192.401 358.445L191.854 357.417L192 357.999ZM187 362.5L186.599 362.054L185.31 363.213L187.04 363.098L187 362.5ZM194.5 362L194.844 362.491L196.606 361.258L194.46 361.401L194.5 362ZM189.5 365.5L189.156 365.008L187.596 366.1H189.5V365.5ZM197 365.5L197.461 365.884L198.281 364.9H197V365.5ZM194.5 368.5L194.039 368.116L193.219 369.1H194.5V368.5ZM202 368.5L202.521 368.798L203.034 367.9H202V368.5ZM200 372L199.479 371.702L198.7 373.066L200.19 372.569L200 372ZM206 370L206.569 370.19L206.949 369.051L205.81 369.431L206 370ZM204.5 374.5L203.931 374.31L203.378 375.969L204.833 374.999L204.5 374.5ZM209 371.5H209.6V370.379L208.667 371.001L209 371.5ZM209 376H208.4V377.578L209.448 376.398L209 376ZM213 371.5L213.586 371.37L213.331 370.224L212.551 371.101L213 371.5ZM214 376L213.414 376.13L213.719 377.503L214.499 376.333L214 376ZM217 371.5L217.569 371.31L217.181 370.146L216.501 371.167L217 371.5ZM218.5 376L217.931 376.19L218.523 377.966L219.073 376.176L218.5 376ZM220.5 369.5L221.021 369.202L220.334 368L219.926 369.324L220.5 369.5ZM222.5 373L221.979 373.298L222.584 374.357L223.054 373.231L222.5 373ZM225 367L225.569 366.81L225.062 365.29L224.446 366.769L225 367ZM226.5 371.5L225.931 371.69L227.092 371.598L226.5 371.5ZM75 128L74.566 128.414L74.6824 128.536L74.8454 128.58L75 128ZM368.417 107.359L364.917 121.859L366.083 122.141L369.583 107.641L368.417 107.359ZM331.856 142.483L350.856 128.483L350.144 127.517L331.144 141.517L331.856 142.483ZM350.945 128.402L369.445 107.902L368.555 107.098L350.055 127.598L350.945 128.402ZM311.38 152.964L336.38 132.464L335.62 131.536L310.62 152.036L311.38 152.964ZM335.453 131.754L330.953 141.754L332.047 142.246L336.547 132.246L335.453 131.754ZM286.323 169.005L311.323 153.005L310.677 151.995L285.677 167.995L286.323 169.005ZM291.479 157.702L285.479 168.202L286.521 168.798L292.521 158.298L291.479 157.702ZM279.377 168.967L292.377 158.467L291.623 157.533L278.623 168.033L279.377 168.967ZM274.6 208V179.5H273.4V208H274.6ZM274.546 179.748L279.546 168.748L278.454 168.252L273.454 179.252L274.546 179.748ZM233.146 235.582L255.146 230.082L254.854 228.918L232.854 234.418L233.146 235.582ZM255.333 229.999L267.333 221.999L266.667 221.001L254.667 229.001L255.333 229.999ZM267.533 221.776L274.533 208.276L273.467 207.724L266.467 221.224L267.533 221.776ZM196.424 241.924L201.924 236.424L201.076 235.576L195.576 241.076L196.424 241.924ZM181.676 233.005L195.676 242.005L196.324 240.995L182.324 231.995L181.676 233.005ZM162.409 230.093L181.909 233.093L182.091 231.907L162.591 228.907L162.409 230.093ZM145.082 213.431L162.082 229.931L162.918 229.069L145.918 212.569L145.082 213.431ZM144.9 179.5V213H146.1V179.5H144.9ZM142.406 161.583L144.906 179.583L146.094 179.417L143.594 161.417L142.406 161.583ZM131.566 150.415L142.566 161.915L143.434 161.085L132.434 149.585L131.566 150.415ZM132.1 163.522L132.6 150.022L131.4 149.978L130.9 163.478L132.1 163.522ZM84.0614 124.909L105.061 147.409L105.939 146.591L84.9386 124.091L84.0614 124.909ZM105.179 147.507L131.179 164.007L131.821 162.993L105.821 146.493L105.179 147.507ZM83.0639 130.205L85.0639 124.705L83.9361 124.295L81.9361 129.795L83.0639 130.205ZM47.6118 103.458L64.1118 117.458L64.8882 116.542L48.3882 102.542L47.6118 103.458ZM64.98 141.64L54.48 127.64L53.52 128.36L64.02 142.36L64.98 141.64ZM54.5834 127.86L48.5834 102.86L47.4166 103.14L53.4166 128.14L54.5834 127.86ZM58.5 142.6H64.5V141.4H58.5V142.6ZM64.9409 148.093L58.9409 141.593L58.0591 142.407L64.0591 148.907L64.9409 148.093ZM45.6641 136.497L64.1641 148.997L64.8359 148.003L46.3359 135.503L45.6641 136.497ZM69.393 168.047L54.393 155.047L53.607 155.953L68.607 168.953L69.393 168.047ZM54.5551 155.272L46.5551 135.772L45.4449 136.228L53.4449 155.728L54.5551 155.272ZM61 169.1H69V167.9H61V169.1ZM66.9423 174.095L61.4423 168.095L60.5577 168.905L66.0577 174.905L66.9423 174.095ZM46.7846 167.56L66.2846 175.06L66.7154 173.94L47.2154 166.44L46.7846 167.56ZM72.8265 193.997L54.3265 181.997L53.6735 183.003L72.1735 195.003L72.8265 193.997ZM54.5468 182.253L47.5468 166.753L46.4532 167.247L53.4532 182.747L54.5468 182.253ZM66.5 195.1H72.5V193.9H66.5V195.1ZM72.8023 197.482L66.8023 193.982L66.1977 195.018L72.1977 198.518L72.8023 197.482ZM54 198.6H72.5V197.4H54V198.6ZM79.2752 216.967L63.7752 208.967L63.2248 210.033L78.7248 218.033L79.2752 216.967ZM63.9626 209.118L54.4626 197.618L53.5374 198.382L63.0374 209.882L63.9626 209.118ZM70.6693 220.576L79.1693 218.076L78.8307 216.924L70.3307 219.424L70.6693 220.576ZM79.1043 220.909L70.6043 219.409L70.3957 220.591L78.8957 222.091L79.1043 220.909ZM62.1847 227.571L79.1847 222.071L78.8153 220.929L61.8153 226.429L62.1847 227.571ZM86.5849 236.406L72.5849 234.406L72.4151 235.594L86.4151 237.594L86.5849 236.406ZM72.8636 234.523L62.3636 226.523L61.6364 227.477L72.1364 235.477L72.8636 234.523ZM93.6648 238.423L86.6648 236.423L86.3352 237.577L93.3352 239.577L93.6648 238.423ZM76.3087 250.014L93.8087 239.514L93.1913 238.486L75.6913 248.986L76.3087 250.014ZM97.4121 252.406L83.9121 254.406L84.0879 255.594L97.5879 253.594L97.4121 252.406ZM84.3399 254.506L76.3399 249.006L75.6601 249.994L83.6601 255.494L84.3399 254.506ZM93.9992 259.333L97.9992 253.333L97.0008 252.667L93.0008 258.667L93.9992 259.333ZM104.295 254.436L93.295 258.436L93.705 259.564L104.705 255.564L104.295 254.436ZM88.9104 270.438L104.91 255.438L104.09 254.562L88.0896 269.562L88.9104 270.438ZM111.528 272.284L115.028 265.784L113.972 265.216L110.472 271.716L111.528 272.284ZM118.345 269.42L110.845 271.42L111.155 272.58L118.655 270.58L118.345 269.42ZM107.433 282.415L118.933 270.415L118.067 269.585L106.567 281.585L107.433 282.415ZM129.732 274.463L115.732 281.463L116.268 282.537L130.268 275.537L129.732 274.463ZM116 281.4H107V282.6H116V281.4ZM130.6 280.5V275H129.4V280.5H130.6ZM135.076 274.576L129.576 280.076L130.424 280.924L135.924 275.424L135.076 274.576ZM126.516 291.306L136.016 275.306L134.984 274.694L125.484 290.694L126.516 291.306ZM146.062 295.209L152.562 277.709L151.438 277.291L144.938 294.791L146.062 295.209ZM168.1 288V282H166.9V288H168.1ZM172.001 280.167L167.001 287.667L167.999 288.333L172.999 280.833L172.001 280.167ZM170.088 295.122L173.088 280.622L171.912 280.378L168.912 294.878L170.088 295.122ZM169.588 297.618L170.088 295.118L168.912 294.882L168.412 297.382L169.588 297.618ZM167.087 281.564L157.587 290.564L158.413 291.436L167.913 282.436L167.087 281.564ZM157.817 290.429L145.317 294.429L145.683 295.571L158.183 291.571L157.817 290.429ZM151.678 276.994L135.178 287.494L135.822 288.506L152.322 278.006L151.678 276.994ZM135.319 287.428L125.819 290.428L126.181 291.572L135.681 288.572L135.319 287.428ZM114.219 264.97L105.719 269.47L106.281 270.53L114.781 266.03L114.219 264.97ZM181.759 352.041L193.259 346.541L192.741 345.459L181.241 350.959L181.759 352.041ZM174 352.1H181.5V350.9H174V352.1ZM177.424 354.076L174.424 351.076L173.576 351.924L176.576 354.924L177.424 354.076ZM162.06 356.597L177.06 355.097L176.94 353.903L161.94 355.403L162.06 356.597ZM166.322 366.506L171.822 363.006L171.178 361.994L165.678 365.494L166.322 366.506ZM171.839 362.005L162.339 355.505L161.661 356.495L171.161 362.995L171.839 362.005ZM177.133 367.915L166.133 365.415L165.867 366.585L176.867 369.085L177.133 367.915ZM164.377 379.467L177.377 368.967L176.623 368.033L163.623 378.533L164.377 379.467ZM178.562 379.903L164.062 378.403L163.938 379.597L178.438 381.097L178.562 379.903ZM172.941 387.407L178.941 380.907L178.059 380.093L172.059 386.593L172.941 387.407ZM186.898 383.909L172.398 386.409L172.602 387.591L187.102 385.091L186.898 383.909ZM182.488 391.849L187.488 384.849L186.512 384.151L181.512 391.151L182.488 391.849ZM194.804 386.433L181.804 390.933L182.196 392.067L195.196 387.567L194.804 386.433ZM195.6 393.904V387H194.4V393.904H195.6ZM202.608 386.546L194.608 393.45L195.392 394.358L203.392 387.454L202.608 386.546ZM203.6 393.904V387H202.4V393.904H203.6ZM208.777 390.943L202.777 393.347L203.223 394.461L209.223 392.057L208.777 390.943ZM213.783 393.375L209.283 390.971L208.717 392.029L213.217 394.433L213.783 393.375ZM217.056 389.097L213.056 393.501L213.944 394.308L217.944 389.903L217.056 389.097ZM224.337 393.407L217.837 389.003L217.163 389.997L223.663 394.401L224.337 393.407ZM221.906 383.586L223.406 393.99L224.594 393.818L223.094 383.414L221.906 383.586ZM233.422 393.478L222.922 383.074L222.078 383.926L232.578 394.33L233.422 393.478ZM193.58 345.845L189.58 330.845L188.42 331.155L192.42 346.155L193.58 345.845ZM189.596 330.934L187.596 312.934L186.404 313.066L188.404 331.066L189.596 330.934ZM187.588 312.882L185.588 302.882L184.412 303.118L186.412 313.118L187.588 312.882ZM229.428 384.682L232.428 394.086L233.572 393.722L230.572 384.318L229.428 384.682ZM245.596 386.408L230.096 383.908L229.904 385.092L245.404 387.592L245.596 386.408ZM240.507 380.842L245.007 387.342L245.993 386.658L241.493 380.158L240.507 380.842ZM252.5 379.9H241V381.1H252.5V379.9ZM243.044 370.39L252.044 380.89L252.956 380.11L243.956 369.61L243.044 370.39ZM246.558 362.905L252.058 368.905L252.942 368.095L247.442 362.095L246.558 362.905ZM252.401 367.908L243.401 369.408L243.599 370.592L252.599 369.092L252.401 367.908ZM242.401 355.092L257.401 357.592L257.599 356.408L242.599 353.908L242.401 355.092ZM257.222 356.469L246.722 361.969L247.278 363.031L257.778 357.531L257.222 356.469ZM226.859 348.083L243.359 352.083L243.641 350.917L227.141 346.917L226.859 348.083ZM242.931 351.31L241.931 354.31L243.069 354.69L244.069 351.69L242.931 351.31ZM231.421 328.843L226.421 347.343L227.579 347.657L232.579 329.157L231.421 328.843ZM237.92 291.846L233.42 308.846L234.58 309.154L239.08 292.154L237.92 291.846ZM233.403 308.94L231.403 328.94L232.597 329.06L234.597 309.06L233.403 308.94ZM249.278 296.969L238.778 291.469L238.222 292.531L248.722 298.031L249.278 296.969ZM246.405 282.077L248.405 297.577L249.595 297.423L247.595 281.923L246.405 282.077ZM270.784 294.472L257.784 287.472L257.216 288.528L270.216 295.528L270.784 294.472ZM257.798 287.479L247.298 281.479L246.702 282.521L257.202 288.521L257.798 287.479ZM264.94 282.215L269.94 295.215L271.06 294.785L266.06 281.785L264.94 282.215ZM270.768 283.963L265.768 281.463L265.232 282.537L270.232 285.037L270.768 283.963ZM268.413 277.626L269.913 284.626L271.087 284.374L269.587 277.374L268.413 277.626ZM292.726 290.444L276.726 283.944L276.274 285.056L292.274 291.556L292.726 290.444ZM276.909 284.061L269.409 277.061L268.591 277.939L276.091 284.939L276.909 284.061ZM289.333 280.001L284.833 277.001L284.167 277.999L288.667 280.999L289.333 280.001ZM283.984 277.806L291.984 291.306L293.016 290.694L285.016 277.194L283.984 277.806ZM286.915 274.135L288.415 280.635L289.585 280.365L288.085 273.865L286.915 274.135ZM300.558 270.405L311.558 282.405L312.442 281.595L301.442 269.595L300.558 270.405ZM312.069 281.404L299.069 279.904L298.931 281.096L311.931 282.596L312.069 281.404ZM299.295 279.978L287.795 273.478L287.205 274.522L298.705 281.022L299.295 279.978ZM330.97 267.901L300.97 269.401L301.03 270.599L331.03 269.099L330.97 267.901ZM311.661 255.995L330.661 268.995L331.339 268.005L312.339 255.005L311.661 255.995ZM321.653 257.42L312.153 254.92L311.847 256.08L321.347 258.58L321.653 257.42ZM320.9 254V258H322.1V254H320.9ZM334.5 253.4H321.5V254.6H334.5V253.4ZM343.743 248.958L334.243 253.458L334.757 254.542L344.257 250.042L343.743 248.958ZM325.204 239.522L343.704 250.022L344.296 248.978L325.796 238.478L325.204 239.522ZM334.599 239.908L325.599 238.408L325.401 239.592L334.401 241.092L334.599 239.908ZM330.576 237.424L334.076 240.924L334.924 240.076L331.424 236.576L330.576 237.424ZM355.682 226.491L343.682 233.991L344.318 235.009L356.318 227.509L355.682 226.491ZM343.887 233.911L330.887 236.411L331.113 237.589L344.113 235.089L343.887 233.911ZM338.879 224.088L355.879 227.588L356.121 226.412L339.121 222.912L338.879 224.088ZM343.777 220.943L338.777 222.943L339.223 224.057L344.223 222.057L343.777 220.943ZM340.008 216.844L343.508 221.844L344.492 221.156L340.992 216.156L340.008 216.844ZM353.74 209.459L340.24 215.959L340.76 217.041L354.26 210.541L353.74 209.459ZM365.095 199.057L353.595 209.557L354.405 210.443L365.905 199.943L365.095 199.057ZM347.5 200.1H365.5V198.9H347.5V200.1ZM353.749 195.955L347.249 198.955L347.751 200.045L354.251 197.045L353.749 195.955ZM347.324 195.073L353.824 197.073L354.176 195.927L347.676 193.927L347.324 195.073ZM370.491 168.182L360.491 184.182L361.509 184.818L371.509 168.818L370.491 168.182ZM360.643 184.018L347.143 194.018L347.857 194.982L361.357 184.982L360.643 184.018ZM354.2 175.066L371.2 169.066L370.8 167.934L353.8 173.934L354.2 175.066ZM357.501 168.167L353.501 174.167L354.499 174.833L358.499 168.833L357.501 168.167ZM350.5 169.1H358V167.9H350.5V169.1ZM372.941 135.282L364.941 155.782L366.059 156.218L374.059 135.718L372.941 135.282ZM365.116 155.539L350.116 168.039L350.884 168.961L365.884 156.461L365.116 155.539ZM364.995 121.676L351.495 142.676L352.505 143.324L366.005 122.324L364.995 121.676ZM352.268 143.537L358.268 140.537L357.732 139.463L351.732 142.463L352.268 143.537ZM357.42 139.845L355.42 147.345L356.58 147.655L358.58 140.155L357.42 139.845ZM356.339 147.995L373.839 135.995L373.161 135.005L355.661 147.005L356.339 147.995ZM184.49 284.184L177.99 294.684L179.01 295.316L185.51 284.816L184.49 284.184ZM178.347 294.42L168.847 296.92L169.153 298.08L178.653 295.58L178.347 294.42ZM185.593 302.906L184.093 293.406L182.907 293.594L184.407 303.094L185.593 302.906ZM184.092 293.599L185.592 284.599L184.408 284.401L182.908 293.401L184.092 293.599ZM229.667 233.499L232.667 235.499L233.333 234.501L230.333 232.501L229.667 233.499ZM201.875 236.469L204.375 234.469L203.625 233.531L201.125 235.531L201.875 236.469ZM211.046 231.598L217.546 231.098L217.454 229.902L210.954 230.402L211.046 231.598ZM217.5 231.1H221.5V229.9H217.5V231.1ZM221.415 231.094L224.915 231.594L225.085 230.406L221.585 229.906L221.415 231.094ZM204.268 234.537L208.268 232.537L207.732 231.463L203.732 233.463L204.268 234.537ZM208.19 232.569L211.19 231.569L210.81 230.431L207.81 231.431L208.19 232.569ZM96.9236 159.456L119.778 168.557L120.222 167.443L97.3676 158.341L96.9236 159.456ZM74.5862 141.934L85.0862 151.934L85.9138 151.066L75.4138 141.066L74.5862 141.934ZM85.1783 152.006L96.8239 159.405L97.4674 158.392L85.8217 150.994L85.1783 152.006ZM124.211 168.938L120.211 167.438L119.789 168.562L123.789 170.062L124.211 168.938ZM119.446 168.23L127.946 188.73L129.054 188.27L120.554 167.77L119.446 168.23ZM128.844 188.008L118.844 181.008L118.156 181.991L128.156 188.991L128.844 188.008ZM117.947 181.733L121.947 191.233L123.053 190.767L119.053 181.267L117.947 181.733ZM122.017 191.356L129.017 200.856L129.983 200.144L122.983 190.644L122.017 191.356ZM129.791 199.975L116.291 192.475L115.709 193.524L129.209 201.024L129.791 199.975ZM115.552 193.399L128.052 207.399L128.948 206.6L116.448 192.6L115.552 193.399ZM128.662 206.422L116.162 202.922L115.838 204.078L128.338 207.578L128.662 206.422ZM115.616 203.961L130.616 216.461L131.384 215.539L116.384 203.039L115.616 203.961ZM131 215.4H118.5V216.6H131V215.4ZM118.256 216.548L136.256 224.548L136.744 223.451L118.744 215.451L118.256 216.548ZM136.405 223.407L123.905 225.407L124.095 226.592L136.595 224.592L136.405 223.407ZM123.829 226.575L142.329 232.075L142.671 230.925L124.171 225.425L123.829 226.575ZM142.397 230.909L130.897 232.909L131.103 234.091L142.603 232.091L142.397 230.909ZM130.838 234.077L146.838 238.577L147.162 237.422L131.163 232.922L130.838 234.077ZM146.732 237.463L139.732 240.963L140.268 242.036L147.268 238.536L146.732 237.463ZM140 242.1H155.5V240.9H140V242.1ZM155.154 241.01L146.654 247.01L147.346 247.99L155.846 241.99L155.154 241.01ZM147 248.1H165.5V246.9H147V248.1ZM165.076 247.076L160.076 252.076L160.924 252.924L165.924 247.924L165.076 247.076ZM160.5 253.1H177V251.9H160.5V253.1ZM176.454 252.251L173.954 257.751L175.046 258.248L177.546 252.748L176.454 252.251ZM174.603 258.591L186.103 256.591L185.897 255.409L174.397 257.409L174.603 258.591ZM135.063 184.293L131.563 174.793L130.437 175.207L133.937 184.707L135.063 184.293ZM131.371 174.528L124.371 169.028L123.629 169.971L130.629 175.472L131.371 174.528ZM73.9411 141.218L86.4411 173.218L87.5589 172.782L75.0588 140.782L73.9411 141.218ZM86.5551 173.403L96.0551 183.903L96.9449 183.098L87.4449 172.598L86.5551 173.403ZM96.8645 183.023L88.3645 176.523L87.6355 177.477L96.1355 183.977L96.8645 183.023ZM87.4706 177.282L91.4706 184.782L92.5294 184.218L88.5294 176.718L87.4706 177.282ZM92.3519 184.014L77.8519 173.514L77.1481 174.486L91.6481 184.986L92.3519 184.014ZM76.9981 174.329L86.4981 188.829L87.5019 188.171L78.0019 173.671L76.9981 174.329ZM86.623 188.967L99.623 199.467L100.377 198.533L87.377 188.033L86.623 188.967ZM100.223 198.443L90.2228 194.443L89.7772 195.557L99.7772 199.557L100.223 198.443ZM89.674 195.504L98.1741 201.004L98.826 199.996L90.326 194.496L89.674 195.504ZM98.6746 199.926L80.5877 194.426L80.2386 195.574L98.3254 201.074L98.6746 199.926ZM79.9268 195.351L87.5137 205.851L88.4863 205.149L80.8995 194.649L79.9268 195.351ZM87.6364 205.977L98.1364 213.977L98.8636 213.023L88.3636 205.023L87.6364 205.977ZM98.3651 212.915L91.8651 214.415L92.1349 215.585L98.6349 214.085L98.3651 212.915ZM92 214.4H85.5V215.6H92V214.4ZM85.1559 215.492L95.1559 222.492L95.8441 221.509L85.8441 214.509L85.1559 215.492ZM95.3394 222.578L104.339 225.078L104.661 223.922L95.6606 221.422L95.3394 222.578ZM104.232 223.963L99.2317 226.463L99.7683 227.537L104.768 225.037L104.232 223.963ZM99.5 227.6H106.5V226.4H99.5V227.6ZM106.158 226.507L99.6585 231.007L100.342 231.993L106.842 227.493L106.158 226.507ZM99.9256 230.905L91.9256 231.905L92.0744 233.095L100.074 232.095L99.9256 230.905ZM91.7814 233.059L103.281 237.559L103.719 236.441L92.2186 231.941L91.7814 233.059ZM103.5 237.6L116 237.6L116 236.4L103.5 236.4L103.5 237.6ZM115.559 236.593L109.559 243.093L110.441 243.907L116.441 237.407L115.559 236.593ZM109.718 242.971L102.218 246.971L102.782 248.029L110.282 244.029L109.718 242.971ZM102.434 248.096L111.434 249.096L111.566 247.904L102.566 246.904L102.434 248.096ZM111.566 249.096L120.566 248.096L120.434 246.904L111.434 247.904L111.566 249.096ZM119.918 247.355L118.418 253.355L119.582 253.646L121.082 247.646L119.918 247.355ZM118.691 252.986L111.191 257.486L111.809 258.515L119.309 254.015L118.691 252.986ZM111.5 258.6H120.5V257.4H111.5V258.6ZM130.443 253.277L127.443 260.777L128.557 261.223L131.557 253.723L130.443 253.277ZM127.576 260.576L123.576 264.576L124.424 265.424L128.424 261.424L127.576 260.576ZM120.607 258.59L126.107 257.591L125.893 256.41L120.393 257.41L120.607 258.59ZM126.344 257.492L131.344 253.992L130.656 253.009L125.656 256.509L126.344 257.492ZM124 265.6L132 265.6L132 264.4L124 264.4L124 265.6ZM132.368 265.474L141.368 258.474L140.632 257.526L131.632 264.527L132.368 265.474ZM140.423 257.835L138.423 264.835L139.577 265.165L141.577 258.165L140.423 257.835ZM138.508 264.656L135.008 269.656L135.992 270.344L139.492 265.344L138.508 264.656ZM135.624 270.587L145.124 268.587L144.876 267.413L135.376 269.413L135.624 270.587ZM145.492 268.344L152.492 258.344L151.508 257.656L144.508 267.656L145.492 268.344ZM151.406 258.085L152.406 265.085L153.594 264.915L152.594 257.915L151.406 258.085ZM152.435 264.798L149.935 271.798L151.065 272.202L153.565 265.202L152.435 264.798ZM150.818 272.509L158.818 267.509L158.182 266.491L150.182 271.491L150.818 272.509ZM158.924 267.424L166.424 259.924L165.576 259.076L158.076 266.576L158.924 267.424ZM165.4 259.5V267H166.6V259.5H165.4ZM165.44 266.785L162.94 273.285L164.06 273.716L166.56 267.216L165.44 266.785ZM163.802 274.018L169.802 270.518L169.198 269.482L163.198 272.982L163.802 274.018ZM169.993 270.342L174.493 263.842L173.507 263.158L169.007 269.659L169.993 270.342ZM225.963 270.61L220.963 271.11L221.082 272.304L226.082 271.804L225.963 270.61ZM236.057 281.777L235.057 279.277L233.943 279.723L234.943 282.223L236.057 281.777ZM235.067 279.305L233.59 275.012L232.455 275.402L233.933 279.695L235.067 279.305ZM242.91 259.389L241.41 267.389L242.59 267.611L244.09 259.611L242.91 259.389ZM241.403 267.445L240.925 272.652L242.12 272.762L242.598 267.555L241.403 267.445ZM240.933 272.593L239.911 277.886L241.089 278.114L242.112 272.821L240.933 272.593ZM233.232 236.037C235.696 237.269 237.283 238.37 238.247 239.153C238.728 239.545 239.054 239.856 239.256 240.065C239.357 240.17 239.427 240.248 239.469 240.298C239.491 240.323 239.505 240.341 239.514 240.352C239.518 240.357 239.52 240.36 239.521 240.362C239.522 240.362 239.522 240.363 239.522 240.362C239.522 240.362 239.522 240.362 239.521 240.362C239.521 240.361 239.521 240.361 239.521 240.361C239.521 240.361 239.52 240.361 239.52 240.36C239.52 240.36 239.52 240.36 240 240C240.48 239.64 240.48 239.64 240.48 239.64C240.48 239.639 240.479 239.639 240.479 239.639C240.479 239.639 240.479 239.638 240.478 239.638C240.478 239.637 240.477 239.636 240.476 239.635C240.474 239.633 240.472 239.63 240.47 239.627C240.465 239.62 240.459 239.612 240.451 239.602C240.434 239.582 240.412 239.554 240.382 239.52C240.324 239.451 240.237 239.354 240.119 239.232C239.883 238.987 239.522 238.643 239.003 238.222C237.967 237.38 236.304 236.231 233.768 234.963L233.232 236.037ZM239.477 240.294L241 243.001L242.046 242.413L240.523 239.706L239.477 240.294ZM240.949 242.884L242.427 247.677L243.573 247.323L242.096 242.53L240.949 242.884ZM242.402 247.543L242.902 254.543L244.099 254.457L243.599 247.457L242.402 247.543ZM242.9 254.5V259.5H244.1V254.5H242.9ZM236.618 286.133L236.096 281.926L234.905 282.074L235.427 286.281L236.618 286.133ZM233.478 274.817L230.478 271.317L229.567 272.097L232.567 275.597L233.478 274.817ZM230.097 271.112L226.097 270.611L225.948 271.802L229.948 272.302L230.097 271.112ZM239.952 277.756L237.952 282.256L239.048 282.744L241.048 278.244L239.952 277.756ZM238.001 282.167L235.524 285.874L236.521 286.54L238.999 282.833L238.001 282.167ZM199.65 310.012L193.827 314.189L194.527 315.164L200.35 310.988L199.65 310.012ZM199.588 315.618L200.588 310.618L199.412 310.382L198.412 315.382L199.588 315.618ZM206.107 308.547L198.607 315.047L199.393 315.953L206.893 309.453L206.107 308.547ZM207.1 314V309H205.9V314H207.1ZM210.576 309.076L206.076 313.576L206.924 314.424L211.424 309.924L210.576 309.076ZM213.499 312.167L211.499 309.167L210.501 309.833L212.501 312.833L213.499 312.167ZM215.501 307.667L212.501 312.167L213.499 312.833L216.499 308.333L215.501 307.667ZM219.424 310.576L216.424 307.576L215.576 308.424L218.576 311.424L219.424 310.576ZM218.902 304.95L218.402 310.95L219.598 311.05L220.098 305.05L218.902 304.95ZM223.391 307.544L219.891 304.544L219.11 305.456L222.61 308.456L223.391 307.544ZM221.903 303.06L222.403 308.06L223.597 307.94L223.097 302.94L221.903 303.06ZM227.244 304.452L222.744 302.452L222.256 303.548L226.756 305.548L227.244 304.452ZM223.991 301.318L226.491 305.318L227.509 304.682L225.009 300.682L223.991 301.318ZM228.711 301.938L224.711 300.438L224.289 301.562L228.289 303.062L228.711 301.938ZM225.02 298.86L228.02 302.86L228.98 302.14L225.98 298.14L225.02 298.86ZM229.574 298.405L225.574 297.905L225.426 299.095L229.426 299.595L229.574 298.405ZM225.14 296.48L229.14 299.48L229.86 298.52L225.86 295.52L225.14 296.48ZM224.848 294.08L229.348 295.257L229.652 294.096L225.152 292.92L224.848 294.08ZM229.312 294.107L225.312 295.43L225.688 296.57L229.688 295.246L229.312 294.107ZM228 257.1H230V255.9H228V257.1ZM230.537 261.732L229.537 259.732L228.463 260.268L229.463 262.268L230.537 261.732ZM229.577 259.835L228.577 256.335L227.423 256.665L228.423 260.165L229.577 259.835ZM235.5 263.4H231.5V264.6H235.5V263.4ZM231.98 263.64L230.48 261.64L229.52 262.36L231.02 264.36L231.98 263.64ZM229.605 256.952L233.605 260.452L234.395 259.548L230.395 256.048L229.605 256.952ZM233.438 260.211L234.938 264.211L236.062 263.789L234.562 259.789L233.438 260.211ZM242.824 249.575L249.324 251.575L249.676 250.428L243.176 248.428L242.824 249.575ZM250.069 250.812L248.569 246.312L247.431 246.691L248.931 251.191L250.069 250.812ZM247.789 247.063L259.789 251.563L260.211 250.44L248.211 245.94L247.789 247.063ZM260.518 250.699L257.018 244.699L255.982 245.304L259.482 251.304L260.518 250.699ZM256.324 245.575L269.324 249.575L269.676 248.428L256.676 244.428L256.324 245.575ZM269.924 248.577L264.424 243.077L263.576 243.926L269.076 249.426L269.924 248.577ZM263.922 244.097L275.422 245.597L275.578 244.407L264.078 242.907L263.922 244.097ZM275.952 244.607L272.452 240.607L271.548 241.397L275.048 245.397L275.952 244.607ZM272 241.602H282.5V240.402H272V241.602ZM282.849 240.513L275.849 235.513L275.151 236.49L282.151 241.49L282.849 240.513ZM275.582 236.596L290.082 234.596L289.918 233.407L275.418 235.407L275.582 236.596ZM290.223 233.444L282.723 230.444L282.277 231.559L289.777 234.559L290.223 233.444ZM282.651 231.582L294.151 228.582L293.849 227.421L282.349 230.421L282.651 231.582ZM294.236 227.45L287.236 224.45L286.764 225.553L293.764 228.553L294.236 227.45ZM287.333 225.5L297.833 218.5L297.167 217.502L286.667 224.502L287.333 225.5ZM297.401 217.409L288.401 218.909L288.599 220.092L297.599 218.593L297.401 217.409ZM288.905 219.944L300.405 209.443L299.595 208.557L288.095 219.057L288.905 219.944ZM299.873 208.414L288.373 210.914L288.627 212.086L300.127 209.586L299.873 208.414ZM288.961 211.884L298.961 199.886L298.039 199.117L288.039 211.116L288.961 211.884ZM298.232 198.965L288.232 203.963L288.768 205.037L298.768 200.038L298.232 198.965ZM289.017 204.805L295.517 193.805L294.483 193.195L287.983 204.195L289.017 204.805ZM248.636 263.479L259.136 271.479L259.864 270.524L249.364 262.524L248.636 263.479ZM260.098 270.955L259.098 257.956L257.902 258.048L258.902 271.048L260.098 270.955ZM258.048 258.397L265.048 266.397L265.952 265.607L258.952 257.607L258.048 258.397ZM265.347 266.582L274.847 269.082L275.153 267.922L265.653 265.422L265.347 266.582ZM275.49 268.156L269.49 259.656L268.51 260.348L274.51 268.848L275.49 268.156ZM268.682 260.511L272.682 263.011L273.318 261.993L269.318 259.493L268.682 260.511ZM273.557 262.279L270.557 254.779L269.443 255.224L272.443 262.725L273.557 262.279ZM269.59 255.439L277.59 262.94L278.41 262.064L270.41 254.564L269.59 255.439ZM277.743 263.044L287.243 267.544L287.757 266.459L278.257 261.96L277.743 263.044ZM288.024 266.71L283.024 257.71L281.975 258.293L286.975 267.293L288.024 266.71ZM282.335 258.579L285.835 259.578L286.165 258.425L282.665 257.425L282.335 258.579ZM286.468 258.627L282.468 253.627L281.531 254.376L285.531 259.376L286.468 258.627ZM281.696 254.519L290.196 259.519L290.804 258.484L282.304 253.484L281.696 254.519ZM290.347 259.582L299.847 262.082L300.153 260.921L290.653 258.421L290.347 259.582ZM300.448 261.103L292.448 252.103L291.552 252.9L299.552 261.9L300.448 261.103ZM291.709 253.026L296.209 255.526L296.791 254.477L292.291 251.977L291.709 253.026ZM297.046 254.753L295.228 250.753L294.136 251.25L295.954 255.25L297.046 254.753ZM294.625 251.599L310.443 253.099L310.557 251.904L294.738 250.404L294.625 251.599ZM310.895 252.05L298.895 241.55L298.105 242.453L310.105 252.953L310.895 252.05ZM298.202 242.522L305.202 246.523L305.798 245.481L298.798 241.481L298.202 242.522ZM306.006 245.679L302.506 240.179L301.494 240.824L304.994 246.324L306.006 245.679ZM311.145 243.584L321.145 241.084L320.854 239.919L310.854 242.419L311.145 243.584ZM301.732 241.038L305.732 243.038L306.268 241.965L302.268 239.965L301.732 241.038ZM305.94 243.099L310.94 243.599L311.06 242.405L306.06 241.905L305.94 243.099ZM321.276 239.969L306.776 232.468L306.224 233.534L320.724 241.034L321.276 239.969ZM306.658 233.58L317.658 230.58L317.342 229.422L306.342 232.422L306.658 233.58ZM317.758 230.543L328.258 225.543L327.742 224.459L317.242 229.459L317.758 230.543ZM328.141 224.418L313.641 220.918L313.359 222.084L327.859 225.584L328.141 224.418ZM313.537 222.1L321.537 221.6L321.463 220.402L313.463 220.902L313.537 222.1ZM321.86 220.521L317.86 217.521L317.14 218.481L321.14 221.481L321.86 220.521ZM317.736 218.552L328.236 214.052L327.764 212.949L317.264 217.449L317.736 218.552ZM328.439 213.91L335.439 206.41L334.561 205.591L327.561 213.091L328.439 213.91ZM334.901 205.409L322.901 207.409L323.099 208.592L335.099 206.592L334.901 205.409ZM323.223 208.558L328.223 206.558L327.777 205.443L322.777 207.443L323.223 208.558ZM328.135 205.416L321.635 203.916L321.365 205.085L327.865 206.585L328.135 205.416ZM321.868 204.974L330.868 197.974L330.132 197.027L321.132 204.027L321.868 204.974ZM330.985 197.854L338.985 186.854L338.015 186.148L330.015 197.148L330.985 197.854ZM338.24 185.96L325.74 191.959L326.26 193.041L338.76 187.042L338.24 185.96ZM326.492 192.844L329.992 187.844L329.008 187.156L325.508 192.156L326.492 192.844ZM329.196 186.983L320.696 191.983L321.304 193.018L329.804 188.018L329.196 186.983ZM321.443 192.905L331.943 181.405L331.057 180.596L320.557 192.096L321.443 192.905ZM332.037 181.268L339.037 167.268L337.963 166.732L330.963 180.732L332.037 181.268ZM338.088 166.564L329.088 175.064L329.912 175.936L338.912 167.436L338.088 166.564ZM330.1 175.5V170H328.9V175.5H330.1ZM329.105 169.549L321.105 176.549L321.895 177.452L329.895 170.452L329.105 169.549ZM322.005 177.324L330.005 164.823L328.995 164.177L320.995 176.677L322.005 177.324ZM330.056 164.726L335.556 151.226L334.444 150.774L328.944 164.274L330.056 164.726ZM334.628 150.529L313.128 167.529L313.872 168.471L335.372 151.471L334.628 150.529ZM313.208 167.476L291.708 179.476L292.292 180.524L313.792 168.524L313.208 167.476ZM291.415 179.865L289.915 186.365L291.085 186.635L292.585 180.135L291.415 179.865ZM182.971 356.848L190.944 357.597L191.056 356.402L183.084 355.654L182.971 356.848ZM190.732 356.463L185.732 358.963L186.268 360.036L191.268 357.536L190.732 356.463ZM186.145 360.082L192.145 358.582L191.854 357.417L185.854 358.917L186.145 360.082ZM191.599 357.553L186.599 362.054L187.401 362.945L192.401 358.445L191.599 357.553ZM187.04 363.098L194.54 362.599L194.46 361.401L186.96 361.901L187.04 363.098ZM194.156 361.508L189.156 365.008L189.844 365.991L194.844 362.491L194.156 361.508ZM189.5 366.1H197V364.9H189.5V366.1ZM196.539 365.116L194.039 368.116L194.961 368.884L197.461 365.884L196.539 365.116ZM194.5 369.1H202V367.9H194.5V369.1ZM201.479 368.202L199.479 371.702L200.521 372.298L202.521 368.798L201.479 368.202ZM200.19 372.569L206.19 370.569L205.81 369.431L199.81 371.431L200.19 372.569ZM205.431 369.81L203.931 374.31L205.069 374.69L206.569 370.19L205.431 369.81ZM204.833 374.999L209.333 371.999L208.667 371.001L204.167 374.001L204.833 374.999ZM208.4 371.5V376H209.6V371.5H208.4ZM209.448 376.398L213.448 371.898L212.551 371.101L208.551 375.601L209.448 376.398ZM212.414 371.63L213.414 376.13L214.586 375.87L213.586 371.37L212.414 371.63ZM214.499 376.333L217.499 371.833L216.501 371.167L213.501 375.667L214.499 376.333ZM216.431 371.69L217.931 376.19L219.069 375.81L217.569 371.31L216.431 371.69ZM219.073 376.176L221.073 369.676L219.926 369.324L217.926 375.823L219.073 376.176ZM219.979 369.798L221.979 373.298L223.021 372.702L221.021 369.202L219.979 369.798ZM223.054 373.231L225.554 367.231L224.446 366.769L221.946 372.769L223.054 373.231ZM224.431 367.19L225.931 371.69L227.069 371.31L225.569 366.81L224.431 367.19ZM227.092 371.598L228.092 365.598L226.908 365.401L225.908 371.401L227.092 371.598ZM106 269.4H88.5V270.6H106V269.4ZM224.777 231.557L229.777 233.557L230.223 232.443L225.223 230.443L224.777 231.557ZM229.037 271.768L231.037 267.768L229.963 267.232L227.963 271.232L229.037 271.768ZM64.066 117.414L74.566 128.414L75.434 127.586L64.934 116.586L64.066 117.414ZM74.8454 128.58L82.3454 130.58L82.6546 129.42L75.1546 127.42L74.8454 128.58Z" fill="white"/>
</g>
<g filter="url(#filter1_d_15_107)">
<path d="M218.5 0.00311518C248.214 0.00311552 277.548 6.00998 305 17.2291C332.452 28.4482 360.489 46.1165 381.5 66.8468C402.511 87.5771 422.129 111.559 433.5 138.645C444.871 165.73 454 199.94 454 229.257C454 258.574 450.03 271.111 442.43 299.922C433.025 328.445 413.782 361.247 392.771 381.978C371.76 402.708 347.342 421.988 319.89 433.207C292.437 444.426 257.443 452.503 227.729 452.503L213.11 452.045L199.763 450.816L185.992 448.717L157.444 441.355L130.276 430.401L93.1582 407.768L56.7281 373.283L30.174 334.003L24.253 322.003C4 281.503 103.835 461.084 281 397.003C304.5 388.503 331.334 370.96 347 355.503C367 340.528 368.729 330.503 387.5 305.503C399.229 281.422 409.5 255.893 409.5 214.503C409.5 191.107 405.979 155.638 397.5 135.442C391.78 115.911 380.271 101.003 366.5 83.5032C352.729 66.0032 337.204 49.0864 311.19 33.0032C256.19 -1.00018 240.656 0.00311544 218.5 0.00311518Z" fill="#9F9F9F" fill-opacity="0.96" shape-rendering="crispEdges"/>
</g>
<g filter="url(#filter2_i_15_107)">
<path d="M173.622 137.113L178.368 149.651L173.622 153.605V137.113Z" fill="#FFB801"/>
<path d="M173.622 137V153.605L169.24 149.651L173.622 137Z" fill="#FFB801"/>
<path d="M169.849 160.721L160.234 167.046L166.441 157.219L168.753 157.784L169.849 160.721Z" fill="#FFB801"/>
<path d="M173.622 153.605H192L178.734 157.897L173.622 153.605Z" fill="#FFB801"/>
<path d="M168.753 157.784L173.622 153.605L173.622 171L168.753 157.784Z" fill="#FFB801"/>
<path d="M159.747 141.066L170.214 146.94L169.24 149.764L166.319 150.555L159.747 141.066Z" fill="#FFB801"/>
<path d="M178.368 149.651L177.395 147.053L187.497 141.066L181.533 150.555L178.368 149.651Z" fill="#FFB801"/>
<path d="M155 153.944L173.622 153.605L168.753 157.784L164.128 156.654L155 153.944Z" fill="#FFB801"/>
<path d="M178.855 157.784L181.655 156.88L187.497 166.934L177.517 160.947L178.855 157.784Z" fill="#FFB801"/>
<path d="M178.368 149.651L192 153.605H173.622L178.368 149.651Z" fill="#FFB801"/>
<path d="M169.24 149.651L173.622 153.605L155 153.944L169.24 149.651Z" fill="#FFB801"/>
<path d="M173.622 153.605L178.855 157.784L173.622 171L173.622 153.605Z" fill="#FFB801"/>
</g>
<path d="M187.192 141.363L181.488 150.438L178.444 149.569L177.518 147.096L187.192 141.363ZM173.898 153.505L178.392 149.762L191.296 153.505H173.898ZM173.907 153.705H191.366L181.736 156.821L181.701 156.76L181.624 156.785L178.876 157.672L173.907 153.705ZM178.25 149.62L173.722 153.391V137.66L178.25 149.62ZM164.154 156.558L155.648 154.032L173.346 153.71L168.727 157.675L166.465 157.122L166.395 157.105L164.154 156.558ZM173.522 137.594V153.38L169.386 149.648L170.308 146.973L170.336 146.894L170.307 146.878L173.522 137.594ZM160.076 141.366L170.063 146.97L169.162 149.57L166.347 150.419L160.076 141.366ZM166.265 150.652L166.277 150.67L166.345 150.651L169.266 149.861L169.31 149.849L173.367 153.509L155.722 153.83L166.265 150.652ZM168.871 157.814L173.522 153.822L173.522 170.439L169.959 160.768L169.97 160.761L169.942 160.686L168.871 157.814ZM168.678 157.869L169.717 160.688L160.565 166.709L166.487 157.333L168.678 157.869ZM181.644 157.061L187.215 166.648L177.711 160.947L178.898 157.949L181.644 157.061ZM173.722 170.476L173.722 153.819L178.667 157.972L177.424 160.908L177.391 160.988L177.462 161.031L173.722 170.476Z" stroke="black" stroke-width="0.2"/>
<g filter="url(#filter3_i_15_107)">
<path d="M210.622 103.113L215.368 115.651L210.622 119.605V103.113Z" fill="#FFB801"/>
<path d="M210.622 103V119.605L206.24 115.651L210.622 103Z" fill="#FFB801"/>
<path d="M206.849 126.721L197.234 133.046L203.441 123.219L205.753 123.784L206.849 126.721Z" fill="#FFB801"/>
<path d="M210.622 119.605H229L215.734 123.897L210.622 119.605Z" fill="#FFB801"/>
<path d="M205.753 123.784L210.622 119.605L210.622 137L205.753 123.784Z" fill="#FFB801"/>
<path d="M196.747 107.066L207.214 112.94L206.24 115.764L203.319 116.555L196.747 107.066Z" fill="#FFB801"/>
<path d="M215.368 115.651L214.395 113.053L224.497 107.066L218.533 116.555L215.368 115.651Z" fill="#FFB801"/>
<path d="M192 119.944L210.622 119.605L205.753 123.784L201.128 122.654L192 119.944Z" fill="#FFB801"/>
<path d="M215.855 123.784L218.655 122.88L224.497 132.934L214.517 126.947L215.855 123.784Z" fill="#FFB801"/>
<path d="M215.368 115.651L229 119.605H210.622L215.368 115.651Z" fill="#FFB801"/>
<path d="M206.24 115.651L210.622 119.605L192 119.944L206.24 115.651Z" fill="#FFB801"/>
<path d="M210.622 119.605L215.855 123.784L210.622 137L210.622 119.605Z" fill="#FFB801"/>
</g>
<path d="M224.192 107.363L218.488 116.438L215.444 115.569L214.518 113.096L224.192 107.363ZM210.898 119.505L215.392 115.762L228.296 119.505H210.898ZM210.907 119.705H228.366L218.736 122.821L218.701 122.76L218.624 122.785L215.876 123.672L210.907 119.705ZM215.25 115.62L210.722 119.391V103.66L215.25 115.62ZM201.154 122.558L192.648 120.032L210.346 119.71L205.727 123.675L203.465 123.122L203.395 123.105L201.154 122.558ZM210.522 103.594V119.38L206.386 115.648L207.308 112.973L207.336 112.894L207.307 112.878L210.522 103.594ZM197.076 107.366L207.063 112.97L206.162 115.57L203.347 116.419L197.076 107.366ZM203.265 116.652L203.277 116.67L203.345 116.651L206.266 115.861L206.31 115.849L210.367 119.509L192.722 119.83L203.265 116.652ZM205.871 123.814L210.522 119.822L210.522 136.439L206.959 126.768L206.97 126.761L206.942 126.686L205.871 123.814ZM205.678 123.869L206.717 126.688L197.565 132.709L203.487 123.333L205.678 123.869ZM218.644 123.061L224.215 132.648L214.711 126.947L215.898 123.949L218.644 123.061ZM210.722 136.476L210.722 119.819L215.667 123.972L214.424 126.908L214.391 126.988L214.462 127.031L210.722 136.476Z" stroke="black" stroke-width="0.2"/>
<g filter="url(#filter4_i_15_107)">
<path d="M210.622 171.113L215.368 183.651L210.622 187.605V171.113Z" fill="#FFB801"/>
<path d="M210.622 171V187.605L206.24 183.651L210.622 171Z" fill="#FFB801"/>
<path d="M206.849 194.721L197.234 201.046L203.441 191.219L205.753 191.784L206.849 194.721Z" fill="#FFB801"/>
<path d="M210.622 187.605H229L215.734 191.897L210.622 187.605Z" fill="#FFB801"/>
<path d="M205.753 191.784L210.622 187.605L210.622 205L205.753 191.784Z" fill="#FFB801"/>
<path d="M196.747 175.066L207.214 180.94L206.24 183.764L203.319 184.555L196.747 175.066Z" fill="#FFB801"/>
<path d="M215.368 183.651L214.395 181.053L224.497 175.066L218.533 184.555L215.368 183.651Z" fill="#FFB801"/>
<path d="M192 187.944L210.622 187.605L205.753 191.784L201.128 190.654L192 187.944Z" fill="#FFB801"/>
<path d="M215.855 191.784L218.655 190.88L224.497 200.934L214.517 194.947L215.855 191.784Z" fill="#FFB801"/>
<path d="M215.368 183.651L229 187.605H210.622L215.368 183.651Z" fill="#FFB801"/>
<path d="M206.24 183.651L210.622 187.605L192 187.944L206.24 183.651Z" fill="#FFB801"/>
<path d="M210.622 187.605L215.855 191.784L210.622 205L210.622 187.605Z" fill="#FFB801"/>
</g>
<path d="M224.192 175.363L218.488 184.438L215.444 183.569L214.518 181.096L224.192 175.363ZM210.898 187.505L215.392 183.762L228.296 187.505H210.898ZM210.907 187.705H228.366L218.736 190.821L218.701 190.76L218.624 190.785L215.876 191.672L210.907 187.705ZM215.25 183.62L210.722 187.391V171.66L215.25 183.62ZM201.154 190.558L192.648 188.032L210.346 187.71L205.727 191.675L203.465 191.122L203.395 191.105L201.154 190.558ZM210.522 171.594V187.38L206.386 183.648L207.308 180.973L207.336 180.894L207.307 180.878L210.522 171.594ZM197.076 175.366L207.063 180.97L206.162 183.57L203.347 184.419L197.076 175.366ZM203.265 184.652L203.277 184.67L203.345 184.651L206.266 183.861L206.31 183.849L210.367 187.509L192.722 187.83L203.265 184.652ZM205.871 191.814L210.522 187.822L210.522 204.439L206.959 194.768L206.97 194.761L206.942 194.686L205.871 191.814ZM205.678 191.869L206.717 194.688L197.565 200.709L203.487 191.333L205.678 191.869ZM218.644 191.061L224.215 200.648L214.711 194.947L215.898 191.949L218.644 191.061ZM210.722 204.476L210.722 187.819L215.667 191.972L214.424 194.908L214.391 194.988L214.462 195.031L210.722 204.476Z" stroke="black" stroke-width="0.2"/>
<g filter="url(#filter5_i_15_107)">
<path d="M247.622 137.113L252.368 149.651L247.622 153.605V137.113Z" fill="#FFB801"/>
<path d="M247.622 137V153.605L243.24 149.651L247.622 137Z" fill="#FFB801"/>
<path d="M243.849 160.721L234.234 167.046L240.441 157.219L242.753 157.784L243.849 160.721Z" fill="#FFB801"/>
<path d="M247.622 153.605H266L252.734 157.897L247.622 153.605Z" fill="#FFB801"/>
<path d="M242.753 157.784L247.622 153.605L247.622 171L242.753 157.784Z" fill="#FFB801"/>
<path d="M233.747 141.066L244.214 146.94L243.24 149.764L240.319 150.555L233.747 141.066Z" fill="#FFB801"/>
<path d="M252.368 149.651L251.395 147.053L261.497 141.066L255.533 150.555L252.368 149.651Z" fill="#FFB801"/>
<path d="M229 153.944L247.622 153.605L242.753 157.784L238.128 156.654L229 153.944Z" fill="#FFB801"/>
<path d="M252.855 157.784L255.655 156.88L261.497 166.934L251.517 160.947L252.855 157.784Z" fill="#FFB801"/>
<path d="M252.368 149.651L266 153.605H247.622L252.368 149.651Z" fill="#FFB801"/>
<path d="M243.24 149.651L247.622 153.605L229 153.944L243.24 149.651Z" fill="#FFB801"/>
<path d="M247.622 153.605L252.855 157.784L247.622 171L247.622 153.605Z" fill="#FFB801"/>
</g>
<path d="M261.192 141.363L255.488 150.438L252.444 149.569L251.518 147.096L261.192 141.363ZM247.898 153.505L252.392 149.762L265.296 153.505H247.898ZM247.907 153.705H265.366L255.736 156.821L255.701 156.76L255.624 156.785L252.876 157.672L247.907 153.705ZM252.25 149.62L247.722 153.391V137.66L252.25 149.62ZM238.154 156.558L229.648 154.032L247.346 153.71L242.727 157.675L240.465 157.122L240.395 157.105L238.154 156.558ZM247.522 137.594V153.38L243.386 149.648L244.308 146.973L244.336 146.894L244.307 146.878L247.522 137.594ZM234.076 141.366L244.063 146.97L243.162 149.57L240.347 150.419L234.076 141.366ZM240.265 150.652L240.277 150.67L240.345 150.651L243.266 149.861L243.31 149.849L247.367 153.509L229.722 153.83L240.265 150.652ZM242.871 157.814L247.522 153.822L247.522 170.439L243.959 160.768L243.97 160.761L243.942 160.686L242.871 157.814ZM242.678 157.869L243.717 160.688L234.565 166.709L240.487 157.333L242.678 157.869ZM255.644 157.061L261.215 166.648L251.711 160.947L252.898 157.949L255.644 157.061ZM247.722 170.476L247.722 153.819L252.667 157.972L251.424 160.908L251.391 160.988L251.462 161.031L247.722 170.476Z" stroke="black" stroke-width="0.2"/>
<defs>
<filter id="filter0_d_15_107" x="40.6918" y="101.354" width="338.075" height="301.86" filterUnits="userSpaceOnUse" color-interpolation-filters="sRGB">
<feFlood flood-opacity="0" result="BackgroundImageFix"/>
<feColorMatrix in="SourceAlpha" type="matrix" values="0 0 0 0 0 0 0 0 0 0 0 0 0 0 0 0 0 0 127 0" result="hardAlpha"/>
<feOffset dy="4"/>
<feGaussianBlur stdDeviation="2"/>
<feComposite in2="hardAlpha" operator="out"/>
<feColorMatrix type="matrix" values="0 0 0 0 0 0 0 0 0 0 0 0 0 0 0 0 0 0 0.25 0"/>
<feBlend mode="normal" in2="BackgroundImageFix" result="effect1_dropShadow_15_107"/>
<feBlend mode="normal" in="SourceGraphic" in2="effect1_dropShadow_15_107" result="shape"/>
</filter>
<filter id="filter1_d_15_107" x="0" y="0" width="458" height="460.503" filterUnits="userSpaceOnUse" color-interpolation-filters="sRGB">
<feFlood flood-opacity="0" result="BackgroundImageFix"/>
<feColorMatrix in="SourceAlpha" type="matrix" values="0 0 0 0 0 0 0 0 0 0 0 0 0 0 0 0 0 0 127 0" result="hardAlpha"/>
<feOffset dy="4"/>
<feGaussianBlur stdDeviation="2"/>
<feComposite in2="hardAlpha" operator="out"/>
<feColorMatrix type="matrix" values="0 0 0 0 0 0 0 0 0 0 0 0 0 0 0 0 0 0 0.25 0"/>
<feBlend mode="normal" in2="BackgroundImageFix" result="effect1_dropShadow_15_107"/>
<feBlend mode="normal" in="SourceGraphic" in2="effect1_dropShadow_15_107" result="shape"/>
</filter>
<filter id="filter2_i_15_107" x="155" y="137" width="37" height="38" filterUnits="userSpaceOnUse" color-interpolation-filters="sRGB">
<feFlood flood-opacity="0" result="BackgroundImageFix"/>
<feBlend mode="normal" in="SourceGraphic" in2="BackgroundImageFix" result="shape"/>
<feColorMatrix in="SourceAlpha" type="matrix" values="0 0 0 0 0 0 0 0 0 0 0 0 0 0 0 0 0 0 127 0" result="hardAlpha"/>
<feOffset dy="4"/>
<feGaussianBlur stdDeviation="2"/>
<feComposite in2="hardAlpha" operator="arithmetic" k2="-1" k3="1"/>
<feColorMatrix type="matrix" values="0 0 0 0 0 0 0 0 0 0 0 0 0 0 0 0 0 0 0.25 0"/>
<feBlend mode="normal" in2="shape" result="effect1_innerShadow_15_107"/>
</filter>
<filter id="filter3_i_15_107" x="192" y="103" width="37" height="38" filterUnits="userSpaceOnUse" color-interpolation-filters="sRGB">
<feFlood flood-opacity="0" result="BackgroundImageFix"/>
<feBlend mode="normal" in="SourceGraphic" in2="BackgroundImageFix" result="shape"/>
<feColorMatrix in="SourceAlpha" type="matrix" values="0 0 0 0 0 0 0 0 0 0 0 0 0 0 0 0 0 0 127 0" result="hardAlpha"/>
<feOffset dy="4"/>
<feGaussianBlur stdDeviation="2"/>
<feComposite in2="hardAlpha" operator="arithmetic" k2="-1" k3="1"/>
<feColorMatrix type="matrix" values="0 0 0 0 0 0 0 0 0 0 0 0 0 0 0 0 0 0 0.25 0"/>
<feBlend mode="normal" in2="shape" result="effect1_innerShadow_15_107"/>
</filter>
<filter id="filter4_i_15_107" x="192" y="171" width="37" height="38" filterUnits="userSpaceOnUse" color-interpolation-filters="sRGB">
<feFlood flood-opacity="0" result="BackgroundImageFix"/>
<feBlend mode="normal" in="SourceGraphic" in2="BackgroundImageFix" result="shape"/>
<feColorMatrix in="SourceAlpha" type="matrix" values="0 0 0 0 0 0 0 0 0 0 0 0 0 0 0 0 0 0 127 0" result="hardAlpha"/>
<feOffset dy="4"/>
<feGaussianBlur stdDeviation="2"/>
<feComposite in2="hardAlpha" operator="arithmetic" k2="-1" k3="1"/>
<feColorMatrix type="matrix" values="0 0 0 0 0 0 0 0 0 0 0 0 0 0 0 0 0 0 0.25 0"/>
<feBlend mode="normal" in2="shape" result="effect1_innerShadow_15_107"/>
</filter>
<filter id="filter5_i_15_107" x="229" y="137" width="37" height="38" filterUnits="userSpaceOnUse" color-interpolation-filters="sRGB">
<feFlood flood-opacity="0" result="BackgroundImageFix"/>
<feBlend mode="normal" in="SourceGraphic" in2="BackgroundImageFix" result="shape"/>
<feColorMatrix in="SourceAlpha" type="matrix" values="0 0 0 0 0 0 0 0 0 0 0 0 0 0 0 0 0 0 127 0" result="hardAlpha"/>
<feOffset dy="4"/>
<feGaussianBlur stdDeviation="2"/>
<feComposite in2="hardAlpha" operator="arithmetic" k2="-1" k3="1"/>
<feColorMatrix type="matrix" values="0 0 0 0 0 0 0 0 0 0 0 0 0 0 0 0 0 0 0.25 0"/>
<feBlend mode="normal" in2="shape" result="effect1_innerShadow_15_107"/>
</filter>
<linearGradient id="paint0_linear_15_107" x1="209.75" y1="107.5" x2="209.75" y2="393.904" gradientUnits="userSpaceOnUse">
<stop offset="0.144388"/>
<stop offset="0.858912" stop-color="#1B0046" stop-opacity="0.93"/>
<stop offset="1" stop-color="#000002"/>
</linearGradient>
<linearGradient id="paint1_linear_15_107" x1="209.75" y1="103" x2="209.75" y2="393.904" gradientUnits="userSpaceOnUse">
<stop offset="0.144388"/>
<stop offset="0.858912" stop-color="#1B0046" stop-opacity="0.93"/>
<stop offset="1" stop-color="#000002"/>
</linearGradient>
</defs>
</svg>
